<?xml version="1.0" encoding="UTF-8" standalone="no"?>
<!-- Created with Inkscape (http://www.inkscape.org/) -->

<svg
   width="140.44064mm"
   height="140.44064mm"
   viewBox="0 0 140.44064 140.44064"
   version="1.1"
   id="svg1"
   inkscape:version="1.3.1 (9b9bdc1480, 2023-11-25, custom)"
   sodipodi:docname="logo.svg"
   xmlns:inkscape="http://www.inkscape.org/namespaces/inkscape"
   xmlns:sodipodi="http://sodipodi.sourceforge.net/DTD/sodipodi-0.dtd"
   xmlns="http://www.w3.org/2000/svg"
   xmlns:svg="http://www.w3.org/2000/svg">
  <sodipodi:namedview
     id="namedview1"
     pagecolor="#ffffff"
     bordercolor="#000000"
     borderopacity="0.25"
     inkscape:showpageshadow="2"
     inkscape:pageopacity="0.0"
     inkscape:pagecheckerboard="0"
     inkscape:deskcolor="#d1d1d1"
     inkscape:document-units="mm"
     inkscape:zoom="0.78929574"
     inkscape:cx="193.21022"
     inkscape:cy="338.27625"
     inkscape:window-width="1854"
     inkscape:window-height="1131"
     inkscape:window-x="0"
     inkscape:window-y="0"
     inkscape:window-maximized="1"
     inkscape:current-layer="layer1" />
  <defs
     id="defs1">
    <clipPath
       clipPathUnits="userSpaceOnUse"
       id="clipPath29">
      <path
         d="M 0,0 H 612 V 792 H 0 Z"
         transform="translate(-105.5647,-667.49332)"
         id="path29" />
    </clipPath>
    <clipPath
       clipPathUnits="userSpaceOnUse"
       id="clipPath31">
      <path
         d="M 0,0 H 612 V 792 H 0 Z"
         transform="translate(-121.1149,-676.17791)"
         id="path31" />
    </clipPath>
    <clipPath
       clipPathUnits="userSpaceOnUse"
       id="clipPath33">
      <path
         d="M 0,0 H 612 V 792 H 0 Z"
         transform="translate(-136.2418,-667.38272)"
         id="path33" />
    </clipPath>
    <clipPath
       clipPathUnits="userSpaceOnUse"
       id="clipPath35">
      <path
         d="M 0,0 H 612 V 792 H 0 Z"
         transform="translate(-120.61161,-649.38652)"
         id="path35" />
    </clipPath>
  </defs>
  <g
     inkscape:label="Layer 1"
     inkscape:groupmode="layer"
     id="layer1"
     transform="translate(-54.097662,-59.040491)">
    <g
       id="g2"
       transform="matrix(2.2503628,0,0,2.2503628,-237.57517,-228.42835)">
      <path
         id="path28"
         d="m 0,0 c 0,-1.541 -0.135,-2.685 1.743,-2.795 l 0.448,-0.023 v -0.671 h -5.438 v 0.671 h 0.225 c 0.605,0.044 1.23,0.133 1.543,0.74 0.268,0.537 0.224,1.498 0.224,2.078 v 8.259 c 0,1.476 0.157,2.662 -1.654,2.797 l -0.338,0.021 V 11.75 H 1.701 L 8.993,-0.379 h 0.046 v 8.615 c 0,1.543 0.155,2.708 -1.744,2.82 l -0.45,0.021 v 0.673 h 5.483 V 11.077 L 12.08,11.056 C 11.478,11.011 10.828,10.944 10.515,10.341 10.246,9.804 10.292,8.841 10.292,8.236 V -3.489 H 8.368 L 0.044,10.071 H 0 Z"
         style="fill:#231f20;fill-opacity:1;fill-rule:nonzero;stroke:none"
         transform="matrix(1.3333333,0,0,-1.3333333,140.75293,166.00893)"
         clip-path="url(#clipPath29)" />
      <path
         id="path30"
         d="m 0,0 c 0,-1.298 0.379,-2.643 1.947,-2.643 1.388,0 1.746,1.388 1.746,2.531 C 3.693,1.073 3.403,2.73 1.88,2.73 0.379,2.73 0,1.209 0,0 m -1.567,0 c 0,2.036 1.298,3.445 3.357,3.445 2.058,0 3.468,-1.342 3.468,-3.445 0,-2.08 -1.365,-3.358 -3.424,-3.358 -2.059,0 -3.401,1.299 -3.401,3.358"
         style="fill:#231f20;fill-opacity:1;fill-rule:nonzero;stroke:none"
         transform="matrix(1.3333333,0,0,-1.3333333,161.48653,154.42947)"
         clip-path="url(#clipPath31)" />
      <path
         id="path32"
         d="m 0,0 c 0,-2.349 0.248,-2.528 2.661,-2.707 v -0.671 h -7.628 v 0.671 c 0.671,0.112 1.588,0.179 2.191,0.492 0.271,0.135 0.404,0.337 0.473,0.648 0.089,0.404 0.065,1.188 0.065,1.636 v 8.009 c 0,1.993 -0.134,2.42 -2.281,2.42 h -0.448 v 0.669 l 4.138,0.694 H 0 Z"
         style="fill:#231f20;fill-opacity:1;fill-rule:nonzero;stroke:none"
         transform="matrix(1.3333333,0,0,-1.3333333,181.65573,166.1564)"
         clip-path="url(#clipPath33)" />
      <path
         id="path34"
         d="m 0,0 c -12.905,0 -23.403,10.499 -23.403,23.402 0,12.905 10.498,23.404 23.403,23.404 12.905,0 23.403,-10.499 23.403,-23.404 C 23.403,10.499 12.905,0 0,0 m 0,46.074 c -12.501,0 -22.671,-10.171 -22.671,-22.672 0,-12.5 10.17,-22.67 22.671,-22.67 12.5,0 22.671,10.17 22.671,22.67 C 22.671,35.903 12.5,46.074 0,46.074"
         style="fill:#231f20;fill-opacity:1;fill-rule:nonzero;stroke:none"
         transform="matrix(1.3333333,0,0,-1.3333333,160.81547,190.15133)"
         clip-path="url(#clipPath35)" />
    </g>
  </g>
</svg>
