<svg xmlns="http://www.w3.org/2000/svg" viewBox="0 0 62.41 67.56"><defs><style>.cls-1{fill:#fff;fill-rule:evenodd;}</style></defs><g id="Layer_1" data-name="Layer 1"><path class="cls-1" d="M57.31,8.76C26.09,12.63-2.26,35.12,29.38,42.41c-20.09-6.7-7.2-19.86,23.24-25.6Z"/><path class="cls-1" d="M62.41,0C48.33,2.07,21.05,12.18,15.8,25.65a24.71,24.71,0,0,1,3.05-3.25C24.09,17.69,32,13.74,40.17,11.05A85.75,85.75,0,0,1,58.24,7.17Z"/><path class="cls-1" d="M5.34,58.88C36.65,55.49,65.6,33.46,34.16,25.67c19.91,7,6.67,20-23.91,25.24Z"/><path class="cls-1" d="M0,67.56C14.14,65.7,41.68,56,47.29,42.65a25,25,0,0,1-3.14,3.2c-5.36,4.62-13.35,8.45-21.61,11a87.18,87.18,0,0,1-18.17,3.6Z"/></g></svg>