<?xml version="1.0" encoding="UTF-8" standalone="no"?>
<!-- Created with Inkscape (http://www.inkscape.org/) -->

<svg
   width="649.79456"
   height="552.32513"
   viewBox="0 0 171.92481 146.13602"
   version="1.1"
   id="svg1"
   xml:space="preserve"
   inkscape:version="1.3.1 (9b9bdc1480, 2023-11-25, custom)"
   sodipodi:docname="turso-logomark-illustrated.svg"
   xmlns:inkscape="http://www.inkscape.org/namespaces/inkscape"
   xmlns:sodipodi="http://sodipodi.sourceforge.net/DTD/sodipodi-0.dtd"
   xmlns="http://www.w3.org/2000/svg"
   xmlns:svg="http://www.w3.org/2000/svg"><sodipodi:namedview
     id="namedview1"
     pagecolor="#ffffff"
     bordercolor="#000000"
     borderopacity="0.25"
     inkscape:showpageshadow="2"
     inkscape:pageopacity="0.0"
     inkscape:pagecheckerboard="0"
     inkscape:deskcolor="#d1d1d1"
     inkscape:document-units="mm"
     showgrid="false"
     inkscape:zoom="0.78929574"
     inkscape:cx="100.08923"
     inkscape:cy="467.50538"
     inkscape:window-width="1854"
     inkscape:window-height="1131"
     inkscape:window-x="0"
     inkscape:window-y="0"
     inkscape:window-maximized="1"
     inkscape:current-layer="layer1" /><defs
     id="defs1" /><g
     inkscape:label="Layer 1"
     inkscape:groupmode="layer"
     id="layer1"
     transform="translate(-78.463775,-24.853564)"><g
       style="fill:none"
       id="g1"
       transform="matrix(0.85962364,0,0,0.85962364,61.224109,-5.2332631)"><path
         d="m 120.055,205 c -2.19,0 -18.2,-12.8 -21.3001,-16.45 -2.44,3.73 -6.44,7.96 -6.44,7.96 -11.05,-5.57 -25.17,-20.06 -27.83,-25.13 -2.62,-5 -12.13,-62.58 -12.39,-79.3 -0.34,-9.41 5.85,-28.49 67.9601,-28.49 62.11,0 68.29,19.08 67.96,28.49 -0.25,16.72 -9.76,74.3 -12.39,79.3 -2.66,5.07 -16.78,19.56 -27.83,25.13 0,0 -4,-4.23 -6.44,-7.96 -3.1,3.65 -19.11,16.45 -21.3,16.45 z"
         fill="#1ebca1"
         id="path1" /><path
         d="m 120.055,167.92 c -20.7301,0 -33.9601,-10.95 -33.9601,-10.95 l 1.91,-26.67 -21.75,-1.94 -3.91,-31.55 H 177.775 l -3.91,31.55 -21.75,1.94 1.91,26.67 c 0,0 -13.23,10.95 -33.96,10.95 z"
         fill="#183134"
         id="path2" /><path
         d="m 141.535,110.79 78.52,-27.18 C 215.385,55.67 190.895,35 190.895,35 v 30.78 l -14.54,3.75 -9.11,-10.97 -7.8,15.34 -39.38,10.16 -39.3801,-10.16 -7.8,-15.34 -9.11,10.97 -14.54,-3.75 V 35 c 0,0 -24.51,20.67 -29.18,48.61 l 78.52,27.18 -2.8,37.39 c 6.7001,1.7 13.7501,3.39 24.2801,3.39 10.53,0 17.57,-1.69 24.27,-3.39 l -2.8,-37.39 z"
         fill="#4ff8d2"
         id="path3" /></g></g></svg>
