<?xml version="1.0" encoding="UTF-8" standalone="no"?>
<!-- Created with Inkscape (http://www.inkscape.org/) -->

<svg
   width="108.97775mm"
   height="49.295731mm"
   viewBox="0 0 108.97775 49.295731"
   version="1.1"
   id="svg1"
   xml:space="preserve"
   inkscape:version="1.3.1 (9b9bdc1480, 2023-11-25, custom)"
   sodipodi:docname="cloudflare.svg"
   xmlns:inkscape="http://www.inkscape.org/namespaces/inkscape"
   xmlns:sodipodi="http://sodipodi.sourceforge.net/DTD/sodipodi-0.dtd"
   xmlns="http://www.w3.org/2000/svg"
   xmlns:svg="http://www.w3.org/2000/svg"><sodipodi:namedview
     id="namedview1"
     pagecolor="#ffffff"
     bordercolor="#000000"
     borderopacity="0.25"
     inkscape:showpageshadow="2"
     inkscape:pageopacity="0.0"
     inkscape:pagecheckerboard="0"
     inkscape:deskcolor="#d1d1d1"
     inkscape:document-units="mm"
     inkscape:zoom="0.78929574"
     inkscape:cx="205.24626"
     inkscape:cy="112.75875"
     inkscape:window-width="1854"
     inkscape:window-height="1131"
     inkscape:window-x="0"
     inkscape:window-y="0"
     inkscape:window-maximized="1"
     inkscape:current-layer="layer1" /><defs
     id="defs1" /><g
     inkscape:label="Layer 1"
     inkscape:groupmode="layer"
     id="layer1"
     transform="translate(-50.46042,-118.51885)"><g
       id="g1"><path
         fill="#f38020"
         d="m 124.76587,167.02083 c 2.91042,-6.87916 -1.05833,-10.05416 -5.02708,-10.05416 L 80.580455,156.4375 c -1.058333,0 -1.058333,-1.5875 0.264583,-1.85208 l 39.687502,-0.52917 c 4.49791,-0.26458 9.78958,-3.96875 11.37708,-8.73125 0,0 2.64583,-5.55625 2.38125,-6.35 a 25.664583,25.664583 0 0 0 -49.477082,-2.91042 c -10.054166,-6.61458 -20.637499,2.38125 -18.256249,12.17084 -12.7,0.79375 -17.197917,12.17083 -15.875,19.05 0,0.26458 0.264583,0.52916 0.79375,0.52916 h 72.495831 c 0.26458,0 0.79375,-0.26458 0.79375,-0.79375 z"
         id="path1"
         style="stroke-width:0.264583" /><path
         fill="#faae40"
         d="m 137.99504,140.03333 c -1.05834,0 -1.5875,-0.26458 -1.85209,0.26459 l -1.32291,5.55625 c -1.32292,4.23333 0.79375,7.9375 5.29166,8.20208 l 8.46667,0.52917 c 1.05833,0 1.05833,1.5875 -0.26458,1.85208 l -8.73125,0.26458 c -9.525,1.05834 -12.17084,10.31875 -12.17084,10.31875 0,0.52917 0,0.79375 0.52917,0.79375 h 29.89792 l 0.79375,-0.52916 a 21.43125,21.43125 0 0 0 -20.6375,-27.25209"
         id="path2"
         style="stroke-width:0.264583" /></g></g></svg>
