<?xml version="1.0" encoding="UTF-8" standalone="no"?>
<!-- Created with Inkscape (http://www.inkscape.org/) -->

<svg
   width="650mm"
   height="426.30676mm"
   viewBox="0 0 650.00001 426.30675"
   version="1.1"
   id="svg1"
   xml:space="preserve"
   inkscape:version="1.3.1 (9b9bdc1480, 2023-11-25, custom)"
   sodipodi:docname="Htmx--Streamline-Simple-Icons.svg"
   xmlns:inkscape="http://www.inkscape.org/namespaces/inkscape"
   xmlns:sodipodi="http://sodipodi.sourceforge.net/DTD/sodipodi-0.dtd"
   xmlns="http://www.w3.org/2000/svg"
   xmlns:svg="http://www.w3.org/2000/svg"><sodipodi:namedview
     id="namedview1"
     pagecolor="#ffffff"
     bordercolor="#000000"
     borderopacity="0.25"
     inkscape:showpageshadow="2"
     inkscape:pageopacity="0.0"
     inkscape:pagecheckerboard="0"
     inkscape:deskcolor="#d1d1d1"
     inkscape:document-units="mm"
     showgrid="false"
     inkscape:zoom="0.27797706"
     inkscape:cx="690.70449"
     inkscape:cy="1349.0322"
     inkscape:window-width="1854"
     inkscape:window-height="1131"
     inkscape:window-x="0"
     inkscape:window-y="0"
     inkscape:window-maximized="1"
     inkscape:current-layer="layer1" /><defs
     id="defs1" /><g
     inkscape:label="Layer 1"
     inkscape:groupmode="layer"
     id="layer1"
     transform="translate(-62.830379,-76.436645)"><g
       id="g1"
       transform="matrix(19.517103,0,0,19.517103,-1163.4368,-1415.3854)"><path
         stroke="#9ab2d2"
         vector-effect="non-scaling-stroke"
         d="m 74.096352,97.886454 a 0.08466667,0.08466667 0 0 0 0.07937,0.113771 h 3.21998 a 0.08466667,0.08466667 0 0 0 0.07937,-0.05556 L 84.843717,76.81504 a 0.08466667,0.08466667 0 0 0 -0.07937,-0.113771 h -3.180291 a 0.08466667,0.08466667 0 0 0 -0.08202,0.05556 l -7.405688,21.129625"
         id="path1"
         style="fill:none;stroke-width:0.529167;stroke-linecap:butt" /><path
         stroke="#999999"
         vector-effect="non-scaling-stroke"
         d="m 66.727707,87.512142 a 0.079375,0.079375 0 0 1 0,-0.148167 l 6.717771,-2.587625 a 0.079375,0.079375 0 0 0 0.04763,-0.0979 l -0.822855,-2.516187 a 0.079375,0.079375 0 0 0 -0.105833,-0.04762 l -9.421812,3.934354 a 0.079375,0.079375 0 0 0 -0.04763,0.07408 v 2.632604 a 0.079375,0.079375 0 0 0 0.04763,0.07408 l 9.419166,3.931708 a 0.079375,0.079375 0 0 0 0.105834,-0.04763 l 0.822854,-2.513542 a 0.079375,0.079375 0 0 0 -0.04763,-0.0979 l -6.715125,-2.590271"
         id="path4"
         style="fill:none;stroke-width:0.529167;stroke-linecap:butt" /><path
         stroke="#999999"
         vector-effect="non-scaling-stroke"
         d="m 85.444332,84.673163 a 0.08466667,0.08466667 0 0 0 0.05027,0.105833 l 6.701896,2.579687 a 0.08466667,0.08466667 0 0 1 0,0.15875 l -6.701896,2.582334 a 0.08466667,0.08466667 0 0 0 -0.05027,0.105833 l 0.814916,2.505604 a 0.08466667,0.08466667 0 0 0 0.113771,0.05292 l 9.419167,-3.934354 a 0.08466667,0.08466667 0 0 0 0.05292,-0.07673 l 0.0026,-2.624667 a 0.08466667,0.08466667 0 0 0 -0.05292,-0.07673 l -9.419166,-3.937 a 0.08466667,0.08466667 0 0 0 -0.113771,0.05292 l -0.817562,2.505604"
         id="path5"
         style="fill:none;stroke-width:0.529167;stroke-linecap:butt" /><path
         fill="#3465a4"
         d="M 74.096352,97.886454 81.50204,76.756829 a 0.08466667,0.08466667 0 0 1 0.08202,-0.05556 h 3.180291 a 0.08466667,0.08466667 0 0 1 0.07937,0.113771 l -7.368645,21.129625 a 0.08466667,0.08466667 0 0 1 -0.07937,0.05556 h -3.21998 a 0.08466667,0.08466667 0 0 1 -0.07937,-0.113771 z"
         id="path9"
         style="stroke-width:0.264583" /><path
         fill="#333333"
         d="m 66.727707,87.512142 6.715125,2.590271 a 0.079375,0.079375 0 0 1 0.04763,0.0979 l -0.822854,2.513542 a 0.079375,0.079375 0 0 1 -0.105834,0.04763 l -9.419166,-3.931708 a 0.079375,0.079375 0 0 1 -0.04763,-0.07408 v -2.632604 a 0.079375,0.079375 0 0 1 0.04763,-0.07408 l 9.421812,-3.934354 a 0.079375,0.079375 0 0 1 0.105833,0.04762 l 0.822855,2.516187 a 0.079375,0.079375 0 0 1 -0.04763,0.0979 l -6.717771,2.587625 a 0.079375,0.079375 0 0 0 0,0.148167 z"
         id="path12"
         style="stroke-width:0.264583" /><path
         fill="#333333"
         d="m 85.444332,84.673163 0.817562,-2.505604 a 0.08466667,0.08466667 0 0 1 0.113771,-0.05292 l 9.419166,3.937 a 0.08466667,0.08466667 0 0 1 0.05292,0.07673 l -0.0026,2.624667 a 0.08466667,0.08466667 0 0 1 -0.05292,0.07673 L 86.373064,92.76412 A 0.08466667,0.08466667 0 0 1 86.259293,92.7112 l -0.814961,-2.5056 a 0.08466667,0.08466667 0 0 1 0.05027,-0.105833 l 6.701896,-2.582334 a 0.08466667,0.08466667 0 0 0 0,-0.15875 l -6.701896,-2.579687 a 0.08466667,0.08466667 0 0 1 -0.05027,-0.105833 z"
         id="path13"
         style="stroke-width:0.264583" /></g></g></svg>
