<?xml version="1.0" encoding="UTF-8"?>
<svg width="1200pt" height="1200pt" version="1.1" viewBox="0 0 1200 1200" xmlns="http://www.w3.org/2000/svg">
 <path d="m372.94 480.94v-47.062c-52.172 11.391-93.562 56.766-105.05 114.61h40.5c9.8906-32.672 34.125-58.172 64.547-67.547z"/>
 <path d="m303.56 586.18c0-0.89062 0.09375-1.7344 0.14062-2.625 0-0.84375-0.14062-1.6875-0.14062-2.5781 0-2.5312 0.1875-5.0625 0.375-7.5938h-38.953c-0.09375 2.5312-0.32812 5.0625-0.32812 7.5938 0 3.9844 0.28125 7.875 0.5625 11.812h38.719c-0.1875-2.1562-0.375-4.3594-0.375-6.6094z"/>
 <path d="m312.71 625.13c-1.2188-2.4375-2.3438-4.875-3.3281-7.4531h-40.5c12.469 55.219 52.266 98.438 102.42 110.11v-47.156c-25.969-8.625-47.203-29.016-58.594-55.5z"/>
 <path d="m396.19 684.89v45.891c0.84375 0 1.6406 0.14062 2.4844 0.14062 3.9844 0 7.875-0.28125 11.812-0.65625v-46.125c-3.8906 0.51562-7.7812 0.89062-11.812 0.89062-0.84375 0-1.6875-0.09375-2.4844-0.14062z"/>
 <path d="m412.08 478.08v-46.266c-4.4062-0.51562-8.9062-0.75-13.453-0.75-0.28125 0-0.5625 0.046875-0.84375 0.046875v45.891c0.28125 0 0.5625-0.046875 0.84375-0.046875 4.5938 0 9.0469 0.42188 13.453 1.125z"/>
 <path d="m768.42 1078.4v49.312c20.484 4.9219 74.484 14.859 130.4 0.1875v-56.062c-16.312 6.9844-34.078 10.734-52.5 10.734-2.5781-0.046875-77.906-4.1719-77.906-4.1719z"/>
 <path d="m447.84 586.18c0 32.719-17.719 60.891-42.984 73.359 25.172-2.5781 47.391-20.438 57.75-46.312-0.42188-0.46875-0.89062-0.9375-1.2188-1.5469-21.375-35.062 0.75-58.453 1.6875-59.438 0.1875-0.1875 0.46875-0.23438 0.65625-0.42188-10.5-29.812-36-49.969-65.062-49.969-7.7812 0-15.234 1.5-22.219 4.125 39.422 0.46875 71.391 36.234 71.391 80.203z"/>
 <path d="m211.6 1076.8c20.531 4.9219 74.438 14.859 130.4 0.1875v-22.312l-130.4-7.3125z"/>
 <path d="m435.32 676.87v48.234c45.75-14.578 81.422-55.688 93.094-107.44h-40.828c-9.2812 27-28.547 48.234-52.266 59.203z"/>
 <path d="m846.1 848.53v18.562c0 29.719-11.672 57.094-32.812 77.062-19.688 18.609-42.75 29.203-78.797 28.5l-513.94-28.734c-60.75-3.375-110.2-55.688-110.2-116.58v-523.36c0-60.891 49.453-113.11 110.25-116.39l513.89-27.75c29.531-1.6406 57.562 8.5312 78.75 28.594s32.812 47.438 32.812 77.156v45.188c16.688 0.60938 37.312 1.125 59.531 1.125 17.109 0 33.188-0.32812 48.281-0.9375l0.09375-138.42c0-30.469-11.906-58.5-33.516-78.984-11.109-10.5-40.875-27.844-80.625-29.156l-664.13 35.859c-63.656 3.4219-115.5 58.078-115.5 121.87v676.13c0 63.75 51.797 118.55 115.5 122.16l664.13 37.078c30.281 1.6875 59.016-8.5781 80.625-29.016s33.516-48.422 33.516-78.891v-100.88c-15.188 0.60938-31.266 0.9375-48.281 0.9375-22.172 0-42.797-0.46875-59.578-1.125z"/>
 <path d="m422.95 586.18c0-30.516-21.188-55.312-47.25-55.312-25.547 0-46.266 23.906-47.109 53.578 0.375 9.4688 2.1562 18.516 5.2031 26.859 7.875 17.906 23.578 30.328 41.906 30.328 26.062-0.046875 47.25-24.891 47.25-55.453z"/>
 <path d="m978.74 822.56v-97.688c-21.891 1.4531-46.406 2.2031-73.125 2.2031-37.219 0-70.312-1.4531-87.891-2.3906v97.688c16.828 0.9375 50.156 2.4375 87.891 2.4375 26.812 0 51.375-0.79688 73.125-2.25z"/>
 <path d="m978.74 334.64c-21.891 1.4531-46.406 2.2031-73.125 2.2031-37.219 0-70.312-1.4531-87.891-2.3906v97.688c16.828 0.9375 50.156 2.4375 87.891 2.4375 26.812 0 51.375-0.75 73.125-2.25z"/>
 <path d="m953.95 701.26v-242.72c-15.188 0.5625-31.266 0.89062-48.281 0.89062-22.125 0-42.75-0.51562-59.531-1.125v242.72c16.688 0.60937 37.312 1.125 59.531 1.125 17.062 0.046874 33.141-0.32813 48.281-0.89063z"/>
 <path d="m946.5 84.938c20.906 24.094 32.344 54.75 32.344 87.656v137.06c3.7969-0.28125 7.6875-0.51562 11.344-0.79688 3.4219-0.375 6.8906 0.89062 9.4688 3.2344s4.0312 5.6719 4.0312 9.1875v122.63c0 6.4688-4.9688 11.859-11.391 12.375-4.3125 0.375-8.8594 0.65625-13.406 0.9375v242.63c3.7969-0.23437 7.6875-0.46875 11.344-0.79687 3.4219-0.42188 6.8906 0.89062 9.4688 3.2344s4.0312 5.6719 4.0312 9.1875v122.63c0 6.4688-4.9688 11.859-11.391 12.375-4.3125 0.375-8.8594 0.65625-13.406 0.9375v102.19c0 28.734-8.7188 55.688-24.844 78.094 142.45-48.469 185.81-86.062 185.81-151.6l-0.14062-669c0.046875-75.328-87.844-98.578-193.26-122.16z"/>
 <path d="m1031.6 1045.1v-20.156c-19.781 8.4375-41.625 16.688-65.906 25.031 18.047 1.4062 40.641 0.9375 65.906-4.875z"/>
 <path d="m436.97 437.39v48.375c24.281 11.672 43.406 34.172 51.984 62.719h40.453c-10.547-53.109-46.266-95.672-92.438-111.09z"/>
 <path d="m796.82 312.14c2.5312-2.3438 5.9062-3.4219 9.3281-3.3281 0.1875 0 5.7188 0.375 15 0.89062v-44.062c0-22.781-8.9062-43.781-25.078-59.109-16.172-15.281-37.594-23.016-60.281-21.797l-513.89 27.75c-47.812 2.5781-86.719 43.641-86.719 91.547v523.36c0 47.906 38.906 89.062 86.719 91.734l513.94 28.734c22.688 1.125 44.156-6.5156 60.328-21.75 16.125-15.281 25.031-36.234 25.031-59.016v-19.641c-10.406-0.51562-16.594-0.9375-16.734-0.9375-6.5156-0.46875-11.578-5.8594-11.578-12.422v-122.63c0-3.4688 1.4062-6.75 3.9375-9.0938s5.9062-3.4688 9.3281-3.3281c0.1875 0 5.7188 0.375 15 0.89062l0.046875-242.72c-10.406-0.51563-16.594-0.9375-16.734-0.9375-6.5156-0.46875-11.578-5.9062-11.578-12.422v-122.63c0-3.4688 1.4062-6.75 3.9375-9.0938zm-382.26 503.86c-120.32 0-218.21-105.42-218.21-235.03 0-129.56 97.875-234.98 218.21-234.98s218.21 105.42 218.21 234.98c0.046875 129.61-97.828 235.03-218.21 235.03z"/>
 <path d="m479.53 592.78h52.594c0.28125-3.8906 0.5625-7.8281 0.5625-11.812 0-2.5312-0.23438-5.0625-0.32812-7.5938h-53.672c-1.6875 3.8438-2.9531 10.406 0.84375 19.406z"/>
 <path d="m414.56 370.87c-106.59 0-193.31 94.266-193.31 210.1 0 115.88 86.719 210.14 193.31 210.14s193.31-94.266 193.31-210.14c0.046875-115.83-86.719-210.1-193.31-210.1zm-15.938 384.94c-87.609 0-158.9-78.422-158.9-174.84 0-96.375 71.25-174.79 158.9-174.79 87.609 0 158.9 78.422 158.9 174.79 0 96.422-71.25 174.84-158.9 174.84z"/>
</svg>
