<?xml version="1.0" encoding="UTF-8" standalone="no"?>
<!-- Generator: Adobe Illustrator 13.0.0, SVG Export Plug-In . SVG Version: 6.00 Build 14948)  -->

<svg
   version="1.1"
   id="Layer_1"
   x="0px"
   y="0px"
   width="600"
   height="202.05215"
   viewBox="0 0 600.00003 202.05216"
   enable-background="new 0 0 142.484 47.981"
   xml:space="preserve"
   xmlns="http://www.w3.org/2000/svg"
   xmlns:svg="http://www.w3.org/2000/svg"><defs
   id="defs31" />
<g
   id="g24"
   transform="scale(4.2109991)">
	<g
   id="g10">
		<g
   id="g4">
			<path
   fill="#1e2272"
   d="M 0.008,9.337 V 27.654 H 5.155 V 9.337 Z"
   id="path2" />
		</g>
		<g
   id="g8">
			<path
   fill="#1e2272"
   d="m 12.819,18.566 h -1.582 l 5.28,-9.229 h -3.921 c -10e-4,0.004 -5.348,9.229 -5.348,9.229 l 5.805,9.088 h 5.668 z"
   id="path6" />
		</g>
	</g>
	<g
   id="g14">
		<path
   fill="#1e2272"
   d="m 119.186,9.329 c 0,0 0,9.203 0,11.722 -1.46,-2.205 -7.725,-11.706 -7.725,-11.706 h -4.266 v 18.31 h 4.591 c 0,0 0,-9.274 0,-11.775 1.461,2.178 7.886,11.775 7.886,11.775 h 4.104 V 9.329 Z"
   id="path12" />
	</g>
	<path
   fill="#1e2272"
   d="M 71.942,9.329 H 67.435 V 27.654 H 78.359 V 24.568 H 71.942 Z"
   id="path16" />
	<path
   fill="#1e2272"
   d="m 30.418,9.345 -8.186,18.31 h 3.635 l 2.004,-4.674 6.315,-0.007 1.877,4.681 h 5.239 L 33.271,9.345 Z m 2.658,10.983 h -4.089 l 2.116,-4.874 z"
   id="path18" />
	<path
   fill="#1e2272"
   d="m 90.766,9.345 -8.186,18.31 h 3.635 l 2.002,-4.674 6.314,-0.007 1.879,4.681 h 5.246 L 93.621,9.345 Z m 2.655,10.983 h -4.084 l 2.118,-4.874 z"
   id="path20" />
	<path
   fill="#1e2272"
   d="m 47.549,9.252 v 18.402 h 4.509 c 0,0 0,-5.627 0,-6.478 0.374,0 2.159,0 2.164,0 0.191,0.013 1.646,0.069 3.117,-0.417 1.493,-0.498 3.857,-2.438 3.857,-5.536 0,-1.572 -0.391,-2.854 -1.17,-3.812 -1.194,-1.471 -3.18,-2.16 -6.244,-2.16 h -6.233 z m 5.782,3.018 c 2.281,0 3.3,0.881 3.3,2.844 0,1.095 -0.326,1.965 -0.938,2.516 -0.457,0.413 -1.069,0.536 -2.625,0.536 -0.004,0 -0.651,0 -1.01,0 0,-0.793 0,-5.1 0,-5.896 0.363,0 1.273,0 1.273,0 z"
   id="path22" />
</g>
<path
   fill-rule="evenodd"
   clip-rule="evenodd"
   fill="#1e2272"
   d="m 552.20095,0 h -13.54679 c 31.9657,18.781056 51.71528,41.027765 51.71528,64.849387 0,70.239463 -149.17043,122.001063 -331.15297,122.001063 C 154.08467,186.85045 60.39415,168.63788 0,140.24733 v 14.79745 c 62.495438,28.75691 155.45745,47.00738 259.20805,47.00738 C 455.73117,202.05216 600,142.13385 600,68.302406 600,43.348025 582.55804,19.989613 552.20095,0 Z"
   id="path26"
   style="stroke-width:4.211" />
<g
   id="g55"
   transform="scale(4.2109991)">
	<g
   id="g41">
		<g
   id="g35">
			<path
   fill="#1e2272"
   d="M 0.008,9.337 V 27.654 H 5.155 V 9.337 Z"
   id="path33" />
		</g>
		<g
   id="g39">
			<path
   fill="#1e2272"
   d="m 12.819,18.566 h -1.582 l 5.28,-9.229 h -3.921 c -10e-4,0.004 -5.348,9.229 -5.348,9.229 l 5.805,9.088 h 5.668 z"
   id="path37" />
		</g>
	</g>
	<g
   id="g45">
		<path
   fill="#1e2272"
   d="m 119.186,9.329 c 0,0 0,9.203 0,11.722 -1.46,-2.205 -7.725,-11.706 -7.725,-11.706 h -4.266 v 18.31 h 4.591 c 0,0 0,-9.274 0,-11.775 1.461,2.178 7.886,11.775 7.886,11.775 h 4.104 V 9.329 Z"
   id="path43" />
	</g>
	<path
   fill="#1e2272"
   d="M 71.942,9.329 H 67.435 V 27.654 H 78.359 V 24.568 H 71.942 Z"
   id="path47" />
	<path
   fill="#1e2272"
   d="m 30.418,9.345 -8.186,18.31 h 3.635 l 2.004,-4.674 6.315,-0.007 1.877,4.681 h 5.239 L 33.271,9.345 Z m 2.658,10.983 h -4.089 l 2.116,-4.874 z"
   id="path49" />
	<path
   fill="#1e2272"
   d="m 90.766,9.345 -8.186,18.31 h 3.635 l 2.002,-4.674 6.314,-0.007 1.879,4.681 h 5.246 L 93.621,9.345 Z m 2.655,10.983 h -4.084 l 2.118,-4.874 z"
   id="path51" />
	<path
   fill="#1e2272"
   d="m 47.549,9.252 v 18.402 h 4.509 c 0,0 0,-5.627 0,-6.478 0.374,0 2.159,0 2.164,0 0.191,0.013 1.646,0.069 3.117,-0.417 1.493,-0.498 3.857,-2.438 3.857,-5.536 0,-1.572 -0.391,-2.854 -1.17,-3.812 -1.194,-1.471 -3.18,-2.16 -6.244,-2.16 h -6.233 z m 5.782,3.018 c 2.281,0 3.3,0.881 3.3,2.844 0,1.095 -0.326,1.965 -0.938,2.516 -0.457,0.413 -1.069,0.536 -2.625,0.536 -0.004,0 -0.651,0 -1.01,0 0,-0.793 0,-5.1 0,-5.896 0.363,0 1.273,0 1.273,0 z"
   id="path53" />
</g><path
   fill-rule="evenodd"
   clip-rule="evenodd"
   fill="#1e2272"
   d="m 552.20095,0 h -13.54679 c 31.9657,18.781056 51.71528,41.027765 51.71528,64.849387 0,70.239463 -149.17043,122.001063 -331.15297,122.001063 C 154.08467,186.85045 60.39415,168.63788 0,140.24733 v 14.79745 c 62.495438,28.75691 155.45745,47.00738 259.20805,47.00738 C 455.73117,202.05216 600,142.13385 600,68.302406 600,43.348025 582.55804,19.989613 552.20095,0 Z"
   id="path57"
   style="stroke-width:4.211" /></svg>
