<?xml version="1.0" encoding="UTF-8" standalone="no"?>
<!-- Created with Inkscape (http://www.inkscape.org/) -->

<svg
   width="135.15651mm"
   height="146.30948mm"
   viewBox="0 0 135.15651 146.30948"
   version="1.1"
   id="svg198"
   xml:space="preserve"
   xmlns:inkscape="http://www.inkscape.org/namespaces/inkscape"
   xmlns:sodipodi="http://sodipodi.sourceforge.net/DTD/sodipodi-0.dtd"
   xmlns="http://www.w3.org/2000/svg"
   xmlns:svg="http://www.w3.org/2000/svg"><sodipodi:namedview
     id="namedview200"
     pagecolor="#ffffff"
     bordercolor="#666666"
     borderopacity="1.0"
     inkscape:showpageshadow="2"
     inkscape:pageopacity="0.0"
     inkscape:pagecheckerboard="0"
     inkscape:deskcolor="#d1d1d1"
     inkscape:document-units="mm"
     showgrid="false" /><defs
     id="defs195"><style
       id="style265">.cls-1{fill:#fff;fill-rule:evenodd;}</style></defs><g
     inkscape:label="Layer 1"
     inkscape:groupmode="layer"
     id="layer1"
     transform="translate(-29.759675,-79.313802)"><g
       id="Layer_1"
       data-name="Layer 1"
       transform="matrix(2.1656228,0,0,2.1656228,29.759677,79.313804)"
       style="fill:#000000"><path
         class="cls-1"
         d="M 57.31,8.76 C 26.09,12.63 -2.26,35.12 29.38,42.41 9.29,35.71 22.18,22.55 52.62,16.81 Z"
         id="path269"
         style="fill:#000000" /><path
         class="cls-1"
         d="M 62.41,0 C 48.33,2.07 21.05,12.18 15.8,25.65 A 24.71,24.71 0 0 1 18.85,22.4 C 24.09,17.69 32,13.74 40.17,11.05 A 85.75,85.75 0 0 1 58.24,7.17 Z"
         id="path271"
         style="fill:#000000" /><path
         class="cls-1"
         d="M 5.34,58.88 C 36.65,55.49 65.6,33.46 34.16,25.67 c 19.91,7 6.67,20 -23.91,25.24 z"
         id="path273"
         style="fill:#000000" /><path
         class="cls-1"
         d="M 0,67.56 C 14.14,65.7 41.68,56 47.29,42.65 a 25,25 0 0 1 -3.14,3.2 c -5.36,4.62 -13.35,8.45 -21.61,11 a 87.18,87.18 0 0 1 -18.17,3.6 z"
         id="path275"
         style="fill:#000000" /></g></g></svg>
