<?xml version="1.0" encoding="UTF-8"?><svg id="Layer_1" xmlns="http://www.w3.org/2000/svg" xmlns:xlink="http://www.w3.org/1999/xlink" viewBox="0 0 325 281.43"><defs><style>.cls-1{fill:none;}.cls-2{clip-path:url(#clippath);}.cls-3,.cls-4{fill:#401715;}.cls-5{fill:#3a4e6f;}.cls-5,.cls-6,.cls-7,.cls-4,.cls-8,.cls-9,.cls-10,.cls-11,.cls-12,.cls-13,.cls-14,.cls-15,.cls-16{fill-rule:evenodd;}.cls-6{fill:#5a7596;}.cls-7{fill:#780500;}.cls-8{fill:#445c82;}.cls-9{fill:#1e2d45;}.cls-10{fill:#cb3805;}.cls-11{fill:#97b0c4;}.cls-12{fill:#310401;}.cls-13{fill:#ed6437;}.cls-14{fill:#f0bc95;}.cls-15{fill:#fee7d5;}.cls-16{fill:#f68857;}</style><clipPath id="clippath"><rect class="cls-1" width="325" height="281.43"/></clipPath></defs><g class="cls-2"><g><path class="cls-12" d="M227.4,182.86l-26.81,29.5-34.61,.14-25.1,26.37,72.37,30.81,81.8-58.17,29.94-63.68-17.06-36.56-43.73-12.45-30.6,23.55-6.21,60.46h0Z"/><path class="cls-10" d="M230.86,184.18l-28.2,32.12-36.71-1.37-20.97,22.33,66.95,27.24,80.37-55.28,28.86-61.39-15.75-33.74-40.72-10.44-27.32,21.9-6.5,58.61h0Z"/><path class="cls-7" d="M230.86,184.18l-28.2,32.12-36.71-1.37-9.31,9.92,40.5,16.17,58.69-41.93,4.28-60.13,30.13-28.75-25.56-6.55-27.33,21.9-6.5,58.61Z"/><path class="cls-13" d="M212.04,264.81l80.26-55.58,28.86-61.39-15.75-33.74-1.15,32.71-22.86,59.15-71.91,51.95-59.99-25.47-4.54,4.84,67.07,27.54Z"/><path class="cls-4" d="M264.69,103.66l-19.41,15.56,14.84,19.74,42.62,11.73,15.79-8.46-13.13-28.13-40.72-10.44h0Z"/><path class="cls-4" d="M233.91,156.7l2.09-18.91,16.68,21.97,42.53,10.24,17.32-3.78-12.36,26.27-13.46-.71-39.75-16.36-13.05-18.72h0Z"/><path class="cls-4" d="M230.86,184.18l1.44-12.86,13.19,24.07,29.59,15.15,17.22-1.3-20.75,14.37-12.27-1.65-22.29-18.35-9.05-16.09,2.92-3.33h0Z"/><path class="cls-4" d="M239.69,245.65l19.68-13.61-13.9-.09-14.47-15.1-12.3-18.81-7.22,8.09,6.87,19.75,13.38,15.96,7.96,3.81h0Z"/><path class="cls-4" d="M212.04,264.81l13.57-8.66-6.7-5.03-12.28-16.86-3.97-17.96-6.64-.24-.23,24.41,6.57,14.43,5.55,8.23,4.12,1.69h0Z"/><path class="cls-4" d="M187.59,215.74l-4.76,17.85-.21,12.92,4.44,8.05-13.63-5.7-.6-6.5,1.27-10.52,4.82-16.43,8.67,.34Z"/><path class="cls-12" d="M135.8,277.68l12.18-8.24,3.82-5.36-5.4-17.82L41.31,148.24l-9.88-23.45-15.43-5.19-9.12,9.56-1.01,34.47,14.34,29.46-6.66,6.13,.98,13.03,2.73,7.08,.42,1.08,1.94,1.18,10.21,6.28,10.4-8.55-.59-8.62,61.03,43.11-4.56,2.64,.82,11.2,3.36,6.93,11.25,6.88,10.35-6.97-.4-6.86,14.3,10.09h0Z"/><path class="cls-14" d="M16.02,200.38l8.52-5.8,9.8,6.35,2.76,7.08-17.48,10.77-2.76-7.08-.85-11.3h0Z"/><path class="cls-10" d="M24.54,194.58l9.8,6.35,2.76,7.08-4.75,2.93-5.08-9.27-2.73-7.08Z"/><path class="cls-15" d="M18.75,207.47l8.53-5.8,9.82,6.34,.69,10.24-8.14,6.7-10.02-6.16-.87-11.3h0Z"/><path class="cls-7" d="M24.34,210.82l3.4-2.32,3.93,2.53,.27,4.07-3.24,2.68-4-2.46-.35-4.51h0Z"/><path class="cls-14" d="M100.24,257.4l7.72-4.44,8.51,5.57,2.24,5.94-15.77,8.18-2.24-5.91-.47-9.34h0Z"/><path class="cls-10" d="M107.95,252.96l8.51,5.57,2.24,5.94-4.28,2.21-4.25-7.79-2.23-5.93Z"/><path class="cls-15" d="M102.48,263.34l7.7-4.45,8.53,5.58,.34,8.44-7.4,5.18-8.71-5.44-.47-9.31Z"/><path class="cls-7" d="M107.34,266.29l3.08-1.78,3.41,2.24,.13,3.38-2.96,2.06-3.47-2.18-.18-3.72h0Z"/><path class="cls-9" d="M29.65,126.69l-12.99-4.37-.78,36.41,17.42,35.42,105.5,75.25,9.32-6-4.98-15.76L39.31,149.62l-9.66-22.93Z"/><path class="cls-5" d="M15.9,158.73l.78-36.41-7.46,7.81-.95,32.93,7.63-4.33Z"/><path class="cls-8" d="M33.32,194.15l-17.42-35.42-7.63,4.32,18.74,36.03,6.31-4.94Z"/><path class="cls-6" d="M33.32,194.15l105.5,75.25-3.15,4.53L27,199.09l6.31-4.94Z"/><path class="cls-11" d="M138.81,269.4l9.32-6-2.33,3.94-10.13,6.6,3.15-4.53h0Z"/><path class="cls-12" d="M85.25,161.77l28.95-9.21,14.96-19.31-2.5-16.19-5.86-14.01-58.1,12.81-25.55,8.71-1.5-2.45-14.34-3.57-1.66,10.51,12.77,8.25,6.5,12.71,9.44,8.14,36.91,3.6h0Z"/><path class="cls-4" d="M41.31,148.23l-6.63-12.97-11.83-7.63,.87-5.46,10.05,2.51,5.63,9.19,.07-7.01,23.93-8.15,57.44-8.73,2.98,7.82,2.24,14.64-13.48,17.43-27.52,7.87-36.14-2.15-7.63-7.34h0Z"/><path class="cls-7" d="M48.94,155.58l-7.63-7.34,24.84-17.08,58.48-8.05,1.43,9.33-13.48,17.43-27.52,7.87-36.14-2.16Z"/><path class="cls-12" d="M112.58,149.86l-23.02,3.21-14.28,14.77-5.38-8.11-4.77-11.51-22.13-5.45,.52,19.69,27.84,40.12,13.15-4.46,.74,1.3,25.83,9.71,9.17,4.36-14.67,4.26,2.12,14.61,32.45,20.29,16.81-12.74,31.78,.8,12.96-22.9,27.1-33.5-9.27-81.83,22.34-36.67-2.24-29.37-7.67-15.73-21.09-5.49-10.86,2.8,5.34,16.15-40.3,45.79-10.58-3.39-31.75,33.99,3.38,21.87-13.48,17.43h-.02Z"/><path class="cls-10" d="M128.3,132.94l-3.73-25.97,30.62-27.08,10.76,3.46,43.09-48.96-5.5-16.67,8.02-.69,18.4,5.08,7.16,14.67,2.14,27.98-22.79,37.16,9.24,81.51-26.49,32.74-12.19,21.57-27.5-.69,8.69-9.35-28.25,21.39-29.55-18.49-1.55-10.73,15-4.34,20.53,14.21,.68,10.64,2.51-11.43-21.5-15.01,14.56-27.64,24.45-9.21-26.45,6.7-15.05,28.06-11.35-5.42-24.95-9.36-5.67-10.11,1.23,8.65-10.34,3.52-26.07-37.59-.4-14.96,16.95,4.16,4.3,10.39,7.58,11.42,16.12-16.68,22.11-3.1,13.6,11.59,5.76,15.49-2.38-16.23-14.68-12.38,12.91-18.3-.02,.02Z"/><path class="cls-16" d="M237.41,67.75l-20.94,34.16,9.24,81.51-26.49,32.74-12.22,6.65-7.78-28.29,26.24-12.45,5.08-37.25-10.89-38.81,37.75-38.26h0Z"/><path class="cls-7" d="M165.09,177.09l-26.45,6.7-15.05,28.06-8.76-23.37,11.86-24.14,5.76,15.49-2.38-16.23-10.38-8.74,12.74-21.36-1.25-11.29,2.28-16.91,19.99-9.67,18.65,3.46,4.8,18.83,20.45,18.02-1.35,36.32-30.9,4.81h0Z"/><path class="cls-4" d="M117.92,209.14l-5.63-2.76-24.95-9.36-5.66-10.13,1.23,8.65-10.38,3.57-26.08-37.58-.35-15.01,16.93,4.18,4.31,10.47,7.58,11.42,16.12-16.69,19.72-2.77-9.28,23.24,2.6,10.58,13.84,22.19h0Zm51.9,28.16l-10.31-.25,8.67-9.36-28.23,21.38-29.49-18.43-1.57-10.73,15.01-4.35,20.59,14.14,.66,10.65,2.51-11.43-21.5-14.99,14.51-27.69,29.54,1.78,9.28,33.79-9.67,15.49h0Z"/><path class="cls-4" d="M185.72,60.64l23.32-26.24-5.5-16.67,8.12-.79,18.31,5.17,7.16,14.67,1.08,14-35.54,14.21-16.93-4.35h0Z"/><path class="cls-12" d="M16.43,149.14l-.73,10.68-.03,.53-.99,.91-5.41,5.06-7.98-11.49,.87-3.5-2.16-8.78,2.37-2.43-.79-6.66,7.69-4.96,8.38,10.24-1.21,10.38Z"/><path class="cls-4" d="M4.98,135.05l3.7-2.4,5.9,7.17-.78,6.87-5.77-3.08,5.4,6.93-.4,6.25-4.08-2.62,3.24,6-2.18,2.04-5.2-7.45,.7-2.95-1.99-8.03,2.26-2.33-.78-6.38v-.02Z"/><path class="cls-12" d="M20.8,193.91l4.19,7.09,9.57,3.29-7.56-5.2-2.79-5.37-3.41,.2h0Z"/><path class="cls-12" d="M104.41,252.4l-3.17,.69,14.6,7.18-11.43-7.87Z"/><path class="cls-12" d="M81.59,32.61l11.62,10.15,18.38-12.11,26.05-26.11,11.18-4.55,5.59,21.16,7.7,2.81,9.75,10.63-2.81,13.61,15.1,7.5-6.91,2.59,8.5,5.85-22.09,26.91-15.11,12.61-21.72,11.52-33.36,9.88-2.06-10.11-5.08,5.33-1.02-16.92-13.54-2.73-6.03-13.09,1.53-9.29,5.79-37.19c3.08-3.03,4.98-4.92,8.59-8.48"/><path class="cls-12" d="M124.91,27.25c4.92-43.28,42.85,25.16,40.16,22.2l-.76,.82-1.05-.38c-11.84-4.23-38.81-9.66-38.38-22.66"/><path class="cls-12" d="M83.33,54.69c-27.97,12.02,10.67,56.88,4.66,45.61l1.05-.34,.08-1.12c.76-12.54,6.31-39.45-5.81-44.14h0Z"/><path class="cls-10" d="M114.93,32.26l8.22-3.49,17.11,8.46,.95-5.44,3.02,6.15,6.15-2.07-2.98,4.93,29.43,14.68-5.86,2.2,10.57,7.27-19.09,24.1-17.57,13.59-19.39,10.8-29.69,8.08-2.55-12.56-4.31,4.52-1.99-32.8-5.7,.8,4.31-4.83-4.47-5.22,5.4,1.27-2.16-16.73,2.42,1.06,5.53-9.8,22.67-14.97h-.02Z"/><path class="cls-7" d="M118.06,91.7l-18.35,2.16-5.34-10.45,7.62,24.28,16.7,7.6,6.79-1.85,22.26-11.31,14.7-13.09-.5-20.75-19.77-14.48,2.57,15.57-4.6,7.74-13.45,3.65-8.65,10.92v.02Z"/><path class="cls-13" d="M137,35.31l3.25,1.91,.95-5.44,3.02,6.15,6.15-2.07-2.98,4.93,29.43,14.68-5.86,2.2,10.57,7.27-8.73,11.04,3.31-11.06-39.27-29.4,.14-.21h0Z"/><path class="cls-15" d="M122.8,80.49l12.02,.79,5.95-4.17,8.23,4.8v17.12l-1.57,3.28-14.47,7.31-18.18-1.12-5.93-7.69,1.99-6.22,4.37-9.08,7.6-5.01h0Z"/><path class="cls-14" d="M137.67,100.63l1.45-15.06,9.87-3.67v17.12l-1.58,3.28-14.47,7.31-18.18-1.12-3.48-5.13,3.75,.21,2.18,.77,9.06,3.29,11.38-7h0Z"/><path class="cls-14" d="M113.97,67.35l-7.5-10.04,6.82-6.32,6.18,10.04-5.5,6.32h0Z"/><path class="cls-14" d="M122.48,52.7l-6.23-1.24,5,8.28,2.99-2.4-1.76-4.64Z"/><path class="cls-15" d="M128.7,35.38l-5.57-6.61,16.62-20.87,7.76-3.16,3.85,19.78,8.34,2.06,2.87,13.77,1.39-9.17,4.73,4.57-2.52,11.87-13.48-4.16,2.5-9.44-8.54-4.45-4.18-13.21-5.63,19.17-8.15-.14h.02Z"/><path class="cls-14" d="M142.5,16.34l-5.61,19.28-8.12-.17,5.99-2.61,7.75-16.5h0Zm23.7,31.29l-13.48-4.19,2.5-9.44-8.56-4.44-4.17-13.23,5.86,12.2,7.76,2.07,6.51,9.79,3.57,7.24h0Z"/><path class="cls-7" d="M123.13,28.77l-8.21,3.49,24.84-24.38-16.63,20.87h0Z"/><path class="cls-12" d="M114.22,89.35l-8.15,2.35-2.34-.76,.69-6.59,4.89-1.69,5.79,3.46-.88,3.23Z"/><path class="cls-7" d="M106.56,84.74l4.02-1.18,3.45,2.78-.43,2.81-5.31,1.53-2.15-1.67,.42-4.26h0Z"/><path class="cls-12" d="M107.87,85.17l2.89-1,2.31,1.79-.57,2.9-2.73,1.07-2.36-1.76,.47-2.99h0Z"/><path class="cls-15" d="M108.25,84.18l1.5-.47,1.38,1.13-.32,1.64-1.56,.61-1.35-1.01,.36-1.9Z"/><path class="cls-15" d="M109.29,82.64l5.75,3.87,.33-2.71-5.6-3.91-8.02,2.84-1.1,7.8,3.08,.4,.64-6.12,4.92-2.19h0Z"/><path class="cls-12" d="M135.87,69.72l-7.53-.82-3.69,4.69,1.12,6.78,4.79-1.01,5.18-7.94,.14-1.71Z"/><path class="cls-15" d="M161.99,70.73l.46,18.31,10.36-13.06-3-12-6.75-1.84,3.58-2.44-24.46-5.9,19.8,16.92h0Z"/><path class="cls-13" d="M122.8,80.49l-3.53-4.42-2.37,1.58-2.38,1.56,.67,6.28,7.6-5.01h0Z"/><path class="cls-7" d="M129.13,69.73l-3.06,3.83,1.45,4.2,3.79,.35,3.3-4.93-.73-2.83-4.74-.62h0Z"/><path class="cls-12" d="M129.72,70.47l-2.02,2.52,.96,2.78,3.08,.27,2.02-2.34-.91-2.82-3.13-.4h0Z"/><path class="cls-15" d="M127.1,73.5l-.99,1.31,.61,1.67,1.75,.18,1.14-1.34-.52-1.61-1.99-.21Z"/><path class="cls-13" d="M99.3,56.16l13.11-22.24-9.93,6.56-9.93,6.54,6.74,9.14Z"/><path class="cls-14" d="M162.44,89.04l-.16-6.78,5.44-8.51-.92-7.53-3.75-4.07,6.75,1.84,2.99,12-10.36,13.06h0Z"/><path class="cls-15" d="M113.29,50.99l-6.82,6.32,6.51,8.71,2.58-3.71-2.27-11.33h0Z"/><path class="cls-15" d="M122.48,52.7l-6.23-1.24,5.49,5.77,.74-4.53Z"/><path class="cls-13" d="M85.98,68.97l.49,3.73-5.4-1.27,4.47,5.22-4.31,4.83,5.7-.8,1.98,32.8,4.31-4.52,2.55,12.56,13.6-3.7-11.49-1.3-11.67-47.6-.24,.05Z"/><path class="cls-14" d="M107.59,71.17l-4.89-11.57-8.9,2.68,5.54,10.4,8.26-1.51h0Z"/><path class="cls-14" d="M92.17,72.97l2.08-6,4.6,8.52-3.57,1.34-3.11-3.86Z"/><path class="cls-7" d="M86.73,57.03l5.53-9.8-10.17-10.18,4.64,19.98Z"/><path class="cls-15" d="M101.99,107.68l16.7,7.6-13.64,3.1-11.67-8.72,.3-4.37-3.66,2.32,4.18-24.77,7.79,24.83Z"/><path class="cls-14" d="M118.69,115.29l-6.19-2.81-7.66,1.26-8.36-5.68-2.79-2.75-.3,4.37,11.67,8.72,13.64-3.1h0Z"/><path class="cls-15" d="M93.79,62.29l8.9-2.68,4.23,10.03-4.5,.34-8.63-7.69h0Z"/><path class="cls-15" d="M92.17,72.97l2.08-6,2.19,7.66-4.28-1.66Z"/><path class="cls-15" d="M86.73,57.03l-1.56-4.48-3.08-15.51-5.96,5.87-5.72,35-1.39,8.48,11.56,8.05-8.99-2.33,2.35,6.14,11.93,2.34,1.44-14.01-9.66-1.4-.76-9.61,4.24-20.5,4.86,13.89,.75-11.94h-.02Z"/><path class="cls-14" d="M81.14,55.08l4.86,13.89,.77-11.94-1.76,4.2-3.86-6.15h0Zm4.74,45.53l1.5-13.97-9.66-1.4-.76-9.61,4.3-20.5-5.82,21.55-1.17,7.95,6.47,9.83,5.14,6.15h0Z"/><path class="cls-15" d="M124.77,74.16l1.01,6.22-2.8-.47-.84-6.95,4.59-6.62,9.83,.26-.68,3.11-7.53-.82-3.57,5.26h0Z"/><path class="cls-12" d="M115.56,89.98l4.53-4.01,1.53,.88-2.05,7.26,1.72,2.69,1.17,.2,7.55-2.56,6.59-7.88-.6-2.8,.94-.38,2.53,2.56-1.79,1.35-6.84,9.31-8.95,2.97-1.23,1.46-3.44,3.33-2.18-.77-.91,1.53-2.84-1.75,.31-1.18,3.9,.84,3.83-3.95,.29-1.15-1.82-2.64-7.48-.97-.21-1.76,5.45-2.58h0Z"/><path class="cls-14" d="M115.67,90.12l4.42-4.16,2.21-5.13-7.1,4.67-5.08,7.05,5.56-2.43h0Z"/><path class="cls-7" d="M110.41,230.6l-1.55-10.73,31.52,20.2-.43,9.03-29.55-18.49h0Z"/><path class="cls-12" d="M211.78,8.18l-.02-.29-9.66-4.04-7.54,10.45,6.6,5.53,9.72,.67,.35,3.62,10.8,6.26v.1l9.56,6.17,.21,1.27,1.9,.07,7.92,.25,.34-18.51-6.44-1.37-5.43-8.92-5.08,1.21-5.18-7.02-8.03,4.53h-.01Z"/><path class="cls-4" d="M204.3,17.65l4.84-.44-.63-7.06-5.21-2.19-4.17,5.74,5.15,3.97h0Zm14.61-9.68l-5.46,3.12,.99,11,6.93,4.03,2.57-8.1,1.2,10.52,6.09,3.93,1.77-8.37,1.64,10.59,3.66,.15,.19-12.29-5.13-1.08-4.87-8.11-4.89,1.18-4.69-6.54v-.02Z"/><path class="cls-3" d="M208.42,10.07l-8.15,4.33,3.31,3.68,2.49,7.34,4.95-1.46-.33-6.33-.3-6.53-1.97-1.02h0Z"/></g></g></svg>