<?xml version="1.0" encoding="UTF-8" standalone="no"?>
<!-- Created with Inkscape (http://www.inkscape.org/) -->

<svg
   width="170.80458mm"
   height="172.40269mm"
   viewBox="0 0 170.80458 172.40269"
   version="1.1"
   id="svg1"
   xml:space="preserve"
   inkscape:version="1.3.1 (9b9bdc1480, 2023-11-25, custom)"
   sodipodi:docname="Consul-LogoMark_onDark.svg"
   xmlns:inkscape="http://www.inkscape.org/namespaces/inkscape"
   xmlns:sodipodi="http://sodipodi.sourceforge.net/DTD/sodipodi-0.dtd"
   xmlns="http://www.w3.org/2000/svg"
   xmlns:svg="http://www.w3.org/2000/svg"><sodipodi:namedview
     id="namedview1"
     pagecolor="#ffffff"
     bordercolor="#000000"
     borderopacity="0.25"
     inkscape:showpageshadow="2"
     inkscape:pageopacity="0.0"
     inkscape:pagecheckerboard="0"
     inkscape:deskcolor="#d1d1d1"
     inkscape:document-units="mm"
     inkscape:zoom="0.78929574"
     inkscape:cx="248.32264"
     inkscape:cy="400.35691"
     inkscape:window-width="1854"
     inkscape:window-height="1131"
     inkscape:window-x="0"
     inkscape:window-y="0"
     inkscape:window-maximized="1"
     inkscape:current-layer="layer1" /><defs
     id="defs1"><style
       id="style1">.cls-1{fill:#e03875;stroke-width:0px;}</style></defs><g
     inkscape:label="Layer 1"
     inkscape:groupmode="layer"
     id="layer1"
     transform="translate(-39.066151,-42.56945)"><g
       id="g1"
       transform="matrix(3.0723996,0,0,3.0723996,39.076044,17.816174)"><path
         class="cls-1"
         d="m 28.08,64.17 c -4.57,0 -9.06,-1.11 -13.1,-3.24 C 10.94,58.8 7.48,55.72 4.9,51.95 2.32,48.18 0.7,43.84 0.18,39.31 -0.34,34.77 0.25,30.18 1.91,25.93 3.57,21.68 6.24,17.89 9.69,14.9 13.14,11.91 17.27,9.81 21.72,8.78 26.17,7.75 30.8,7.82 35.21,8.99 c 4.41,1.17 8.48,3.39 11.84,6.48 v 0 l -6.66,6.96 c -2.65,-2.39 -5.93,-3.96 -9.45,-4.52 -3.52,-0.56 -7.13,-0.09 -10.39,1.36 -3.26,1.45 -6.03,3.81 -7.97,6.8 -1.94,2.99 -2.98,6.48 -2.98,10.05 0,3.57 1.03,7.06 2.98,10.05 1.94,2.99 4.71,5.35 7.97,6.8 3.26,1.45 6.87,1.92 10.39,1.36 3.52,-0.56 6.81,-2.13 9.45,-4.52 l 6.66,6.96 c -5.17,4.76 -11.95,7.41 -18.98,7.4 v 0 z"
         id="path1" /><path
         class="cls-1"
         d="m 50.66,50.14 c -0.45,0 -0.9,-0.13 -1.28,-0.39 C 49,49.5 48.71,49.14 48.53,48.72 48.36,48.3 48.31,47.84 48.4,47.39 c 0.09,-0.45 0.31,-0.86 0.63,-1.18 0.32,-0.32 0.73,-0.54 1.18,-0.63 0.45,-0.09 0.91,-0.04 1.33,0.13 0.42,0.17 0.78,0.47 1.03,0.85 0.25,0.38 0.39,0.82 0.39,1.28 0,0.61 -0.24,1.19 -0.67,1.62 -0.43,0.43 -1.02,0.67 -1.62,0.67 v 0 z"
         id="path2" /><path
         class="cls-1"
         d="m 27.9,42.19 c -1.2,0 -2.38,-0.35 -3.38,-1.01 -1,-0.67 -1.79,-1.61 -2.25,-2.72 -0.46,-1.11 -0.59,-2.33 -0.36,-3.51 0.23,-1.18 0.81,-2.27 1.66,-3.12 0.85,-0.85 1.93,-1.43 3.11,-1.67 1.18,-0.24 2.4,-0.12 3.52,0.34 1.11,0.46 2.06,1.24 2.73,2.24 0.67,1 1.02,2.18 1.02,3.38 0,1.61 -0.64,3.15 -1.77,4.28 -1.13,1.14 -2.67,1.78 -4.28,1.79 z"
         id="path3" /><path
         class="cls-1"
         d="m 53.29,42.3 c -0.45,0 -0.9,-0.13 -1.28,-0.39 -0.38,-0.25 -0.67,-0.61 -0.85,-1.03 -0.17,-0.42 -0.22,-0.88 -0.13,-1.33 0.09,-0.45 0.31,-0.86 0.63,-1.18 0.32,-0.32 0.73,-0.54 1.18,-0.63 0.45,-0.09 0.91,-0.04 1.33,0.13 0.42,0.17 0.78,0.47 1.03,0.85 0.25,0.38 0.39,0.82 0.39,1.28 0,0.61 -0.24,1.19 -0.67,1.62 -0.43,0.43 -1.02,0.67 -1.62,0.67 z"
         id="path4" /><path
         class="cls-1"
         d="m 46.46,42.01 c -0.46,0 -0.9,-0.14 -1.28,-0.39 -0.38,-0.25 -0.67,-0.61 -0.85,-1.04 -0.17,-0.42 -0.22,-0.89 -0.13,-1.33 0.09,-0.45 0.31,-0.86 0.64,-1.18 0.32,-0.32 0.74,-0.54 1.18,-0.62 0.45,-0.09 0.91,-0.04 1.33,0.14 0.42,0.18 0.78,0.48 1.03,0.86 0.25,0.38 0.38,0.83 0.37,1.28 0,0.61 -0.25,1.18 -0.68,1.61 C 47.64,41.77 47.06,42 46.45,42 v 0 z"
         id="path5" /><path
         class="cls-1"
         d="m 53.29,34.55 c -0.45,0 -0.9,-0.14 -1.28,-0.39 -0.38,-0.25 -0.67,-0.61 -0.85,-1.03 -0.17,-0.42 -0.22,-0.88 -0.13,-1.33 0.09,-0.45 0.31,-0.86 0.63,-1.18 0.32,-0.32 0.73,-0.54 1.18,-0.63 0.45,-0.09 0.91,-0.04 1.33,0.13 0.42,0.17 0.78,0.47 1.03,0.85 0.25,0.38 0.39,0.82 0.39,1.28 0,0.61 -0.24,1.19 -0.67,1.62 -0.43,0.43 -1.02,0.67 -1.62,0.67 z"
         id="path6" /><path
         class="cls-1"
         d="m 46.46,34.81 c -0.45,0 -0.9,-0.13 -1.28,-0.39 -0.38,-0.25 -0.67,-0.61 -0.85,-1.03 -0.17,-0.42 -0.22,-0.88 -0.13,-1.33 0.09,-0.45 0.31,-0.86 0.63,-1.18 0.32,-0.32 0.73,-0.54 1.18,-0.63 0.45,-0.09 0.91,-0.04 1.33,0.13 0.42,0.17 0.78,0.47 1.03,0.85 0.25,0.38 0.39,0.82 0.39,1.28 0,0.61 -0.24,1.19 -0.67,1.63 -0.43,0.43 -1.02,0.67 -1.63,0.67 z"
         id="path7" /><path
         class="cls-1"
         d="m 50.79,26.82 c -0.45,0 -0.9,-0.13 -1.28,-0.38 -0.38,-0.25 -0.67,-0.61 -0.85,-1.03 -0.17,-0.42 -0.22,-0.88 -0.13,-1.33 0.09,-0.45 0.31,-0.86 0.63,-1.18 0.32,-0.32 0.73,-0.54 1.18,-0.63 0.45,-0.09 0.91,-0.04 1.33,0.13 0.42,0.17 0.78,0.47 1.03,0.85 0.25,0.38 0.39,0.82 0.39,1.28 0,0.61 -0.24,1.19 -0.67,1.62 -0.43,0.43 -1.01,0.67 -1.62,0.68 z"
         id="path8" /></g></g></svg>
