<?xml version="1.0" encoding="UTF-8" standalone="no"?>
<!-- Created with Inkscape (http://www.inkscape.org/) -->

<svg
   width="1024mm"
   height="660.11646mm"
   viewBox="0 0 1024 660.11646"
   version="1.1"
   id="svg1"
   xml:space="preserve"
   inkscape:version="1.3.1 (9b9bdc1480, 2023-11-25, custom)"
   sodipodi:docname="welcome.svg"
   xmlns:inkscape="http://www.inkscape.org/namespaces/inkscape"
   xmlns:sodipodi="http://sodipodi.sourceforge.net/DTD/sodipodi-0.dtd"
   xmlns="http://www.w3.org/2000/svg"
   xmlns:svg="http://www.w3.org/2000/svg"><sodipodi:namedview
     id="namedview1"
     pagecolor="#ffffff"
     bordercolor="#000000"
     borderopacity="0.25"
     inkscape:showpageshadow="2"
     inkscape:pageopacity="0.0"
     inkscape:pagecheckerboard="0"
     inkscape:deskcolor="#d1d1d1"
     inkscape:document-units="mm"
     inkscape:zoom="0.12872314"
     inkscape:cx="986.61356"
     inkscape:cy="1887.7724"
     inkscape:window-width="1230"
     inkscape:window-height="1131"
     inkscape:window-x="20"
     inkscape:window-y="20"
     inkscape:window-maximized="0"
     inkscape:current-layer="layer1" /><defs
     id="defs1" /><g
     inkscape:label="Layer 1"
     inkscape:groupmode="layer"
     id="layer1"
     transform="translate(-41.214375,-54.631183)"><rect
       style="fill:none;stroke:#000000;stroke-width:4.27554"
       id="rect1"
       width="1019.7245"
       height="655.84088"
       x="43.352146"
       y="56.768955" /><rect
       style="fill:none;stroke:#000000;stroke-width:4.27554"
       id="rect2"
       width="949.50757"
       height="590.81439"
       x="78.460579"
       y="89.282219"
       ry="0" /><text
       xml:space="preserve"
       style="font-weight:bold;font-size:158.543px;font-family:'Gentium Basic';-inkscape-font-specification:'Gentium Basic, Bold';text-align:center;text-anchor:middle;fill:#ffffff;stroke:#000000;stroke-width:7.54384"
       x="670.68439"
       y="376.54547"
       id="text2"
       transform="scale(0.83005007,1.2047466)"><tspan
         sodipodi:role="line"
         id="tspan2"
         style="font-style:normal;font-variant:normal;font-weight:normal;font-stretch:normal;font-size:158.543px;font-family:C059;-inkscape-font-specification:'C059, Normal';font-variant-ligatures:normal;font-variant-caps:normal;font-variant-numeric:normal;font-variant-east-asian:normal;fill:#000000;fill-opacity:1;stroke:none;stroke-width:7.54382"
         x="670.68439"
         y="376.54547">WELCOME</tspan></text><path
       style="fill:#000000;fill-opacity:1;stroke:#000000;stroke-width:4.27554;stroke-opacity:1"
       d="M 191.42119,282.14203 H 915.00753 Z"
       id="path4" /><path
       style="fill:#000000;fill-opacity:1;stroke:#000000;stroke-width:4.27554;stroke-opacity:1"
       d="M 191.42119,489.36749 H 915.00753 Z"
       id="path5" /><path
       d="m 895.67245,212.58081 c -14.59707,8.53844 -32.68321,3.36587 -48.48636,-2.98147 -28.04836,-12.17818 -52.19314,-31.48207 -78.32999,-46.17017 -19.35925,-10.70518 -39.69331,-19.04189 -61.77959,-20.16124 -22.05676,-1.49913 -44.52681,6.61155 -59.85455,21.8458 -7.65402,7.6325 -12.98509,17.15129 -15.10632,28.03176 -1.90997,10.62338 -0.0408,21.67236 4.61511,31.11182 10.59694,21.93928 32.80561,32.39968 50.04792,30.13638 20.38511,-1.34777 37.38203,-17.43913 39.90242,-35.42686 0.005,-2.19343 2.8469,-9.17253 -5.03794,-24.55069 -4.69439,-7.58453 -11.49796,-11.66155 -18.38627,-13.83814 -14.28526,-4.26436 -26.99667,1.41026 -32.59158,11.38294 -5.12441,8.85764 -4.41571,17.3315 -2.8469,22.21298 1.61205,4.40612 3.27213,6.04456 3.85112,6.91907 l 0.80962,-0.52374 c -0.61502,-1.24684 -1.73936,-2.43606 -2.79647,-6.90246 -0.95618,-4.58866 -0.80003,-12.32455 4.37248,-19.5007 6.66691,-9.05937 17.21095,-11.08957 27.19102,-7.49104 5.45358,1.86913 10.9026,6.12383 13.82399,11.16891 3.66852,7.82008 3.9184,6.34463 3.53401,19.78177 -2.21988,14.06877 -15.9403,26.89334 -32.64201,28.35403 -13.7754,2.44812 -33.96801,-5.31182 -44.63506,-24.13986 -4.74728,-8.26229 -7.29116,-18.2731 -5.80912,-28.13262 1.41745,-10.0348 6.51069,-19.17412 13.79262,-26.52555 14.67642,-14.71517 36.78422,-21.26399 57.38275,-18.65258 20.31746,2.26792 40.52913,11.70706 57.91352,22.2468 27.44317,16.51658 49.73548,35.69562 78.4899,48.26742 18.83524,7.58945 40.51498,12.60069 57.59186,1.52797 8.55012,-5.26138 13.8166,-14.36214 15.42121,-23.32064 2.97422,-18.81125 -9.65287,-33.67771 -28.32266,-33.3007 -14.10936,0.18499 -24.04392,11.67816 -22.62628,24.90864 0.50691,5.11482 2.70994,9.36688 5.29503,12.23783 6.94305,7.75736 14.98639,7.28932 15.54853,7.48613 l 0.0817,-0.96098 c -12.08653,-3.06555 -17.0332,-10.85218 -17.08856,-18.989 0.0117,-11.4549 8.37976,-19.05173 18.80388,-18.44593 12.83379,0.38199 22.97438,10.74639 20.03393,25.55258 -1.55922,6.66937 -5.63618,13.23541 -12.1708,16.84132 z"
       id="path1"
       style="stroke-width:0.615028" /><path
       d="m 222.17842,207.24237 c -1.22526,0.3003 -1.87872,0.37958 -1.87872,0.37958 l 0.0817,0.96099 c 0,0 0.68951,-0.005 2.01803,-0.17539 9.4702,-1.19641 17.778,-8.99724 18.8254,-19.54867 2.55378,-23.86371 -27.93335,-33.20906 -44.07539,-16.4397 -12.56502,13.27846 -8.26659,37.80763 8.54767,48.1524 8.41604,5.45838 18.88321,7.06545 28.75503,6.26099 17.35548,-0.67026 40.82741,-12.74769 55.57087,-22.03277 17.35302,-10.77284 33.93234,-23.29419 51.76078,-34.02336 17.43236,-10.57111 37.62988,-19.9835 57.91351,-22.2468 20.59853,-2.61147 42.70633,3.93759 57.38275,18.65257 15.22195,15.36833 18.72023,35.97915 7.98307,54.66064 -4.72084,8.33178 -11.70706,15.08049 -19.59173,19.36354 -6.6257,3.69017 -17.23493,6.16443 -25.04333,4.77607 -16.70417,-1.46069 -30.42237,-14.28526 -32.64201,-28.35403 -0.55496,-1.4487 -1.59766,-8.84349 3.53402,-19.78177 2.92378,-5.04514 8.36991,-9.29984 13.82398,-11.16891 10.0182,-3.6109 20.54564,-1.53997 27.19102,7.49104 10.14058,14.06877 1.70332,25.83857 1.57361,26.40316 l 0.80962,0.52374 c 0.2018,-0.56458 10.78944,-12.22123 1.00422,-29.13205 -5.59048,-9.96776 -18.29709,-15.65185 -32.59158,-11.38294 -6.8877,2.17665 -13.69421,6.25361 -18.38626,13.83814 -8.13683,15.86834 -4.94428,22.65518 -5.03795,24.55069 2.51781,17.98466 19.51731,34.07626 39.90242,35.42686 7.98553,1.04745 19.55605,-0.82648 29.42787,-7.06053 8.78568,-5.52566 16.02887,-13.57121 20.62005,-23.07585 10.31833,-20.92757 5.14127,-43.55384 -10.49177,-59.14358 -15.33019,-15.23609 -37.79778,-23.34462 -59.85454,-21.8458 -22.09059,1.12193 -42.43203,9.46344 -61.77959,20.16124 -18.703,10.51329 -35.58983,22.81386 -52.67839,32.83205 -12.27658,7.20998 -34.86226,19.59418 -51.23923,20.55793 -8.38714,0.88171 -16.49506,-0.4973 -22.8932,-4.24031 -12.53612,-6.91661 -16.80011,-25.18233 -8.00029,-35.179 11.46905,-12.8627 34.64823,-8.58149 34.67222,11.23411 -0.0697,9.31645 -7.18107,16.66357 -15.21703,18.60706 z"
       id="path2"
       style="stroke-width:0.615028" /><path
       d="m 478.1052,207.86354 c 5.80432,13.32151 18.09782,23.35201 31.79634,28.62526 23.55866,8.91545 67.43169,7.2315 86.57752,0.005 13.6893,-5.29742 25.98248,-15.30867 31.80127,-28.62772 10.50591,-24.13985 -2.77003,-45.38723 -19.08248,-51.00921 -16.54303,-6.09259 -36.15936,6.93322 -36.25038,23.12814 -0.36758,5.7467 3.40184,14.44332 11.91371,19.1815 5.66256,3.2265 11.11602,3.07994 14.33754,2.30156 3.28658,-0.92015 4.69199,-2.14301 4.74002,-2.03488 -0.1946,-0.56698 -7.25303,5.59294 -18.3426,-1.50873 -4.96586,-3.10638 -10.5133,-9.57845 -9.89089,-17.79769 0.85526,-13.26616 17.8143,-24.54823 31.85908,-18.79218 14.88061,5.72745 23.65214,25.2426 14.86154,43.87857 -5.12921,11.40447 -15.98581,20.17108 -28.44259,24.82684 -15.38555,5.60734 -59.4271,8.06241 -81.58965,0.007 -30.28522,-11.26732 -39.04014,-40.44057 -26.151,-58.58144 6.36186,-9.49234 18.02341,-13.93162 27.52252,-10.60431 9.4825,2.98626 16.42309,11.06312 16.9514,19.31065 0.61503,5.90286 -2.83491,13.26862 -9.90318,17.75402 -5.15566,3.29858 -10.30418,3.68537 -13.52324,3.14722 -3.24809,-0.63667 -4.79531,-1.75621 -4.8193,-1.64089 0.31232,-0.56217 7.39018,6.3883 19.07571,-0.26908 7.09928,-3.95444 12.22861,-11.40939 11.90634,-19.22455 -0.0504,-9.37426 -7.46706,-19.29405 -18.38135,-23.02297 -12.33685,-4.51178 -25.365,0.98503 -33.16847,11.36819 -8.15159,10.68611 -10.12398,25.54519 -3.7935,39.57829 z"
       id="path3"
       style="stroke-width:0.615028" /><path
       d="m 895.67245,556.79797 c -14.59707,-8.53844 -32.68321,-3.36587 -48.48636,2.98147 -28.04836,12.17818 -52.19314,31.48207 -78.32999,46.17017 -19.35925,10.70518 -39.69331,19.04189 -61.77959,20.16124 -22.05676,1.49913 -44.52681,-6.61155 -59.85455,-21.8458 -7.65402,-7.6325 -12.98509,-17.15129 -15.10632,-28.03176 -1.90997,-10.62338 -0.0408,-21.67236 4.61511,-31.11182 10.59694,-21.93928 32.80561,-32.39968 50.04792,-30.13638 20.38511,1.34777 37.38203,17.43913 39.90242,35.42686 0.005,2.19343 2.8469,9.17253 -5.03794,24.55069 -4.69439,7.58453 -11.49796,11.66155 -18.38627,13.83814 -14.28526,4.26436 -26.99667,-1.41026 -32.59158,-11.38294 -5.12441,-8.85764 -4.41571,-17.3315 -2.8469,-22.21298 1.61205,-4.40612 3.27213,-6.04456 3.85112,-6.91907 l 0.80962,0.52374 c -0.61502,1.24684 -1.73936,2.43606 -2.79647,6.90246 -0.95618,4.58866 -0.80003,12.32455 4.37248,19.5007 6.66691,9.05937 17.21095,11.08957 27.19102,7.49104 5.45358,-1.86913 10.9026,-6.12383 13.82399,-11.16891 3.66852,-7.82008 3.9184,-6.34463 3.53401,-19.78177 -2.21988,-14.06877 -15.9403,-26.89334 -32.64201,-28.35403 -13.7754,-2.44812 -33.96801,5.31182 -44.63506,24.13986 -4.74728,8.26229 -7.29116,18.2731 -5.80912,28.13262 1.41745,10.0348 6.51069,19.17412 13.79262,26.52555 14.67642,14.71517 36.78422,21.26399 57.38275,18.65258 20.31746,-2.26792 40.52913,-11.70706 57.91352,-22.2468 27.44317,-16.51658 49.73548,-35.69562 78.4899,-48.26742 18.83524,-7.58945 40.51498,-12.60069 57.59186,-1.52797 8.55012,5.26138 13.8166,14.36214 15.42121,23.32064 2.97422,18.81125 -9.65287,33.67771 -28.32266,33.3007 -14.10936,-0.18499 -24.04392,-11.67816 -22.62628,-24.90864 0.50691,-5.11482 2.70994,-9.36688 5.29503,-12.23783 6.94305,-7.75736 14.98639,-7.28932 15.54853,-7.48613 l 0.0817,0.96098 c -12.08653,3.06555 -17.0332,10.85218 -17.08856,18.989 0.0117,11.4549 8.37976,19.05173 18.80388,18.44593 12.83379,-0.38199 22.97438,-10.74639 20.03393,-25.55258 -1.55922,-6.66937 -5.63618,-13.23541 -12.1708,-16.84132 z"
       id="path6"
       style="stroke-width:0.615028" /><path
       d="m 222.17842,562.13641 c -1.22526,-0.3003 -1.87872,-0.37958 -1.87872,-0.37958 l 0.0817,-0.96099 c 0,0 0.68951,0.005 2.01803,0.17539 9.4702,1.19641 17.778,8.99724 18.8254,19.54867 2.55378,23.86371 -27.93335,33.20906 -44.07539,16.4397 -12.56502,-13.27846 -8.26659,-37.80763 8.54767,-48.1524 8.41604,-5.45838 18.88321,-7.06545 28.75503,-6.26099 17.35548,0.67026 40.82741,12.74769 55.57087,22.03277 17.35302,10.77284 33.93234,23.29419 51.76078,34.02336 17.43236,10.57111 37.62988,19.9835 57.91351,22.2468 20.59853,2.61147 42.70633,-3.93759 57.38275,-18.65257 15.22195,-15.36833 18.72023,-35.97915 7.98307,-54.66064 -4.72084,-8.33178 -11.70706,-15.08049 -19.59173,-19.36354 -6.6257,-3.69017 -17.23493,-6.16443 -25.04333,-4.77607 -16.70417,1.46069 -30.42237,14.28526 -32.64201,28.35403 -0.55496,1.4487 -1.59766,8.84349 3.53402,19.78177 2.92378,5.04514 8.36991,9.29984 13.82398,11.16891 10.0182,3.6109 20.54564,1.53997 27.19102,-7.49104 10.14058,-14.06877 1.70332,-25.83857 1.57361,-26.40316 l 0.80962,-0.52374 c 0.2018,0.56458 10.78944,12.22123 1.00422,29.13205 -5.59048,9.96776 -18.29709,15.65185 -32.59158,11.38294 -6.8877,-2.17665 -13.69421,-6.25361 -18.38626,-13.83814 -8.13683,-15.86834 -4.94428,-22.65518 -5.03795,-24.55069 2.51781,-17.98466 19.51731,-34.07626 39.90242,-35.42686 7.98553,-1.04745 19.55605,0.82648 29.42787,7.06053 8.78568,5.52566 16.02887,13.57121 20.62005,23.07585 10.31833,20.92757 5.14127,43.55384 -10.49177,59.14358 -15.33019,15.23609 -37.79778,23.34462 -59.85454,21.8458 -22.09059,-1.12193 -42.43203,-9.46344 -61.77959,-20.16124 -18.703,-10.51329 -35.58983,-22.81386 -52.67839,-32.83205 -12.27658,-7.20998 -34.86226,-19.59418 -51.23923,-20.55793 -8.38714,-0.88171 -16.49506,0.4973 -22.8932,4.24031 -12.53612,6.91661 -16.80011,25.18233 -8.00029,35.179 11.46905,12.8627 34.64823,8.58149 34.67222,-11.23411 -0.0697,-9.31645 -7.18107,-16.66357 -15.21703,-18.60706 z"
       id="path7"
       style="stroke-width:0.615028" /><path
       d="m 478.1052,561.51524 c 5.80432,-13.32151 18.09782,-23.35201 31.79634,-28.62526 23.55866,-8.91545 67.43169,-7.2315 86.57752,-0.005 13.6893,5.29742 25.98248,15.30867 31.80127,28.62772 10.50591,24.13985 -2.77003,45.38723 -19.08248,51.00921 -16.54303,6.09259 -36.15936,-6.93322 -36.25038,-23.12814 -0.36758,-5.7467 3.40184,-14.44332 11.91371,-19.1815 5.66256,-3.2265 11.11602,-3.07994 14.33754,-2.30156 3.28658,0.92015 4.69199,2.14301 4.74002,2.03488 -0.1946,0.56698 -7.25303,-5.59294 -18.3426,1.50873 -4.96586,3.10638 -10.5133,9.57845 -9.89089,17.79769 0.85526,13.26616 17.8143,24.54823 31.85908,18.79218 14.88061,-5.72745 23.65214,-25.2426 14.86154,-43.87857 -5.12921,-11.40447 -15.98581,-20.17108 -28.44259,-24.82684 -15.38555,-5.60734 -59.4271,-8.06241 -81.58965,-0.007 -30.28522,11.26732 -39.04014,40.44057 -26.151,58.58144 6.36186,9.49234 18.02341,13.93162 27.52252,10.60431 9.4825,-2.98626 16.42309,-11.06312 16.9514,-19.31065 0.61503,-5.90286 -2.83491,-13.26862 -9.90318,-17.75402 -5.15566,-3.29858 -10.30418,-3.68537 -13.52324,-3.14722 -3.24809,0.63667 -4.79531,1.75621 -4.8193,1.64089 0.31232,0.56217 7.39018,-6.3883 19.07571,0.26908 7.09928,3.95444 12.22861,11.40939 11.90634,19.22455 -0.0504,9.37426 -7.46706,19.29405 -18.38135,23.02297 -12.33685,4.51178 -25.365,-0.98503 -33.16847,-11.36819 -8.15159,-10.68611 -10.12398,-25.54519 -3.7935,-39.57829 z"
       id="path8"
       style="stroke-width:0.615028" /></g></svg>
