<?xml version="1.0" encoding="UTF-8"?>
<svg width="1200pt" height="1200pt" version="1.1" viewBox="0 0 1200 1200" xmlns="http://www.w3.org/2000/svg">
 <path d="m447.6 765.6-9.6016-2.3984 14.398-62.398-164.4-0.003907c20.398-118.8 109.2-213.6 224.4-242.4l32.398-152.4c-208.8 21.602-374.4 186-396 394.8l-88.797-0.003907v193.2h66v-43.199h20.398v43.199h52.801v-43.199h20.398v43.199h52.801v-43.199h20.398v43.199h55.203v-43.199h20.398v43.199h51.602l1.1992-6v-37.199h7.1992"/>
 <path d="m686.4 759.6 51.602 255.6 9.6016-2.3984 34.801 88.801-6-97.199 6-2.3984-49.203-234.01 9.6016-2.3984-15.602-68.398-8.3984 2.3984-92.398-440.4c10.801-8.3984 18-21.602 18-36 0-18-10.801-33.602-27.602-40.801h2.3984v-45.602h-7.1992v-36h-21.602v36h-7.1992v45.602c-15.602 7.1992-27.602 22.801-27.602 40.801 0 14.398 7.1992 27.602 18 36l-92.398 438-8.3984-2.3984-15.602 68.398 9.6016 2.3984v-2.3984l-50.398 238.8 15.602 3.6016-7.1992-2.3984v88.801l27.602-81.602 8.3984 2.3984 51.602-255.6 4.8008-36 82.793-385.2 79.199 387.6zm-85.199-510c-14.398 0-25.199-12-25.199-25.199 0-14.398 12-25.199 25.199-25.199 14.398 0 25.199 12 25.199 25.199 0 13.199-12 25.199-25.199 25.199z"/>
 <path d="m668.4 741.6-4.8008-25.199-127.2-0.003906-4.7969 27.602c20.398 6 66 15.602 136.8-2.3984z"/>
 <path d="m525.6 762-22.801 132h25.199v-43.199h18v43.199h45.602v-43.199h18v43.199h45.602v-43.199h18v43.199h24l-22.801-132c-25.203 3.6016-84.004 10.801-148.8 0z"/>
 <path d="m1069.2 700.8c-22.801-213.6-196.8-381.6-414-394.8l31.199 151.2c120 25.199 213.6 122.4 235.2 244.8h-174l14.398 63.602-9.6016 2.3984 18 84h8.3984v39.602l1.1992 3.6016h52.801v-43.199l19.203-0.003906v43.199h52.801v-43.199h20.398v43.199h52.801v-43.199h20.398v43.199h52.801v-43.199h20.398v43.199h68.402v-194.4z"/>
</svg>
