<?xml version="1.0" encoding="UTF-8"?><svg id="Layer_1" xmlns="http://www.w3.org/2000/svg" viewBox="0 0 1024 1024"><defs><style>.cls-1{stroke-width:0px;}</style></defs><path class="cls-1" d="m969.06,547.81c-.02-5.71-5.77-9.9-6.56-15.49-.53-3.68,1.57-6.45-.73-9.5-6.07-8.07-10.91-14.23-14.5-18.49-1.43-1.7-.38-5.03-.53-6.53-.44-4.21-5.21-8.07-8.24-10.93-1.37-1.29-1.12-1.89.77-1.8,9.71.48,17.65-6.82,17.03-16.76-1.33-21.11-2.71-42.21-4.12-63.31-.32-4.8-.96-9.99-4.95-12.83-3.27-2.33-7.76-2.72-11.75-2.18,0,0-.02,0-.03,0-.28.02-.53-.18-.55-.46-1.54-17.15-3.32-34.31-5.33-51.5-.55-4.63-1.32-8.46-2.32-11.48-2.77-8.39-11.97-11.34-19.98-9.87-.61.11-.94-.14-.99-.75-1.03-11.03-8.89-15.17-19.04-15.61-.32-.02-.5-.19-.55-.51l-15.76-115.31c-.04-.29.11-.57.37-.69,5.57-2.7,15.45-9.36,12.5-16.49-1.51-3.66-3.17-8.11-5-13.36-2.56-7.37-9.04-8.11-16.03-9.37-53.03-9.56-88.58-15.88-137.03-23.71-4.78-.77-9.2-.52-13.96-.34-3.18.12-6.72-.7-10-.42-7.51.65-17.26,1.77-29.23,3.36-2.87.38-4.59,2.17-7.52,2.52-21.43,2.52-42.86,5.01-64.3,7.46-1.75.2-3.87.16-6.38-.12-2.4-.27-4.59-.27-6.57-.01-8.47,1.11-16.95,2.13-25.45,3.06-4.78.53-6.35,4.89-6.38,9.42-.03,6.01.27,12.04.16,18.04-.06,3.35,1.19,5.72,3.76,7.11,6.64,3.6,14.55,5.34,21.84,6.9.47.1.67.39.61.86-3.85,30.95-9.63,61.5-14.42,92.35-.1.66-.46,1.11-1.09,1.34l-.38.13s-.1.03-.15.03c-.25,0-.45-.2-.45-.45.2-18.81.76-37.67,1.69-56.57.26-5.41.11-10.32-.46-14.73-1.5-11.58-9.23-26.22-23.62-22.41-.67.17-2.07.67-4.2,1.5-3.19,1.23-5.98.73-9.26.59-7.64-.34-13.45,1.92-17.34,8.88-4.29,7.69-5.27,15.73-2.93,24.12.16.54.15,1.11-.01,1.65l-20.99,70.93c-.1.33-.33.51-.68.54-24.72,1.82-48.92,6.35-72.61,13.6-6.95,2.12-13.89,4.28-20.82,6.47-6.1,1.94-13.87,5.03-20.95,7.21-.39.12-.53-.02-.42-.42,3.3-11.49,6.7-22.94,10.21-34.37,1.45-4.71,11.86-7.65,16.97-9.29,5.5-1.77,7.24-5.07,9.12-10.5,1.83-5.28,3.6-10.58,5.31-15.9.63-1.94,1.58-3.26,2.87-3.97,4.24-2.31,6.83-5.61,7.76-9.9,2.07-9.49.73-18.44-4.04-26.84-6.26-11.04-17.46-7.47-28.49-5.66-2.25.37-4.27,1.27-6.42,2.01-4.43,1.51-7.49,1.25-11.03,5.24-6.29,7.11-8.16,15.59-5.58,24.8.32,1.14.38,2.05.17,2.72-6.89,22.21-13.63,44.46-20.22,66.76-1.08,3.67-2.29,7.3-3.62,10.89-.12.32-.32.57-.61.74-4.88,3.03-5.66,6.76-7.33,11.88-.09.28-.38.45-.66.39-4.96-1.04-8.37.71-10.23,5.26-3.1,7.57-5.91,16.09-8.42,25.56-.57,2.16-.08,3.82,1.48,4.97.28.2.39.56.27.89-4.09,10.96-7.79,22.03-11.09,33.2-1.02,3.43-.21,6.14,2.43,8.15.35.27.48.73.34,1.14-11.77,34.03-21.94,68.81-32.32,103.26-.13.45-.53.76-1,.78-8.68.37-16.56-.57-18.33,10.8-.09.57-.42.86-1.01.86-8.62.01-17.43.4-26.44,1.15-2.24.19-4.24,0-6-.56-4.76-1.51-8.01-4.36-13.6-3.81-.34.03-.57.21-.68.52-.4,1.11-.37,2.2.1,3.27.17.37.05.55-.36.54l-3.67-.12c-.36,0-.56-.19-.6-.54-.69-5.32-.54-15-6.55-18.74-4.39-2.73-12.96-2.55-18.68-2.68-26.08-.57-52.16-.91-78.25-1.02-4.52-.02-8.71,1.3-12.57,3.97-2.46,1.69-1.36,9.37-1.21,12.13.01.3-.13.47-.42.52-6.82,1.13-8.27-3.85-13.48-5.8-9.19-3.44-12.23,8.26-12.02,15.13.64,20.87.22,44.12-1.27,69.75-.73,12.45-2.7,27.43-5.92,44.92-4.62,25.06-11.98,47.04-18.88,70.32-.57,1.93-.32,3.59.74,4.99.2.27.23.56.09.87-3.46,7.57-7.62,14.01-12.35,23.39-.69,1.37-1.03,2.85-1.01,4.45,0,.34.15.66.4.88,1.07.95,2.45,1.69,4.15,2.23,47.33,14.89,110.33,35.08,178.85,57.51,50.5,16.53,100.94,33.23,151.33,50.12,6.3,2.11,12.63,4.14,18.99,6.09,5.82,1.78,11.23,3.8,16.82,5.82,3.05,1.11,4.5.57,7.33-.51,26.95-10.23,53.92-20.44,80.89-30.62,20.07-7.57,40.35-14.49,60.84-20.78.21-.07.34-.29.28-.5l-.07-.27c-.02-.09-.07-.12-.16-.1-15.2,3.17-30.01,5.98-44.43,8.43-4.36.75-4.47.35-.32-1.19,2.51-.93,5.1-2.07,7.7-2.87,16.32-5.07,32.66-10.06,49.02-14.97.08-.03.11-.08.09-.16h0c-.02-.1-.07-.13-.16-.12-17.99,3.12-36.04,6.56-54.07,8.74-4.13.49-4.22.08-.27-1.23,18.9-6.3,37.97-12.05,57.21-17.26.19-.05.26-.17.22-.36l-.06-.27c-.02-.08-.07-.11-.16-.1-17.91,3.49-36.17,6.53-54.8,9.11-.41.05-.68-.11-.81-.5l-.1-.28c-.09-.28,0-.46.28-.55l45.52-13.89c.11-.03.15-.08.14-.14,0,0-.12,0-.35.04l-44.26,7.16c-.39.06-.61-.11-.66-.5-.05-.47,0-.9.16-1.27.18-.43.59-.75,1.23-.97,9.59-3.23,19.25-6.28,28.96-9.15.04-.01.06-.05.06-.1v-.07c0-.09-.12-.16-.25-.15l-28.54,3.52c-.45.06-.64-.14-.58-.59,1.4-10.6,2.81-20.91,4.24-30.92.15-1.04.43-1.94.84-2.69.17-.31.42-.51.75-.61,17.61-5.11,35.46-9.2,53.54-12.27,3.23-.55,5.98-.85,8.25-.91,1.86-.05,1.9.19.12.74-12.15,3.74-24.38,7.16-36.71,10.26-.19.05-.26.17-.22.36l.05.25c.02.12.09.17.21.15,5.77-.99,11.56-1.93,17.35-2.81,9.56-1.44,24.59-4.6,37.26-4.97,2.31-.07,2.38.28.2,1.04-3.35,1.18-7.36,2.32-12.01,3.42-.15.03-.26.11-.31.22-.12.23-.05.35.21.34,7.29-.19,14.58-.44,21.87-.75,5.25-.22,10.71.06,15.97.05,1.77,0,1.8.21.09.65-4.05,1.05-8,2.59-12.11,3.3-.03,0-.05.03-.04.08l.04.28c.02.15.11.23.27.23,15.01-.13,24.8.42,33.24,1.48,1.03.13,1.04.29.02.49l-7.25,1.4c-.67.13-.67.22.02.25,7.96.39,16.72-.84,24.69-1.53,4.79-.41,9.6-1.22,14.43-2.41,10.55-2.6,19.26-4.91,26.13-6.92,39.6-11.62,84.59-25.48,134.98-41.58,43.67-13.95,86.36-30.23,129.37-46,1.7-.63,1.65-.8-.14-.53-9.21,1.41-18.46,2.6-27.73,3.56-2.25.23-2.31-.03-.18-.78,3.14-1.1,6.37-2.51,9.64-3.46,5.43-1.57,9.84-2.96,13.24-4.17,5.17-1.85,5.06-2.25-.34-1.22-5.51,1.05-11.06,1.71-16.66,2-.1,0-.19-.02-.27-.08-.19-.14-.24-.41-.1-.6,8.27-11.38,14.83-24.07,21.33-36.52,1.62-3.11-.02-6.55-1.18-9.51-.19-.5-.05-1.06.36-1.41,3.58-3.05,7.56-8.16,8.24-12.97.06-.44.11-2.81.14-7.11.07-10.06.1-20.12.07-30.19Zm-21.45-32.4c2.22,2.58,16.32,21.88,8.69,23.59-.5.11-1-.2-1.12-.7-1.9-8.14-9.57-22-16.97-26.25-.77-.44-.72-.74.15-.91,3.91-.76,6.65,1.25,9.25,4.27Zm-7.21-15.67c.25.34.26.8.02,1.14l-1.57,2.25c-.06.09-.14.17-.22.23-.43.32-1.04.22-1.36-.21l-23.01-31.78c-.16-.22-.22-.51-.16-.78.11-.52.63-.86,1.15-.74l2.53.54c.23.05.43.18.57.37l22.05,28.98Zm-14.62,103.96c-3.79,4.91-8.72,6.83-14.8,5.76-.71-.13-.73-.33-.06-.6,2.84-1.15,6.8-1.86,9.36-4.45,4.59-4.62,8.12-8.63,10.53-14.82,8.86-22.79,5.25-42.48-10.83-59.09-1.41-1.45-1.22-1.69.55-.72,6.68,3.67,11.43,11.16,13.8,18.28,6.1,18.32,3.66,39.8-8.55,55.64Zm4.89-1.61l16.52,2.75c.71.12.89.49.54,1.12l-.55.96c-.49.86-1.46,1.33-2.43,1.18-4.83-.73-9.55-1.95-14.15-3.65-.56-.2-.84-.6-.85-1.2v-.38c0-.63.3-.89.92-.78Zm-8.21,9.95l-4.76,5.08h0c-.16.17-.43.18-.61.02l-.18-.16c-.17-.16-.18-.43-.02-.61l4.76-5.08c.16-.17.43-.18.61-.02l.18.16c.17.16.18.43.02.61Zm15.52,12.15c.14.03.26.1.36.19.29.28.3.75.02,1.05l-1.98,2.03c-.18.19-.45.26-.71.2l-18.24-4.48c-.2-.05-.37-.19-.47-.38l-1.02-1.93c-.08-.15-.1-.32-.06-.49.08-.4.47-.66.87-.57l21.23,4.38Zm-64.96.38c-.41-1.37-.37-2.29.13-2.77.49-.47.82-.37.98.29,1.15,4.74,3.51,10.27,7.62,12.86,4.84,3.05,8.23,1.11,12.71-2.27.51-.38.76-.89.75-1.52,0-.07-.02-.14-.05-.2-.11-.22-.38-.3-.59-.19-7.15,3.5-12.66-3-15.04-9.53-.43-1.18.16-2.48,1.33-2.94l.77-.3c1.24-.48,1.98-.06,2.21,1.25.51,2.77,3.05,9.5,6.41,8.45,1.81-.57,3.58-1.27,5.3-2.1.32-.16.58-.42.74-.74,1.85-3.83,2.87-7.88,3.06-12.15.05-1.18.87-2.18,2.02-2.47l1.36-.33c1.19-.29,1.78.18,1.75,1.41-.19,8.76-3.6,16.49-10.22,23.18-2.37,2.39-5.03,3.44-7.98,3.15-7.54-.74-11.27-6.47-13.26-13.08Zm6.45,29.41c5.5,1.93,11.16,3.44,16.77,5.02.93.26.96.6.09,1.01-4.11,1.96-17.07-4.59-21.59-6.08-.12-.04-.21-.15-.22-.28-.02-.18.12-.34.3-.36,1.46-.11,3.01.12,4.65.69Zm-59.63,13.41c-.5.15-1.15.58-1.95,1.28-.25.21-.53.31-.86.32-2.6.06-5.29.54-8.07,1.45-18.6,6.07-32.36,9.62-46.88,14.07-10.31,3.15-17.33,5.7-26.11,7.56-7.65,1.61-14.95,4.13-22.49,5.96-3.23.79-6.43,1.67-9.6,2.64-2.36.73-5.06,1.02-7.58,1.78-6.45,1.94-12.87,3.97-19.27,6.09-4.31,1.42-11.31,3.43-15.56,1.39-.55-.27-.53-.46.08-.57,7.04-1.27,13.08-4.4,20.37-5.96,1.31-.28,4-.67,8.08-1.16,8.55-1.03,16.58-3.73,24.07-8.08,3.32-1.92,6.98-1.62,10.61-1.93,6.55-.57,14.53-2.66,19.64-5.55,8.33-4.71,16.53-7.05,24.59-7.03,3.93,0,8.85-2.21,12.62-3.35,1.43-.43,4.56-1.55,9.39-3.38,5.91-2.24,12.04-3.75,18.37-4.53.97-.11,2.39-.72,4.28-1.82,3.6-2.09,7.23-3.4,11.03-4.74,5.73-2.03,13.4-2.83,18.18-3.75,2.98-.57,6.13-2.34,8.52-3.18,4.5-1.6,8.96-3.31,13.38-5.12,3.39-1.38,6.02-1.94,9.29-.97.55.17.62.45.2.85-1.11,1.05-2.52,1.79-4.23,2.21-3.84.95-7.63,2.05-11.38,3.32-.96.33-2.94.8-5.95,1.41-3,.62-5.6,2.24-8.4,2.86-8.31,1.83-16.26,5.34-24.37,7.93Zm12.43-.72c3.43.87,6.85,1.77,10.27,2.7,2.46.66,4.92,1.29,7.39,1.88.02,0,.03.02.03.04l-.06.25c-.03.16-.13.23-.3.2-3.16-.56-5.86-1.51-9.26-2.06-2.78-.44-5.07-1.91-7.7-2.25-1.29-.16-2.57-.29-3.86-.39-.71-.05-.73-.17-.04-.36,1.15-.31,2.33-.32,3.53-.01Zm-.45,7.2c.11.03.15.1.12.21h0c-.03.12-.1.17-.21.14-2.97-.59-5.82-1.53-8.56-2.83-.91-.43-2.28-.44-4.09-.01-.43.1-.66-.07-.68-.52v-.4c-.02-.39.17-.57.56-.52,4.68.61,9.66,3.1,12.86,3.93Zm-121.24,31.65c-1.59-.54-4.08-.79-5.32-1.32-2.55-1.09-2.45-1.54.32-1.35,2,.13,4.03.36,6.1.71,6.74,1.14,13.03,5.54,19.17,6.24.41.05.46.2.15.47-3.18,2.8-15.53-3.11-20.42-4.75Zm9.03,7.11c-2.24.51-4.87.28-7.88-.68-5.37-1.71-10.7-3.51-15.99-5.42-.38-.14-.39-.29-.02-.46,1.66-.73,3.12-.87,4.39-.41,2.99,1.09,6.01,2.11,9.06,3.08,3.19,1.01,6.68,1.98,10.45,2.93,1.33.33,1.32.65-.01.96Zm9.31-9.71c-2.93-1.25-5.78-1.9-8.84-2.54-.51-.1-.51-.22-.02-.36,1.32-.37,2.4-.44,3.25-.2,7.14,2.04,13.97,4.75,20.91,7.42.31.11.3.21-.02.29-3.66.85-10.56-2.6-15.28-4.61Zm-97.4-14.45c.5.12.81.43.94.93l.59,2.19c.02.09.02.19,0,.28-.08.28-.37.43-.65.35-2.57-.73-5.29-1.42-8.15-2.07-12.67-2.9-25.33-5.82-37.98-8.77-2.53-.59-4.99-1.36-7.4-2.32-.15-.06-.28-.15-.37-.26-.09-.1-.16-.19-.21-.27-.05-.08-.08-.17-.09-.26-.04-.36.22-.69.59-.73,1.08-.11,2.24-.04,3.47.19,16.65,3.22,33.07,6.8,49.26,10.74Zm-22.33-31.05l4.85-2.54c.07-.03.14-.04.21-.03l15.03,2.32c.16.02.28.15.29.31l.27,4.55s0,.07,0,.1c-.04.18-.22.3-.4.26l-20.15-4.33c-.11-.02-.2-.09-.25-.19-.08-.17-.01-.37.16-.45Zm23.38-7.92l1.43-5.02c.05-.18.15-.34.29-.46l3-2.82c.22-.21.53-.31.83-.27.56.07.97.58.9,1.14l-.77,6.78c-.04.42-.34.76-.74.88l-3.67,1.04c-.18.05-.37.05-.56,0-.55-.15-.87-.72-.71-1.27Zm.46,9.47c.04-.99.51-1.67,1.42-2.06l1.77-.75c1.08-.46,1.67-.11,1.76,1.06.84,10.63,2.88,21.03,6.12,31.18.1.3,0,.64-.23.86l-4.84,4.48c-.1.1-.23.17-.37.2-.44.1-.88-.17-.99-.61-2.69-10.8-5.07-23.06-4.64-34.36Zm10.25,3.16c-.1.06-.2.1-.31.13-.64.18-1.31-.19-1.49-.83-.95-3.28-1.25-5.9-.6-9.5.77-4.28,1.22-8.5,1.34-12.66,0-.15.1-.29.23-.35l7.5-3.49c.13-.06.2-.02.21.13.32,6.68,1.74,13,2.58,19.73.08.66-.16,1.17-.73,1.52l-8.73,5.32Zm.96-32.64c-15.86,7.26-30,14.35-43.77,20.78-22.85,10.67-45.35,22.06-67.49,34.17-5.52,3.02-10.86,5.86-16.01,8.52-1.02.53-1.45.22-1.3-.92l.16-1.23c.16-1.2.91-2.24,1.99-2.78,6.41-3.19,10.59-5.33,12.55-6.4,31.81-17.39,64.3-33.38,97.48-47.97,23.21-10.2,46.21-20.84,69.01-31.91,2.14-1.04,4.32-2.02,6.55-2.93.06-.03.08-.07.05-.14l-.1-.25c-.06-.15-.17-.2-.33-.14-3.98,1.57-8,2.99-12.06,4.28-7.77,2.46-15.47,5.09-23.11,7.9-24.38,8.95-48.75,18.11-72.08,29.6-2.1,1.03-3.98,2.95-6.16,4.03-9.47,4.67-18.83,9.52-28.09,14.56-9.12,4.97-18.14,9.34-27.22,14.02-.29.15-.6.19-.91.12-4.81-1.03-13.28,3.56-17.04,6.24-.41.29-.62.19-.63-.31v-.46c-.02-.39.14-.71.45-.95,3.63-2.83,7.64-4.88,12.04-6.17,3.11-.92,5.41-1.74,6.88-2.47,4.54-2.26,8.99-4.7,13.35-7.33.07-.05.08-.1.03-.16l-.18-.19s-.1-.06-.17-.03l-30.84,12.39c-.84.33-1.25.05-1.22-.85v-.35c.04-.97.49-1.67,1.36-2.09l17.88-8.59c.99-.48.96-.58-.11-.3-6.59,1.71-12.95,4.05-19.08,7.01-.11.05-.23.07-.34.06-.34-.04-.59-.35-.55-.7l.34-3.08c.04-.34.23-.65.52-.85l5.5-3.76c.8-.55.76-.62-.13-.23-1.63.73-3.42,1.75-5.37,3.07-.08.06-.18.09-.29.09-.29,0-.54-.23-.54-.53l-.07-19.34c0-.29.17-.55.43-.68,15.25-7.11,30.52-13.95,45.8-20.5,11.25-4.83,22.27-10.07,33.43-15.08,1.49-.67,3.09-1.72,4.78-3.13.22-.19.34-.47.32-.76-.18-2.95,2.41-6.26,4.29-8.75,2.22-2.95,9.88-3.21,13.79-2.92,4.86.35,8.31,5.97,9.68,10.1.54,1.63.21,3.05-1,4.26l-3.3,3.31c-.91.91-1.49.74-1.76-.52l-1.6-7.57c-.12-.56-.6-.96-1.16-.98-2.07-.06-4.1.17-6.09.7-.55.14-.55.27.01.39,1.77.38,4.8.7,5.44,2.68.95,2.91,1.56,5.9,1.84,8.96.03.33.19.43.5.28,3.32-1.62,5.6-2.63,6.85-3.03,6.94-2.21,14.71-5.51,20.41-7.56,16.77-6.03,30.75-11.3,41.94-15.81,2.78-1.13,2.88.08,4.76,1.31,7.72,5.04,15.53,4.49,23.64,2.18,1.28-.37,1.26-.67-.05-.9-2.88-.52-6.55,1.26-9.32.58-.73-.18-1.03-.64-.89-1.39.73-4.01,2.04-7.83,3.92-11.46.17-.33.44-.53.81-.6,5.74-.99,13.71.54,19.33,1.99,2.45.63,4.51,1.12,6.19,1.49,1.66.36,1.8.05.41-.94-4.28-3.04-10.3-4.86-13.52-7.33-2.95-2.26-5.08-5.25-6.39-8.98-.11-.32-.08-.63.1-.92.84-1.41,2.04-3.14,3.61-5.18,3.24-4.21,6.35-3.05,11.14-1.53,12.68,4.03,25.46,11.55,28.66,25.14.08.33.29.46.62.37,25.59-6.26,51.28-12.15,77.06-17.68,5.8-1.24,14.5-2.62,21.66-4.42.39-.1.75-.09,1.08.02.37.13.4.3.07.52-1.16.81-1.96,1.29-2.39,1.44-6.54,2.33-13.14,4.47-19.79,6.43-.09.03-.13.09-.11.19.03.1.09.14.19.12,12.39-2.54,21.29-4.95,26.7-7.22,6.03-2.54,14.36-10.42,17.66-16.68.03-.07.06-.14.06-.21.03-.32-.2-.61-.52-.65l-1.23-.15c-.3-.03-.43-.2-.39-.49.13-1.03.61-1.58,1.42-1.65,1.89-.17,3.78-.39,5.67-.65.33-.05.54-.23.61-.56.06-.27.17-.52.32-.75.17-.26.41-.36.72-.3,3.55.66,7.12.81,10.71.44.28-.03.53-.18.69-.41.34-.51.37-.96.1-1.37-.17-.25-.53-.45-1.06-.61-.98-.3-1.95-.64-2.9-1.03-2.17-.88-4.25-.59-6.34-2.24-.26-.21-.55-.25-.86-.12l-.79.32c-.35.14-.56.02-.63-.35-.27-1.41.03-2.62.9-3.64.25-.28.55-.38.91-.31,4.58.97,9.92.48,14.51.45.63,0,.66.13.1.41-1.34.66-2.03,1.6-2.08,2.82-.11,3.09-.09,6.18.07,9.27.02.32-.07.63-.25.9-1.79,2.57-4.22,4.13-7.28,4.68-.31.05-.48.23-.51.54-.27,2.3,1.63,2.35,2.36,3.73,1.22,2.32.67,8.04.29,10.64-.18,1.22-.86,2-2.04,2.35-5.57,1.65-11.15,3.28-16.73,4.87-2.43.69-4.65,2.3-6.68,4.82-.23.28-.17.35.16.22,2.57-1.05,4.92-2.92,7.24-3.71,4.11-1.41,9.49-2.41,16.14-3.02.67-.06,1.29.35,1.5.99l.08.26s0,.03.01.05c.12.46-.16.93-.62,1.05-4.7,1.21-8.78,2.25-12.23,3.12-3.63.91-9.22,2.53-9.87,7.01-.37,2.51-.35,7.16,3.28,7.06,5.65-.15,11.25-1.03,16.8-2.62.09-.02.18-.04.27-.04.65-.03,1.2.47,1.23,1.11.24,5.19,1.31,10.17,3.22,14.95.13.32.03.53-.3.62l-170.89,51.67c-1.29.39-1.91-.1-1.85-1.45l.03-.7c.06-1.28.69-2.16,1.88-2.63,6.42-2.54,14.33-4.93,19.44-6.72,17.85-6.23,35.71-12.46,53.57-18.68,2.17-.75,4.34-1.53,6.5-2.33,8.35-3.08,16.03-5.67,25.35-7.97,10.76-2.65,23.6-6.76,31.9-9.14,9.62-2.74,20.21-5.07,29.13-9.61.12-.06.15-.15.1-.28h-.01c-.05-.13-.14-.17-.27-.12-3.22,1.24-6.26,2.56-9.63,3.42-10.75,2.74-21.82,6.46-31.88,9.12-17.38,4.6-34.71,10.3-51.75,14.93-7.85,2.13-15.69,4.26-23.53,6.41-10.85,2.97-21.82,5.89-32.57,9.2-.97.3-1.97.43-2.98.38-.56-.03-.66-.26-.3-.69,1.66-1.99,6.88-2.29,10.36-3.6,11.47-4.34,23.39-7.51,35.11-11.06,7.17-2.17,14.35-4.34,21.52-6.51,19.82-6.01,39.89-11.3,59.79-17.06,4.04-1.17,8.45-3.2,12.85-4.39.06-.01.09-.07.07-.12s-.07-.09-.12-.07c-6,1.34-11.88,3.16-17.85,4.6-18.46,4.44-36.79,10.12-54.99,15.78-17.15,5.33-34.35,10.51-51.6,15.54-3.64,1.05-9.18,3.06-14.1,3.93-6.87,1.22-8.74,4.28-13.04,9.07-.93,1.04-1.48.86-1.64-.53-.1-.91.1-2.59.46-3.61,2.37-6.8,1.77-11.99,3.23-17.87.6-2.4,4.41-3.38,6.49-3.78,3.78-.73,6.49-2.32,9.99-3.33,13.49-3.87,29.83-7.83,40.67-10.71,17.05-4.53,34.1-9.08,51.13-13.67,1.91-.52,4.13-1.34,5.7-2,2.75-1.15,2.71-1.25-.11-.3-8.06,2.73-17.4,3.71-25.46,5.72-25.26,6.32-50.54,12.5-76.01,17.94-1.75.37-2.94.53-3.57.46-2.39-.25-2.48-.84-.27-1.77,8.65-3.65,17.98-5.7,27.12-8.21,18.55-5.09,37.4-9.27,56.08-13.83,7.01-1.71,14.05-3.28,21.12-4.72.58-.12.58-.18-.01-.18-1.51,0-2.74.62-4.23.73-1.47.11-2.4.21-2.79.28-32.41,6.23-62.94,14.37-99.53,23.8-4.67,1.21-13.65,2.42-18.48,5.88-4.22,3.03-8.41,5.53-11.88,9.46,0,0,0,0,0,.01-.01.03,0,.07.04.08.11.01.21.03.31.04.06.01.11,0,.16-.04,2.15-1.67,4.54-2.85,7.16-3.54,2.58-.68,7.65-4.34,9.58-1.03,3.37,5.77,2.01,14.15-3.93,17.39-.3.16-.47.41-.51.76-.61,5.12,1.34,12.25,3.25,17,.2.49.05.82-.46.98-9.17,2.97-18.36,5.77-27.59,8.4-1.32.38-2.49.6-3.5.65-.97.05-1.82-.63-1.98-1.58-1.31-7.83-2.2-15.71-2.67-23.64,0-.17-.05-.26-.14-.25h-.05s-.05.02-.06.05c-1.12,8.53-1.53,17.1-1.24,25.7.04,1.1-.06,2.17-.31,3.22-.09.36-.31.59-.66.68l-19.87,5.36c-1.06.29-1.75-.1-2.07-1.15-.45-1.47-.81-3.26-1.07-5.37-1.12-9.2-2.19-18.41-3.22-27.63-.04-.35.1-.6.42-.76,23.15-11.49,40.52-23.43,60.61-35.79,4.56-2.81,7.64-5.38,10.56-9.36.45-.61.43-1.21-.05-1.8-4.19-5.11-9.42-8.71-15.67-10.82-1.01-.35-1.22-.08-.62.8,1.23,1.81,1.8,3.93,3.14,5.6,1.06,1.33,2.21,2.53,3.44,3.61.1.09.19.19.26.31.34.59.13,1.34-.46,1.69-4.97,2.91-11.24,5.58-15.25,7.65-26.58,13.7-47.43,24.01-62.55,30.94Zm-209.23-81.41c-1.88-1.68-6.37-2.43-9.47-2.7-29.31-2.49-58.48-6.05-87.51-10.69-11.74-1.87-23.45-2.97-35.16-4.38-.47-.06-.72-.32-.76-.79l-.09-1.21c-.04-.49.19-.74.68-.73.79.01,1.99-.16,2.79-.05,42.98,6.32,86.56,8.52,129.88,11.77,1.12.09,2.14.66,2.8,1.57,2.19,3.03,4.46,6.21,6.81,9.54,1.57,2.22,1.59,4,.14,6.15-.19.29-.4.31-.65.08-3.15-2.89-6.3-5.74-9.46-8.56Zm1.06,5.52c-4.48-2.02-9.09-3.71-13.82-5.07-.11-.03-.15-.09-.12-.2l.05-.26c.01-.06.05-.09.1-.08,2.9.49,5.81.96,8.74,1.41,2.61.41,4.44,1.65,5.49,3.74.28.56.13.71-.44.46Zm-75.47-182.58c-1.24-2.89-2.47-5.43-1.52-8.67,1.05-3.58,1.79-7.22,2.22-10.92,0-.06.04-.09.11-.08l.26.02c.23.01.33.13.32.36-.83,24.12-.7,48.21-.81,72.33,0,2.64-.12,5.06-.34,7.25-.04.41-.22.48-.53.21-3.44-2.96-6.76-4.39-9.96-4.29-1.18.03-2.52.61-4.01,1.73-2.88,2.17-6.05,3.45-8.54,6.11-2.39,2.55-4.17,5.87-6.08,8.79-.31.46-.43.41-.37-.14.29-2.85,1.02-5.24,2.19-7.18,4.37-7.21,5.94-13.06,7.7-21.74.15-.71.69-1.17,1.64-1.39.31-.08.59-.26.78-.52,2.45-3.25,4.5-8.97,5.61-11.83,1.44-3.68.36-7.87,1.7-11.9,1.85-5.53,3.91-11.05,6.18-16.56.01-.03.03-.07.05-.1.23-.4.74-.53,1.14-.3.48.28.98.37,1.51.26.07-.01.13-.03.2-.06.53-.23.78-.84.55-1.38Zm-50.28,150.83s-.03,0-.04,0c-.29,0-.52-.25-.51-.54.03-1.13.35-2.13.96-3.01,5.7-8.26,11.12-18.02,15.91-25.45,3.94-6.12,8.04-12.17,11.45-18.62.67-1.28.85-1.22.52.19-1.13,4.8-2.57,9.77-4.32,14.91-3.57,10.47-6.84,21.04-9.83,31.69-.7,2.51-1.77,5.59-5.24,4.79-.37-.09-.53-.32-.48-.7.89-6-5.62-3.37-8.42-3.26Zm28.55-76.21c-.36-.56-.35-1.28.01-1.83,1.45-2.21,3.14-4.01,5.06-5.38,2.61-1.86,4.65-1.42,6.13,1.31.03.06.05.12.06.19.02.26-.17.5-.44.52-5.46.47-6.94,8.08-9.56,11.93-4.03,5.94-8.22,10.82-13.52,17.92-.1.13-.22.15-.36.05l-.21-.16c-.09-.07-.11-.14-.04-.23,4.53-6.17,8.68-12.58,12.43-19.22,1.01-1.77,1.54-3.37.44-5.1Zm-5.01,21.77c6.46-9.69,10.97-15.8,19.67-22.85.06-.05.12-.08.19-.1.29-.08.59.08.67.37l.12.41c.17.59.03,1.08-.43,1.47-9.25,8.05-16.33,20.27-22.6,29.13-8.83,12.46-16.37,25.77-24.23,37.4-.03.04-.06.08-.09.11-.25.23-.64.21-.88-.04l-.29-.31c-.33-.36-.36-.89-.08-1.29,3.13-4.35,5.81-9,8.03-13.96.73-1.64,1.58-3.23,2.53-4.76,5.46-8.79,12.13-17.7,17.39-25.58Zm-5.41,56.73c7.92-21.41,16.03-42.4,23.43-63.85.66-1.93,1.64-3.94,2.67-5.43,1.14-1.64,1.76-1.46,1.86.53.27,5.27.65,10.58,1.15,15.93.96,10.37-5.76,24.03-10.41,33.56-3.41,6.96-6.8,13.77-10.19,20.44-.3.58-.77.84-1.42.77l-6.29-.66c-.08,0-.16-.03-.24-.06-.5-.19-.75-.74-.56-1.23Zm29.06-5.08c.07-.01.15,0,.22,0,.34.08.56.42.48.76-.36,1.61-.99,3.1-1.88,4.49-.05.07-.07.16-.08.25,0,.27.2.49.47.49l2.82.1c.1,0,.19.03.28.08.29.17.4.54.23.83l-.16.28c-.21.36-.6.59-1.02.58-1.41-.01-2.79-.28-4.13-.8-.32-.12-.5-.35-.54-.7-.23-2.12.74-6.06,3.31-6.37Zm1.59-10.52c.02-.61.18-1.1.36-1.1.18,0,.3.51.28,1.12-.02.61-.18,1.1-.36,1.1-.18,0-.3-.51-.28-1.12Zm-.66-67.54c-1.86-2.95-3.86-5.8-6-8.55-.1-.13-.09-.24.03-.35h.01c.12-.12.24-.12.36,0,4.15,4.1,9.99,13.1,8.77,19.25-.02.11-.11.2-.23.22-.15.03-.3-.08-.32-.23-.57-3.77-.72-7.33-2.62-10.34Zm-8.88-76.34l-10.86,36.19c-.27.89-1.2,1.39-2.09,1.13l-.17-.05h0c-.89-.27-1.39-1.2-1.13-2.09l10.86-36.19c.27-.89,1.2-1.39,2.09-1.13l.17.05c.89.27,1.39,1.2,1.13,2.09Zm-8.86,1.4c-3.01,10.78-5.94,21.66-8.79,32.64-.16.6-.69,1.01-1.31,1.01-.64,0-1.24-.13-1.81-.38-.39-.17-.44-.42-.15-.73.77-.85,1.05-1.09,1.44-2.23,3.83-11.31,7.12-22.81,9.87-34.51.09-.4.35-.57.76-.52l.29.04c.16.02.28.16.27.33-.1,1.89-.29,3.34-.57,4.35Zm-11.49,37.22h0c.03-.08.11-.12.18-.09h.01s0,.01,0,.01c.69.21-2.37,11.97-6.82,26.28l-.1.33s0,0,0,0c-4.46,14.31-8.62,25.73-9.31,25.52h-.02s0-.01,0-.01c-.07-.03-.11-.11-.09-.18l16.15-51.86Zm-12.06,54.22c4.55-18.04,10.35-35.6,15.63-53.31.11-.35.34-.52.7-.49,1.17.08,1.75.7,1.72,1.85-.01.76-.31,2.17-.9,4.22-4.34,15.24-8.86,29.98-12.96,45.74-3.21,12.36-6.7,24.64-10.47,36.85-.86,2.79-3.45,11.33-5.72,13.12-1.11.87-1.46.63-1.05-.72,4.75-15.81,9.1-31.56,13.05-47.26Zm158.4-128.21c-1.53,5.39-2.74,10.85-3.63,16.38-.05.33.09.48.43.45,3.19-.31,6.67-9.01,7.64-11.31,1.22-2.92,5.3-2.76,7.79-2.28.37.07.51.29.42.66-1.49,6.3-2.86,12.59-4.12,18.86-.2,1-.19,1.97.03,2.92.08.33.37.57.71.58.76.03,1.32-.39,1.67-1.26,2.93-7.15,5.27-14.38,7.02-21.67.19-.83-.29-1.67-1.11-1.92-4.5-1.34-9.09-1.87-13.77-1.58-.69.04-1.15-.26-1.38-.91l-.09-.26c-.22-.61,0-.93.65-.94,6.77-.17,13.8.4,18.44,5.46.22.23.34.51.36.84.07,1.26-.06,2.51-.37,3.76-1.93,7.52-3.91,15.04-5.96,22.55,0,.03-.02.05-.03.07-.12.28-.45.42-.73.3-7.97-3.44-16.27-5.64-24.9-6.61-.61-.07-.82-.4-.63-.98,2.08-6.37,4.05-12.76,5.9-19.15.58-2,1.63-4.29,3.16-6.88.19-.31.45-.42.8-.31,1.52.47,2.16,1.62,1.7,3.23Zm2.48.74c.13-.33.33-.37.6-.14l.24.21c.09.07.11.16.06.27-1.22,2.56-2.07,5.21-2.55,7.96-.05.34-.2.64-.45.91-.31.35-.43.29-.37-.17.43-3.13,1.25-6.14,2.47-9.04Zm23.47-1.55c.08.11.08.21-.01.31l-.19.23c-.1.11-.2.11-.29-.01-4.46-5.61-12.66-6.98-19.77-7.88-.04,0-.07-.01-.11-.02-.28-.1-.43-.41-.33-.7l.12-.35c.16-.45.63-.72,1.1-.62,7.86,1.63,14.62,2.79,19.48,9.04Zm-4.21-10.17c5.47-17.91,10.05-35.77,15.16-54.09.04-.16.14-.3.27-.4.34-.26.83-.2,1.09.14l.25.32c.51.67.69,1.41.53,2.23-.74,3.72-1.63,7.28-2.67,10.68-2.87,9.38-5.66,18.78-8.39,28.2-1.12,3.87-3.61,9.49-4.39,14.61,0,.07-.03.14-.07.2-.15.28-.5.38-.77.22-.95-.51-1.28-1.22-1.01-2.11Zm-30.22,148.27c.06-.5.18-1.68.4-2.37,2.52-8.01,4.6-17.83,9.32-24.66.88-1.28,2.24-2.33,4.08-3.14.29-.13.54-.06.73.19,2.91,3.84,4.62,9.32,6.84,13.31.05.09.04.2-.02.29l-.24.32c-.04.06-.1.11-.16.15-.26.15-.59.07-.74-.19-2.35-3.96-4.24-8.12-5.68-12.48-.08-.23-.23-.43-.44-.56-.49-.31-1.14-.17-1.45.32-1.1,1.71-1.65,4.5-2.29,6.08-3.18,7.94-6.32,15.6-9.42,22.98-.89,2.11-1.2,2.03-.93-.24Zm-21.44,62.3c-.77,2.55-1.74,5.05-2.89,7.5-.13.28-.34.39-.65.33-1.31-.26-1.84-.98-1.6-2.17.75-3.65,2.15-9.05,4.2-16.19,4.46-15.56,8.05-31.2,12.05-46.8,1.68-6.55,3.79-13.06,5.34-19.53,2.23-9.26,5-19.24,8.31-29.95,1.26-4.07,2.25-8.61,2.96-13.62.08-.59.37-.73.88-.43l2.48,1.48c.54.32.8.96.64,1.56-10.52,39.31-19.93,78.87-31.72,117.82Zm40.87-96.08c-1.8-2.85-4.68-2.91-7.48-1.33-.67.38-.83.23-.47-.46,1.07-2.04,2.73-2.87,4.98-2.48,2.36.4,3.72,2.42,4.63,4.44,1.55,3.47,3.17,6.36,4.86,8.65.37.49.42,1.02.15,1.58l-.28.6c-.37.77-.7.76-1.01-.04-1.65-4.25-3.45-7.91-5.38-10.96Zm-7.75-26.79c-.12.45-.59.72-1.04.6l-.78-.21s0,0-.01,0c-1.19-.33-2.03-1.04-1.88-1.6l11.08-40.47c.15-.55,1.24-.73,2.43-.41l.78.21c.45.12.72.59.6,1.04l-11.18,40.84Zm-13.3-48.27c.17-.55.55-.85,1.12-.89l.97-.07c.59-.05.79.21.58.76-4.67,12.41-8.42,25.09-11.25,38.04-.17.75.13,1.1.9,1.06l1.27-.08c.73-.04,1.36-.53,1.6-1.22l11.59-34.73c.39-1.19,1.2-1.63,2.41-1.32l5.23,1.34c1.29.33,1.74,1.12,1.33,2.39-4.11,12.78-7.66,25.7-10.65,38.76-.07.29-.24.39-.52.28-5.13-1.87-10.42-3.08-15.87-3.62-.08,0-.15-.02-.23-.05-.6-.19-.93-.83-.74-1.42l12.26-39.23Zm-10.86,44.24l.04-.14c.06-.24.31-.38.55-.32l1.41.39c.24.06.38.31.32.55l-.04.15c-.02.06-.04.13-.05.19-5.84,21.2-11.02,38.17-11.56,37.91l-.21-.05s0,0,0,0c-.57-.16,3.7-17.48,9.54-38.68Zm-.48,24.37c1.74-5.84,3.82-14.27,6.14-21.21.29-.89.88-1.17,1.75-.84l6.6,2.46c.83.31,1.15.9.96,1.77-3.31,14.69-7.21,29.67-10.78,45.02-2.17,9.34-5.04,19.42-8.62,30.25-.04.13-.13.17-.26.14h-.01c-.13-.04-.18-.13-.15-.26,2.7-11.19,6.27-22.5,8.04-33.88.13-.86.07-.87-.18-.04-7.49,24.61-14.36,46.86-24.46,82.05-.05.17-.17.24-.34.23l-9.19-.63s-.03,0-.05,0c-.12-.03-.18-.15-.15-.26,9.75-35.15,20.3-69.93,30.7-104.79Zm-4.62,137.19c.07-3.51.96-6.83,2.93-9.41.9-1.18,1.38-1.03,1.44.45,2.28,57.76-2.95,114.68-15.68,170.76-7.6,33.47-16.32,67.54-29.04,99.35-.28.69-.39.67-.34-.08.13-1.67.34-3.31.63-4.92,2.17-11.75,4.75-23.41,7.74-34.97,7.04-27.19,13.1-52.06,18.95-82.08,2.98-15.3,5.59-34.62,7.06-46.58,3.59-29.28,5.7-60.12,6.31-92.52Zm-1.5-17.2c.29-.21.79-.01,1.11.43.32.45.35.98.05,1.19-.29.21-.79.01-1.11-.43s-.35-.98-.05-1.19Zm-.68-7.88c-1.24,3.67-1.91,3.57-2.02-.3-.01-.72.35-1.99,1.09-3.82,8.67-21.37,15.68-38.46,26.62-56.63,2.24-3.72,4.99-9.33,8.1-13.65.21-.3.63-.38.94-.18l.24.15c.17.11.21.26.12.45-3.94,7.75-8.56,15.94-12.11,23.11-5.27,10.66-10.4,21.39-15.38,32.18-3.19,6.91-5.72,13.14-7.6,18.69Zm11.85,7.57c2.44-11.31,4.73-22.34,6.86-33.07,1.86-9.38,5.33-20.34,10.18-28.62,3.83-6.55,7.4-13.27,11.69-19.39,3.46-4.92,6.64-9.85,10.21-14.91.06-.08.13-.15.23-.18.27-.12.59.01.7.28,1.13,2.58-5,9.95-6.98,12.46-3.15,4-5.57,9.63-7.25,16.89-5.57,24-10.78,48.04-16.87,71.93-.25.99-.82,1.23-1.7.7l-5.99-3.6c-.86-.52-1.29-1.52-1.08-2.49Zm17.62,4.02c5.43-26.36,10.93-52.7,16.51-79.02.39-1.86,1.09-3.83,2.08-5.9.32-.66,1-1.06,1.73-1.02,4.67.25,9.07,3.93,8.88,8.95-.09,2.57-.68,6.16-1.77,10.79-4.45,18.93-9,37.85-13.65,56.74-.28,1.14-.49,3.14-.62,5.99-.01.32.07.63.25.89,4.15,6.36,13.75-.03,13.96-5.66.9-23.41,1.95-40.33,3.14-50.75,1.52-13.31,2.9-27.25,4.14-41.8,0-.05.02-.1.04-.14.1-.2.35-.29.55-.19l.33.17c.5.25.83.76.85,1.33.15,4.83.16,8.45.03,10.88-.59,11.29-1.54,26.21-2.83,44.77-1.05,14.91-1.46,29.34-1.97,44.12-.02.63-.35.98-.98,1.04-2.28.21-3.87,1.59-4.76,4.14-1.44,4.13-2.66,8.33-3.65,12.6-.07.33-.26.41-.55.26-6.87-3.55-13.66-7.22-20.36-11.02-.59-.33-1.15-.72-1.68-1.16-.25-.2-.38-.51-.36-.82.11-1.77.34-3.5.69-5.19Zm27.7-96.74l.68,8.32c.01.11-.02.22-.09.31-.15.21-.44.25-.65.1l-3.41-2.5c-.06-.04-.1-.09-.14-.15-.19-.28-.12-.67.16-.86l1.46-.99c.26-.18.43-.47.45-.79l.23-3.88s0-.06.02-.09c.06-.14.21-.21.35-.15l.62.24c.18.07.31.24.32.44Zm-.09-14.45l.23-.23c.14-.14.28-.14.42,0l7.69,7.51c.07.07.14.15.19.24.29.5.11,1.15-.4,1.43l-.56.33s-.03.02-.05.03c-.45.22-.99.03-1.21-.42-1.61-3.27-3.71-6.19-6.31-8.74,0,0,0,0,0,0-.04-.04-.04-.1,0-.15Zm8.81,71.72c1.87-20.88,2.86-41.8,2.99-62.77,0-.33-.11-.62-.34-.85-3.38-3.43-6.85-6.79-10.42-10.07-1.1-1.01-2.15-.95-3.15.16-.25.27-.55.41-.91.42l-4.78.16c-.31.01-.62-.1-.86-.32-4.66-4.23-7.11-11.44-14.59-10.49-.53.07-.73-.16-.61-.67.86-3.84,1.3-10.03,4.69-12.44.27-.19.46-.44.58-.75,1.62-4.13,2.47-6.85,2.56-8.14.65-9.03,2.54-17.79,5.68-26.27,1.01-2.72,2.49-4.99,4.46-6.81.56-.52.85-1.26.8-2.02-.17-2.39.03-4.85.58-7.4,2.01-9.22,4.97-18.12,8.86-26.7,1.04-2.27,1.6-4.8.97-6.97-.83-2.81-3.52-5.24-1.66-8.72.3-.57.93-.9,1.57-.82,6.11.71,12.25,1.31,18.42,1.81,2.1.17,3.03.46,4.94-.62,2.09-1.19,4.78-2.49,8.05-3.92,16.86-7.36,34.11-13.67,51.74-18.93,4.57-1.37,8.78-2.22,12.64-2.57,2.14-.19,2.49.52,1.06,2.11-.92,1.02-2.32,1.86-4.2,2.52-18.39,6.47-35.47,13.61-51.24,21.41-1.55.77-3.07,2.02-4.58,3.75-.14.16-.12.3.05.42l.25.18c.22.15.51.12.69-.07,1.6-1.69,3.46-3.06,5.59-4.12,17.35-8.65,35.39-15.5,54.1-20.56.71-.19,1.37-.26,1.98-.21.03,0,.05,0,.08.01.42.08.7.49.62.91-.79,4.07-3.17,4.84-6.75,5.92-14.33,4.28-28.52,11.25-41.99,17.73-1.15.56-2.16,1.1-3.01,1.63-.5.31-.82.86-.83,1.46l-.7,31.32s0,.06,0,.09c.03.65.58,1.14,1.23,1.11l11.97-.51c.12,0,.24.02.35.07.34.17.48.58.3.92-2.59,5.18-10.85,3.24-11.95,7.37-2.64,9.86-5.89,16.05-8.94,24.21-.29.79-.71,1.46-1.26,2.03-.38.39-.54.32-.49-.23.4-4.1,1.23-8.31,1.32-12.22.37-15.85.35-33.33-.04-52.45,0-.12-.03-.24-.09-.34-.19-.35-.64-.48-1-.29l-.27.14c-.87.47-1.32,1.2-1.33,2.19-.34,20.9-.16,41.79.54,62.68.04,1.26-.45,2.48-1.36,3.35l-6.76,6.49c-.94.9-1.4.7-1.38-.61.29-25.76.68-51.08-.21-75.89-.01-.33-.21-.62-.5-.76-.63-.31-1.28-.49-1.96-.54-.54-.03-.81.22-.82.76l-2.15,179.56c0,.41-.21.59-.62.53-11.48-1.77-11.81,10.87-11.82,18.58,0,.23-.05.41-.14.52-.07.09-.16.16-.27.2-.21.07-.37,0-.47-.19-.25-.46-.61-.8-1.08-1.01-.03-.01-.07-.02-.1-.02-.15,0-.27.11-.28.26l-1.05,23.97c-.03.7-.6,1.26-1.3,1.26l-2.13.03s-.02,0-.03,0c-.53-.01-.95-.45-.94-.98.24-13,.48-25.34,1.7-38.99Zm7.5-196.76c4.25-2.4,9.95-5.05,17.1-7.94,17.92-7.24,36.27-13.96,55.21-18,.13-.03.21.02.24.14h0c.03.13-.01.21-.14.25-18.12,5.54-36.01,12.47-53.75,19.6-5.95,2.39-11.93,4.69-17.94,6.89-.33.13-.58.03-.73-.3l-.12-.25c-.07-.17-.03-.3.13-.39Zm145.73,85.42c.04,1.79,1.49,3.23,3.29,3.25,9.01.09,18-.07,26.97-.46,1.36-.06,2.4-.29,3.12-.7.81-.46,1.22-1.16,1.25-2.09l6.89-238.55c0-.12.04-.24.11-.34.2-.29.59-.36.87-.16l.29.21c.13.09.19.21.19.37.47,26.92-.75,53.87-1.19,80.79-.17,10.09-.88,21.7-.98,33.01-.12,13.23-.84,27.73-1.05,39.65-.5,28.29-1.29,56.57-2.38,84.84-.06,1.55-.24,2.87-.54,3.96-.24.88-1.03,1.5-1.94,1.53-10.37.38-20.56.5-30.56.36-2.07-.03-3.81.06-5.14-1.75-1.65-2.26-2.45-4.96-2.38-8.1.72-36.52,1.66-69.7,2.81-99.55.02-.57.3-.76.84-.55l.28.11c.67.26,1,.75.99,1.47-.48,26.39-1.05,52.57-1.71,78.52-.21,8.17-.22,16.23-.03,24.18Zm5.61-118.93s.04-.09.07-.13c.16-.23.48-.28.71-.12,5.73,4.15,11.06,8.77,15.97,13.88.43.45.65,1.07.61,1.69-.28,4.41-1.11,8.71-2.5,12.9-.13.4-.41.6-.84.61l-12.63.06c-.46,0-.72-.22-.78-.67-.63-4.33-.52-10.6,1.5-14.57,3.07-6.02-4.11-7.76-2.11-13.65Zm.22,33.5c0-.34.18-.51.52-.52l14.72-.14c.06,0,.12,0,.18.02.39.09.62.48.53.87-.54,2.21-1.51,4.19-2.91,5.96-.19.25-.29.52-.3.83-.1,3.42-.4,9.09-4.68,10.56-.21.07-.28.2-.21.41l.09.28c.07.21.22.31.45.29l1.36-.11c.41-.04.59.15.56.56-.67,7.07-1.21,13.26-3.26,17.6-.37.79-.82.84-1.35.14l-6.07-8.05c-.17-.23-.26-.5-.25-.79l.62-27.91Zm-.52,36.13c1.67,2.97,3.86,6.51,4.02,10.13.53,12.18,2.65,23.7,5.36,35.62.01.05.02.09.02.14,0,.36-.28.67-.65.67l-8.54.16s0,0-.01,0c-.52,0-.94-.42-.94-.94l.29-45.66c0-.61.15-.65.45-.12Zm89.27-74.43c-.46-.38-.71-.97-.65-1.56l1.21-11.86c0-.15-.08-.29-.22-.35-.19-.08-.41,0-.49.19-1.56,4.17-2.07,8.5-3.23,12.86-.08.27-.26.41-.55.42l-23.39.44c-.35,0-.52-.16-.51-.51.15-4.72,1.09-9.42,2.82-14.09,1.48-3.99,4.34-6.21,8.58-6.65,5.04-.53,15.08-1.05,30.13-1.56,9.21-.31,8.69,11.05,7.74,17.06-1.34,8.5-2.43,16.95-3.26,25.35-.02.21-.14.32-.35.32l-6.22.16c-.22,0-.32-.1-.29-.33,1.27-10.27-4.41-14.28-11.32-19.89Zm-1.5,17.23l5.04-.35c.46-.04.82-.39.86-.84.43-4.84.2-11.29-6.57-11.16-6.11.13-12.22.3-18.31.51-4.45.15-5.51,2.41-7.62,5.21-.61.83-.89.73-.83-.3l.36-5.71c.03-.44.25-.73.67-.86,1.52-.49,2.91-.77,4.16-.84,6-.35,12.99-.6,20.97-.74,1.75-.03,3.17.34,4.26,1.1,4.96,3.48,6.77,10.01,5.68,15.83-.11.57-.62.99-1.2.98l-29.15-.11c-1.21,0-1.95-.59-2.22-1.78-.58-2.55.45-8.64,4.17-8.79,5.91-.24,12.06-.38,18.43-.43.01,0,.02,0,.03,0,.31.02.55.28.53.58l-.25,6.75c-.03.69.3,1,.99.95Zm20.93-82.79c-3.36,13.52-3.63,25.88-4.69,39.12-.03.38-.34.68-.72.69l-29.26,1.1c-.52.02-.96-.39-.99-.91-.39-6.77.18-13.48,1.7-20.15,1.56-6.88,7.19-12.96,11.25-18.99.61-.9,1.37-2.62,2.21-3.84.2-.28.47-.44.8-.49,6.31-.95,12.07-1.35,17.27-1.18,2.99.09,3.01,2.3,2.43,4.65Zm-28.64.86c-9.96,11.57-12.99,25.23-11.81,40.33.03.35-.13.57-.48.66-4.83,1.12-7.93,4.1-9.3,8.93-.03.09-.09.15-.18.18l-.37.12c-.1.03-.14,0-.13-.11.47-3.36.71-5.48.74-6.36.41-10.92.87-21.84,1.4-32.75.21-4.35.76-8.63,1.63-12.84.13-.65.68-1.13,1.33-1.18l17.29-1.36s0,0,0,0c.59-.04,1.1.4,1.14.99.09,1.17-.33,2.3-1.27,3.39Zm32.73,210.62c6.93-.2,13.63.26,20.11,1.38,1.13.19,1.12.34-.02.45-28.06,2.59-56.55,4.61-84.95,5.17-29.55.58-59.09,1.04-88.64,1.37-3.02.04-7.21.45-7.42,4.51-.53,10.64-.59,21.34-.2,32.09,0,.28.12.56.32.77,1.07,1.15,2.01.95,2.82-.6.4-.77.89-2.51,1.48-5.23.65-3.01,1.97-5.6,3.95-7.77.28-.31.41-.26.39.16-.17,3.63-.48,7.27-.91,10.9-.81,6.76-2.26,10.34-10.25,8.78-.31-.06-.51-.25-.58-.56-.37-1.52-.55-2.63-.54-3.32.2-18.25.55-31.13,1.04-38.64.36-5.44,5.72-5.79,10.15-5.83,30.04-.28,60.23-.16,90.25-1.42,20.99-.87,41.99-1.61,63-2.21Zm67.24,33.85c-1.74-1.27-3.65-1.6-5.74-1-.33.09-.62.04-.89-.17-.48-.37-.75-.89-.8-1.56-.05-.57-.55-.99-1.12-.95-12.36.83-25.11-.67-37.48-1.27-.07,0-.11-.04-.12-.11l-.04-.31c-.02-.19.06-.28.25-.29,12.67-.45,25.32-.05,37.95,1.19,2.99.29,9.49-.11,19.52-1.21.59-.06,1.07-.49,1.21-1.06l.08-.33c.02-.09.03-.18.04-.27.05-.87-.6-1.61-1.47-1.66-6.41-.39-12.24-1.03-17.51-1.9,8.88.06,17.53.75,26.59.86,7.87.09,15.72.62,23.55,1.58,5.56.68,10.47,8.25,13.87,12.13.37.42.4.87.11,1.34l-1.52,2.41c-.28.45-.6.48-.96.08-2.55-2.85-5.16-5.81-7.83-8.89-3.54-4.09-12.87-4.65-18.03-4.93-.33-.01-.67.06-.96.21-10.02,5.32-20.63,6.97-30.75,11.65-1.76.81-4.11,2.29-7.05,4.44-5.33,3.91-11.13,7-17.4,9.27-14.55,5.27-28.17,10.23-39.6,19.59-3.46,2.84-6.21,4.88-8.26,6.11-8.51,5.13-17.35,9.58-26.53,13.37-3.46,1.43-8.27,1.45-11.23,3.7-8.47,6.43-13.94,10.74-16.41,12.93-3.59,3.18-6.16,4.82-11,6.18-6.04,1.69-12.11,3.26-18.2,4.73-4.63,1.11-8.57.37-13.17.36-3.03,0-5.59-.08-7.67-.22-16.93-1.18-33.82-2.84-50.67-4.99-7.85-1.01-15.7-1.83-23.57-2.47-.12-.01-.17-.08-.16-.2l.02-.27c.03-.3.19-.44.48-.41,8.5.71,17,1.52,25.51,2.42,6.98.75,13.97,1.4,20.97,1.96,11.72.94,25.96,2.45,39.13,3.2,2.21.13,3.42-.91,3.63-3.12l.11-1.16c.19-1.97-.7-2.85-2.67-2.63-2.67.29-4.99.37-6.95.24-22.68-1.59-45.25-3.16-67.88-5.47-3.52-.36-7.05-.36-10.53-.36-.43,0-.46-.09-.07-.28,3.61-1.74,6.16-3.47,7.63-5.2.22-.25.5-.37.83-.35,3.84.22,7.67-.69,11.1-.62,8.27.17,16.52.71,24.74,1.6,3.98.43,8.15.53,11.9.94,5.65.61,11.3,1.08,16.97,1.41,8.82.52,19.43,2.04,29.25,2.13,2.47.02,4.76-.6,7.07-1.28.35-.11.66-.06.93.14.02.02.04.04.06.06.12.15.1.36-.04.47-1.85,1.51-3.52,1.99-6.06,2.03-6.15.11-10.28,0-12.4-.29-5.55-.8-12.16-.99-16.66-1.42-19.25-1.85-38.57-3.72-57.87-4.82-2.15-.12-4.57.32-6.95.14-.29-.02-.36.1-.23.35.13.27.34.41.63.43,4.05.32,8.44,1.16,12.03,1.5,10.3.97,20.61,1.82,30.93,2.54,19.02,1.32,38.52,5.42,56.86,2.48,3.22-.51,5.87-2.6,7.96-6.25.04-.07.06-.15.06-.23,0-.27-.21-.48-.48-.48l-3.88.06c-.45,0-.87.23-1.11.62l-.86,1.39c-.2.33-.49.49-.88.5-2.18.04-3.65-1.18-5.53-1.44-23.58-3.2-39.66-4.72-64.35-6.51-5.29-.39-13.69-1.56-20.65-1.62-.45,0-.48-.13-.11-.37,3.51-2.27,7.88-3.22,13.09-2.85,15.71,1.11,31.39,2.22,47.04,4.06,9.57,1.12,19.24,1.72,28.74,2.72,6.53.69,10.89.97,13.09.86,2.39-.13,4.4-1.22,6.03-3.27.06-.07.09-.17.08-.26-.02-.19-.2-.33-.39-.31-3.69.3-7.94-.41-10.93-.49-20.51-.55-35.62-1.17-53.79-2.76-.15-.01-.21-.09-.2-.23h0c0-.16.08-.23.23-.22,13.25.51,23.71.86,39.75,1.15,7.07.13,14.12.54,21.16,1.25.29.03.58.01.87-.06.53-.13.82-.2.86-.21,1.56-.64,1.51-1.09-.16-1.36-5.58-.87-10.78-1.35-16.87-1.39-6.58-.03-11.08-.2-13.51-.51-12.49-1.59-27.18-2.57-37.52-3.48-5.65-.51-11.35-.97-17.11-1.4-.72-.05-.91-.4-.56-1.03.29-.53,1.1-.82,2.45-.89,19.46-.95,40.64,2.25,57.35,3.9.07,0,4.5.29,13.29.86,6.73.44,13.24,2.05,19.97,2.46.13,0,.26.04.38.09.6.24.89.92.64,1.51-.47,1.17-1.2,2.14-2.18,2.92-.03.03-.04.06-.03.09.03.09.06.17.09.24.03.06.08.07.13.04,3.64-2.15,6.03-3.31,10.34-3.52.69-.03,1.29-.5,1.48-1.17.6-2.11-1.8-2.77-3.42-2.59-.35.03-.53-.12-.54-.47-.05-1.27.26-2.45.93-3.52.04-.06.06-.13.06-.2,0-.23-.17-.43-.4-.44-8.02-.18-15.96-.69-23.83-1.52-5.39-.57-10.79-1.13-16.19-1.69-14.36-1.49-28.86-2.03-43.77-3.35-.95-.09-1.06-.44-.33-1.05l.84-.71c.71-.59,1.53-.87,2.46-.82,16.07.76,31.86,2.02,47.39,3.78,7.18.82,15.58,1.32,23.35,2.33,1.93.25,4.26.48,6.99.69,3.38.25,6.99,1.1,10.35.58,1.03-.16,2.14-.18,3.31-.06,5.29.56,9.93-1.02,13.9-4.74.09-.08.14-.19.16-.31.05-.3-.15-.58-.45-.63-5.57-.84-8.29,2.89-12.93,5.15-.7.35-1.1.13-1.2-.65-.02-.16.17-.46.56-.89.83-.92,1.76-1.74,2.78-2.47.28-.2.25-.33-.09-.4-12.16-2.37-24.84-3.26-36.51-4.92-14.86-2.11-28.93-1.47-43.48-2.47-.54-.04-1.14-.33-1.44-.67-.09-.11-.15-.25-.16-.4-.02-.38.27-.71.65-.73,2.51-.17,4.77-.19,6.79-.08,8.33.46,16.66.74,25,.83,7.41.09,18.38,1.03,32.89,2.83.93.11,2.03.19,3.3.22,5.3.12,10.52.72,15.82.56,5.38-.17,11.48.48,17.24-.12,1.89-.19,3.52-.92,4.91-2.17.06-.06.11-.13.15-.21.13-.3-.02-.65-.32-.77l-1.75-.73c-.38-.16-.67-.42-.87-.79l-.53-.98c-.51-.95-.23-1.44.86-1.45,4.64-.04,8.59.89,12.98-1.22.35-.17.34-.23-.05-.19-3.56.39-6.44.51-8.63.36-9.54-.66-19.09-1.12-28.64-1.38-10.24-.28-26.43-1.76-48.56-4.45-.04,0-.08-.02-.12-.03-.2-.09-.28-.32-.19-.52l.14-.3c.24-.51.64-.75,1.19-.72,25.34,1.35,50.06,3.12,74.17,5.3,3.01.27,6.02.6,9.02,1.01,3,.4,5.9-.92,8.7-3.96.68-.75.53-1.23-.46-1.45-10.18-2.3-21.34-2.25-31.76-2.8-14.3-.74-28.9-2.31-43.38-3.3-.27-.02-.51-.2-.59-.46-.03-.08.02-.18.15-.3.07-.07.16-.11.27-.14,1.37-.35,2.98-.48,4.81-.41,16.8.69,31.83,1.45,45.1,2.29,8.26.52,16.97,1.89,25.49,2.83,4.32.48,8.31-.21,12.59-.72.28-.03.53-.17.72-.38.41-.47.37-1.18-.1-1.59-1.82-1.63-3.95-2.33-6.56-2.45-11.96-.56-25.47-2.24-35.66-2.94-8.26-.57-16.55-1.15-24.88-1.72-.19,0-.26-.1-.21-.28l.11-.43c.05-.18.16-.27.35-.28,9.91-.07,19.77.25,29.58.96,17.13,1.22,28.03,1.82,42.06,2.59.31.01.57.13.78.35.95.94,1.9.49,2.94.45,5.76-.21,10.4-2.72,13.93-7.52.06-.08.1-.17.11-.27.04-.32-.18-.61-.5-.65-14.58-1.83-29.22-2.86-43.84-4.21-4.22-.39-9.97-.34-14.05-1.06-4.95-.87-4.91-1.25.11-1.12,18.17.47,36.95,1.45,56.36,2.92,4.78.36,9.49-.14,14.33.14,2.12.13,4.16-.32,6.11-1.35.13-.07.25-.17.33-.29.33-.45.23-1.07-.21-1.39Zm33.09-27.27c0-.4.31-.73.7-.73h.1s0,0,0,0c.4,0,.73.31.73.7l.23,11.22h0c0,.4-.31.73-.7.73h-.1s0,0,0,0c-.4,0-.73-.31-.73-.7l-.23-11.22Zm5.93,11.63l.45-13.91c0-.15.11-.27.25-.31l.91-.22s.04,0,.06,0c.18-.01.34.13.35.31l1.13,14.4s0,.05,0,.07c-.02.18-.19.31-.37.29l-2.49-.29c-.17-.02-.29-.16-.29-.33Zm7-.41l.18-15.07s0-.08,0-.12c.07-.59.61-1.01,1.21-.94l.29.04c.22.03.4.21.41.44l.85,15.76c.04.69-.29,1.02-.98.97l-1.03-.07c-.53-.03-.95-.48-.94-1.01Zm8.77-18.11h0c.08,0,.15.06.16.14l1.28,25.33s0,0,0,0c0,.08-.06.15-.14.16,0,0,0,0,0,0-1.35.07-2.73-5.56-3.09-12.56v-.26c-.36-7,.44-12.73,1.79-12.81Zm3.54,118.52l.04.3c.03.19-.01.35-.14.48-.37.39-.82.51-1.34.37-.34-.09-.54-.31-.59-.65-.79-4.94-2.46-11.19,5.42-10.63.73.05,1.37.52,1.65,1.21.87,2.22,1.09,4.51.66,6.87-.06.33-.25.53-.58.59l-4.76.94c-.29.06-.41.23-.36.52Zm.81-13.33h0c0,.47-.39.85-.86.84-5.77-.11-12.03-.96-17.62-.17-.08.01-.17,0-.24-.04-.22-.1-.32-.36-.22-.58.13-.27.4-.44.81-.51,5.27-.95,10.94-1.35,16.99-1.2.76.02,1.14.41,1.14,1.17v.49Zm-22.56,4.01c-.04.14-.17.23-.31.21l-.25-.03c-.11-.02-.15-.08-.14-.19.2-1.92.24-3.74.68-5.65,1.91-8.09,2.2-16.88,1.05-25.1-.01-.1.03-.16.13-.18.1-.02.16.02.19.12,2.27,9.62,1.07,21.31-1.35,30.82Zm1.73,6.19c-.02.12-.14.2-.26.17-.87-.19-1.41-.69-1.63-1.5-.02-.09,0-.19.07-.25.11-.11.28-.11.39,0l1.37,1.38c.05.06.07.13.06.21Zm-9.21,5.57c.01.35-.09.65-.32.91l-5.69,6.75c-.05.06-.11.11-.18.14-.28.14-.61.03-.75-.25l-.15-.3c-.17-.36-.09-.79.2-1.06,2.16-2.01,5.24-4.88,5.73-7.9.34-2.13.62-3.47.83-4.02,1.12-2.99,2.39-5.75,3.08-8.81,2.38-10.58,3.52-20.9,1.67-31.41-.15-.84.2-1.57.15-2.24-.38-5.28-6.85-13.73-11.02-16.79-7.07-5.18-14.24-3.47-19.45,3.17-6.89,8.78-9.76,22.06-9.97,32.92-.2,10.63,2.34,32.83,16.49,34.42.57.07,1.07-.09,1.48-.47.36-.33.31-.58-.16-.73-2.06-.66-3.69-1.37-4.51-3.8-.11-.29-.03-.35.23-.18,8.59,5.86,16.74-2.76,20.22-9.78.24-.49.18-.52-.17-.11-3.1,3.67-8.81,12.39-14.44,7.16-7.61-7.06-9.34-14.14-11.28-23.34-.03-.15-.1-.29-.2-.41-.33-.39-.91-.43-1.3-.1l-.37.32c-.25.22-.42.49-.5.82l-.53,2.17c-.17.71-.39.73-.64.04-1.55-4.1-2.14-10.8-.12-15.15.19-.39.48-.51.88-.36,1.41.55,2.37,1.52,2.88,2.9.02.06.07.12.13.15.14.07.31.02.38-.12.71-1.38,1.37-2.8,2-4.25,1.17-2.69.98-6.15,3.62-8.41,2.05-1.74,4.03-3.55,5.94-5.44,6.4-6.3,9.76-3.86,14.5,2.52,4.1,5.52,5.08,11.2,4.95,18.51-.2,10.59-2.62,20-5.59,30.04-.21.71-.51,1.3-.92,1.79-4.66,5.64-10.39,8.35-17.19,8.14-9-.29-15.62-9.46-18.01-18.21-4.95-18.09-2.59-39.07,10.08-53.66,4.26-4.89,9.49-7.47,16.1-6.17,9.09,1.78,14.31,8.49,17.23,17,1.68,4.91,1.43,11.18,1.62,16.57.43,12-1.8,23.45-6.69,34.34-.21.47-.29,1.37-.24,2.69Zm-17.58-60.92l4.94,1.08c.45.1.48.28.1.54-1.79,1.26-3.54,2.56-5.25,3.89-.22.18-.49.26-.8.24-.31-.01-.57.1-.78.33-4.18,4.56-4.5,7.93-5.84,13.18-.16.63-.7,1.4-1.63,2.3-.03.03-.06.05-.09.07-.24.14-.54.07-.68-.16-.66-1.07-1.59-1.56-2.79-1.46-.37.03-.54-.15-.49-.52.98-7.65,7.28-24.53,17.17-24.35,3.31.05,9.65,2.01,10.65,5.77l1.52,2c.15.2.11.24-.11.12-.81-.44-1.28-1.15-1.41-2.12-3.64-2.92-7.64-4.17-11.99-3.75-.74.07-1.42.43-1.89,1l-.89,1.06c-.34.41-.25.67.26.78Zm9.95,1.5c.75-.13,1.48.03,2.19.47,4.37,2.69,7.41,6.55,9.11,11.57.04.14-.02.29-.15.34l-.41.18c-.15.07-.27.02-.35-.13-2.36-4.6-5.7-9.98-10.41-12.32-.1-.05-.09-.09.02-.11Zm-76.46,68.9c-.97-.12-2.09-.37-3.35-.74-.48-.15-.47-.26.02-.35,1.91-.32,3.93-.47,6.08-.44,14.5.2,28.92,1.37,43.27,3.5,1.11.16,2.01.54,2.72,1.14.12.11.2.26.22.42.04.37-.22.7-.58.75-2.67.29-5.29.31-7.87.07-13.53-1.23-27.03-2.68-40.51-4.35Zm4.82,8.23c-9.72,2.31-20.24,4.05-31.56,5.23-2.8.29-5.48.13-8.03-.49-.65-.16-.73-.46-.22-.91.27-.23.76-.41,1.46-.52,12.9-2.2,25.37-4.75,38.25-4.34,2.63.08,2.67.42.1,1.03Zm-240.74,43.09c7.36,1.81,15.13,3.12,22.14,5.33.89.29.91.62.05.99-4.79,2.08-7.92,1.49-14.02.7-8.33-1.07-16.55-2.18-24.66-3.33-.05,0-.09-.02-.14-.03-.49-.15-.77-.67-.62-1.16l7.32-24.44c.02-.09.07-.17.12-.24.23-.28.64-.31.92-.08,2.07,1.69,4.14,2.61,6.92,3.21,12.3,2.63,24.65,4.82,37.04,6.58.04,0,.09.02.12.05.13.09.17.27.08.4-2.39,3.54-4.27,7.35-5.65,11.43-.3.88-1.18,1.41-2.1,1.26-7.78-1.27-15.14-2.38-22.08-3.33-2.44-.34-4.36.16-5.75,1.51-.6.57-.5.95.31,1.15Zm-26.69-12.92c-.06-.17-.19-.3-.36-.37-.31-.12-.65.03-.76.34l-7.53,19.89c-.18.47-.6.8-1.1.87l-4.66.59s-.08,0-.13,0c-.36-.02-.64-.34-.61-.7,1.13-13.92,2.02-26.66,3.64-41.45,1.34-12.24,2.29-24.51,2.84-36.82.27-6.03-2.78-15.76,2.17-20.2.26-.23.57-.34.92-.33,1.49.06,2.76.6,3.81,1.62.28.27.24.46-.13.57-6.02,1.79-6.45,8.05-4.72,12.76.6,2.93,2.66,5.5,6.17,6.03.09.03.19.05.28.08.86.32,1.83.51,2.93.51,4.83,0,7.4-3.53,7.7-7.27.31-.81.99-1.29,2.07-1.41,11.91-1.31,23.82-2.65,35.73-4.02,3.11-.35,6.07-.6,8.89-.73,2.24-.11,2.29.18.16.88-16.66,5.41-32.07,9.01-45.44,22.48-.74.74-.92,2.12-.54,4.13.93,4.95,2.32,11.3,1.73,16.28-.05.37-.26.6-.63.67l-8.94,1.8c-.59.12-.92.48-.97,1.09l-.12,1.53c-.04.44.13.54.5.3,1.31-.83,2.74-1.14,4.29-.93.1.01.19.04.27.09.38.21.53.68.32,1.06-1.35,2.47-2.57,4.9-3.66,7.29-1.98,4.34,3.31,6.91,5.88,8.28.91.49,1.37,1.53,1.13,2.53l-.1.41s-.02.08-.04.12c-.21.58-.85.87-1.42.66l-3.12-1.14c-.38-.14-.46-.04-.24.29,1.76,2.66,2.15,4.87,1.16,6.63-.2.34-.61.49-.98.34-2.15-.88-5.63-2.46-6.39-4.76Zm1.96,31.3l-.09.24c-.18.51-.73.8-1.26.66-5.81-1.55-11.72-2-17.72-1.33-.73.08-1.08-.25-1.03-.99l.21-2.99c.04-.65.39-.96,1.04-.94,6.31.17,12.39,1.47,18.22,3.9.67.28.88.76.63,1.45Zm.47-187.78c-.05-.42.07-.47.35-.16,8.02,9,21.06,5.64,26.82-3.45.86-1.35,1.48-3.28,2.21-4.91.14-.31.37-.54.68-.69,4.8-2.27,9.18-4.74,11.43-9.78,1.4-3.15,1.1-7.49,1.18-11.13,0-.32.25-.58.57-.62,6.35-.67,10.26-3.84,14.77-8.56,2.38-2.5,4.47-3.01,7.69-3.48.89-.13,1.57-.89,1.59-1.79.21-8,.38-16.2.52-24.6.02-1.06-.11-2.09-.4-3.08-.09-.31-.29-.5-.62-.55l-2.37-.36c-.05,0-.1-.02-.15-.04-.31-.14-.45-.5-.31-.81,3.37-7.71,7.74-14.8,13.11-21.28.05-.06.12-.1.19-.12.19-.04.38.08.42.27.35,1.74.53,3.56.52,5.47-.08,19.31-.57,32.27.24,42.72.03.35.19.44.5.28l9.95-5.1c1.27-.65,2.06-1.97,2.05-3.4-.2-19.62-.14-39.2.17-58.75.02-1.48.88-3.65,2.59-6.5.14-.23.22-.21.24.06,1.18,19.46.72,38.95.7,58.44,0,5.19.34,10.35,1.03,15.48.01.11.08.16.19.13.13-.04.19-.09.19-.15.91-17.35.6-34.6.59-51.96,0-9.96.31-18.46.95-25.5.12-1.33.62-2.86,1.5-4.61.15-.31.38-.54.68-.7,2.64-1.37,5.44-2.24,8.41-2.63.33-.05.49.1.5.43.31,14.67.4,29.17.28,43.51-.02,1.82.37,4.24.36,6.33-.05,12.31-.26,24.61-.61,36.92-.07,2.35-.26,4.64-.57,6.86-.08.57-.35,1.02-.81,1.37-4.28,3.25-9.35,6.46-13.23,9.35-4.63,3.45-9.2,6.91-13.73,10.39-2.81,2.15-2.65,2.39.47.72,5.57-3,11.96-6.29,19.17-9.86,2.44-1.21,4.73-2.59,6.86-4.14.44-.31.65-.2.64.33l-.24,15.62c0,.32-.26.58-.58.58-6.67.1-17.58-.39-22.67,2.45-3.5,1.95-5.33,5.31-5.5,10.08-.47,13.25-.57,26.51-.32,39.76.07,3.85,1.73,6.15,4.98,6.92,2.3.55,6.95-.67,9.01-1.51,2.43-.99,4.09-2.8,5-5.41,1.92-5.58,4.07-15.08,7.46-23.35.13-.33.37-.49.72-.5l29.04-.66c.13,0,.2.06.2.2v.25c.01.15-.06.23-.21.24-6.93.45-13.83,1.18-20.7,2.19-1.47.22-2.55.47-3.22.74-1.26.52-1.19.79.2.8l33.44.39c.15,0,.22.07.23.22,0,.12-.05.18-.16.19-13.63,1.27-23.05,1.87-33.2,4.65-1.62.45-1.59.66.09.64,12.07-.11,24.53-1.29,36.71-.33,1.99.16,1.99.31,0,.45-9.81.68-19.83,1.8-30.06,3.36-3.36.51-6.71,1.53-10.11,2.31-.17.04-.27.2-.25.36l.04.25s.03.05.06.05c1.71-.14,3.42-.22,5.14-.24,2.23-.02,3.95-.07,5.14-.15,12.71-.83,25.44-1.41,38.18-1.75,1.09-.03,3.07.06,5.92.25.17.01.28.07.33.18.01.03.02.07.02.11,0,.07-.04.12-.13.14-9.29,1.73-19.26,1.97-28.69,2.72-9.67.77-18.42,2.48-27.61,4.4-.01,0-.02,0-.04,0-.22.07-.34.29-.27.51l.08.26c.03.11.1.16.21.15,14.75-.73,30.4-2.48,45.69-2.83,5.96-.13,11.85-.49,17.75.34,1.55.22,1.55.39-.02.52-11.41.93-23.15,1.91-35.24,2.94-9.68.83-19.68,1.98-29.05,4.59-1.05.29-1.04.49.05.6.71.07,1.71.04,3-.07,8.69-.72,17.39-1.39,26.08-2.01,5.26-.37,13.04-1.6,19.67-1.61,1.23,0,2.26.18,3.11.55.13.06.21.19.21.33,0,.2-.16.35-.35.35-1.87-.02-3.7-.04-5.59.29-7.23,1.27-14.45,2.53-21.67,3.78-8.5,1.47-14.9,2.78-19.21,3.91-4.61,1.21-8.96,2.8-13.04,4.77-.01,0-.02.02-.01.03s.02.02.03.01c11.79-2.47,23.68-4.31,35.65-5.51.64-.06.66.02.05.23-3.2,1.11-6.49,2.06-9.88,2.83-12.65,2.89-25.19,6.19-37.74,9.49-.13.03-.18.12-.15.25h0c.03.15.14.2.35.17,8.84-1.49,17.74-2.39,26.69-2.7.18,0,.19.03.02.1-4.87,2.05-9.88,3.39-14.77,5.55-5.72,2.53-11.64,4.49-17.76,5.87-.05.01-.08.05-.08.1,0,.1.03.19.07.26.04.07.1.11.19.11,3.08-.14,6.13.08,9.14.66.4.08.41.19.02.32-5.74,1.99-11.23,4.3-17.2,5.38-22.75,4.09-42.32,6.24-63.76,9.16-.33.04-.65-.1-.83-.38l-6.44-9.83c-.57-.87-.87-1.9-.86-2.94.35-22.63.55-45.36.6-68.19,0-1.72-.27-3.5-.47-5.3Zm46.73-59.12c-.11-.19-.28-.32-.52-.37-.34-.08-.59-.37-.63-.71-.31-2.3-.24-4.59.23-6.87.03-.15.09-.28.18-.41.34-.47.99-.58,1.46-.24l6.43,4.54s.04.03.07.05c.54.44.62,1.22.18,1.75-4.25,5.23-7.47,12.32-10.14,16.84-2.31,3.91-4.52,7.62-6.31,11.82-1.34,3.15-3.78,5.42-6.5,7.94-.75.68-1.96,2.84-2.3,3.08-2.42,1.75-2.93,1.31-1.54-1.34,2.56-4.86,4.94-10.07,7.84-14.88,4.01-6.62,7.86-13.33,11.55-20.14.19-.35.19-.71,0-1.06Zm-2.35,21.11l4.37-6.76c.07-.1.15-.19.25-.26.41-.27.96-.17,1.24.24l1.35,2.02c.22.34.19.78-.08,1.08l-3.03,3.41c-.07.09-.16.16-.26.21l-2.7,1.34c-.28.14-.61.12-.87-.05-.41-.27-.53-.82-.27-1.23Zm6.74-10.79s-.06-.04-.09-.07c-.27-.23-.3-.63-.07-.89,4.28-4.97,8.87-9.6,10.45-16.21.19-.76.38-.76.57-.01.43,1.64.11,3.29-.96,4.96-2.03,3.14-4.25,7.62-6.66,13.44-.15.37-.4.46-.75.25l-2.49-1.47Zm5.46-18.69c-2.83-2.41-5.97-4.31-9.42-5.69-1.08-.43-1.13-.95-.14-1.57l.9-.55c.95-.59,1.85-.53,2.72.17,2.71,2.19,5.7,3.35,6.75,7.12.3,1.06.03,1.23-.81.52Zm-26.56-18.44c-1.14.59-1.92,1.8-2.59,2.69-1.27,1.68-1.87,1.47-1.8-.64l.8-22.14c.01-.28.22-.51.5-.54l.47-.05s.03,0,.04,0c.17,0,.31.14.31.31l.1,17.62c0,.25.09.29.27.12,4.54-4.15,13.97-8.28,23.67-12.47,1.02-.44,1.54-.11,1.56,1v.4c.02,1.21-.66,2.32-1.74,2.84-7.44,3.59-14.64,7.21-21.59,10.86Zm12.92,16.43c.3-.2.6-.2.91-.01l1.46.92s.07.05.1.08c.15.18.13.45-.05.61-.7.59-1.25,1.1-1.61,1.92-1.61,3.71-4.06,6.76-7.35,9.17-.27.2-.44.14-.53-.19-1.45-5.49,2.97-9.74,7.07-12.5Zm-3.8,17.01c1.02-1.32,1.1-1.27.23.16-5.05,8.31-10.13,16.92-15.26,25.83-.94,1.63-1.73,3.33-2.37,5.1-1.26,3.45,1.46,6.28,4.79,6.5,3.54.23,7.37-6.36,8.67-9.23.27-.6.75-.99,1.45-1.17.31-.08.46.04.47.35.03,5.96-3.53,7.55-7.95,10.07-4.07,2.31-7.95,1.79-9.75-3.06-.73-1.95-.33-3.47.78-5.35,7.56-12.86,11.93-20.2,18.94-29.2Zm-12.03,3.69c-3.56,6.95-6.56,12.39-9,16.32-2.26,3.63-6.71,5.75-8.84,8.17-4.95,5.62-5.65,15.37.75,20.32,2.84,2.2,9.17,2.71,11.25-1.18.2-.38.09-.62-.32-.72l-2.67-.68c-.33-.09-.5-.3-.5-.65,0-.37.09-.67.29-.9.17-.19.43-.31.78-.34,1.02-.09,2.03,0,3.02.27.31.08.49.27.55.58.27,1.24-.03,2.33-.9,3.26-3.67,3.96-10.2,5.15-14.43,1.28-5.58-5.11-5.59-11.96-3.22-18.35,2.9-7.84,10.56-8.43,14.14-15.2,2.21-4.18,4.47-8.34,6.79-12.47,1.54-2.75,2.48-4.8,2.83-6.13.9-3.48,1.34-3.42,1.33.17,0,1.77-.62,3.86-1.85,6.25Zm-12.72,41.2c.1.1.11.2.02.31h-.01c-.09.11-.19.12-.3.05-3.36-2.28-6.37-9.4-2.31-12.41.66-.49.91-.33.75.48-.89,4.3-1.63,8.21,1.85,11.57Zm84.39-134.04l-.22.16c-.23.17-.43.15-.61-.07-2.47-2.99-4.58-3.35-7.32-5.06-.09-.05-.15-.13-.17-.23-.06-.21.07-.42.27-.48,2.88-.84,7.01,2.76,8.23,4.71.2.32.12.75-.18.97Zm.41,8.31l.64-1.91c.55-1.63,1.54-2.92,2.99-3.86,4.24-2.76,6.66.68,6.03,4.78-.1.68-.49,1.08-1.16,1.2l-7.19,1.31c-1.29.23-1.73-.27-1.31-1.52Zm-5.08.53l.28.15c.17.09.21.21.12.37-1.37,2.59-2.68,5.24-3.93,7.95-2.86,6.24-6.77,12.07-10.38,17.89-.41.65-.92,1.14-1.52,1.47-.25.13-.31.07-.18-.18l15.19-27.52c.09-.15.27-.21.42-.13Zm1.32,139.6c-.86.04-2.09.25-3.68.63-.05.01-.11.02-.17.01-.26-.03-.44-.26-.41-.52l.46-4.8c.03-.4.25-.64.65-.71.45-.08.92-.12,1.4-.13,23.83-.41,47.66-.56,71.49-1.12,8.82-.21,19.49-.26,32.01-.13,1.58.01,2.48.61,2.7,1.79.67,3.61,1.13,7.66,1.37,12.14,0,.01,0,.02,0,.03.03.24.25.4.48.37l.45-.07c.49-.07.75-.35.78-.84l.89-13.68c.01-.25.15-.39.4-.4l12.67-.64c.29-.01.42.12.37.41-.67,4.11-.77,10.42-2.4,14.08-.14.31-.36.56-.65.73-4.51,2.57-9.22,4.65-14.13,6.24-.94.3-1.45-.04-1.54-1.02l-1.26-14.51c-.1-1.13-1.07-1.99-2.2-1.94-33.35,1.25-66.58,2.61-99.68,4.08Zm111.75,46.66c-3.79-.14-8.03-.81-12.01-.99-8.46-.39-16.97-1.9-25.18-2.1-3.81-.1-7.61-.23-11.4-.38-.03,0-.04-.02-.04-.05,0-.03,0-.05,0-.07,0,.02,0,.03.02.03,4.48.28,9.16-.71,13.14-.51,7.98.42,15.73,1.59,23.81,2.05,5,.28,10.08.98,14.89,1.11,9.42.27,18.85.63,28.29,1.1.11,0,.17.06.16.17v.27c-.02.17-.1.25-.27.24-15.13-.36-25.6-.65-31.41-.87Zm24.83,5.86h0c-.01.14-.09.21-.23.2-12.4-.61-24.88-.98-37.09-2.43-6.37-.75-12.74-1.54-19.11-2.35-4.5-.58-9.03-.23-13.58-.8-3.38-.42-6.87-.66-10.46-.73-1.63-.03-1.78-.51-.43-1.44.44-.31,1.38-.41,2.82-.3,9.8.71,18.83,1.35,29.3,2.57,15.59,1.81,31.72,2.66,48.6,5.04.13.02.19.1.18.24Zm-202.19,68.76c13.13.39,25.84,2.88,38.86,4.19,15.75,1.58,31.5,4.24,47.23,6.16.44.05.5.24.19.55-1.22,1.22-2.94,1.67-5.17,1.35-26.95-3.81-53.87-8.17-80.93-11.14-.34-.04-.5-.23-.48-.58l.02-.27c.01-.15.13-.26.28-.26Zm-23.9,53.49c.22-.27.6-.36.92-.2,5.31,2.7,10.86,2.88,16.66,3.29.21.01.31.13.29.34l-.02.27c0,.09-.05.12-.14.11-5.1-.43-9.7-.91-14.81-.24-.83.11-1.52.69-1.77,1.5l-1.16,3.78c-.12.4-.39.61-.81.64l-1.4.07c-.53.03-.81-.23-.82-.76-.07-3.31.95-6.24,3.06-8.8Zm28.51-33.78c-4.63-.39-9.22-1.09-13.76-2.1-.53-.12-.93-.3-1.18-.54-.39-.37-.32-.52.22-.45l48.76,6.67c.57.08.61.27.12.57-.5.3-1.06.43-1.67.39-11.4-.76-24.48-3.86-32.49-4.54Zm-12.95-9.66s-.07-.02-.1-.04c-.11-.07-.14-.22-.07-.32l3.45-5.37c.12-.19.29-.26.5-.21,8.14,1.84,17.8,2.72,23.96,3.61,19.61,2.83,40.66,5.79,63.13,8.88.07,0,.13.03.19.06.32.16.44.54.29.86l-1.19,2.36c-.35.69-1.09,1.09-1.86,1l-88.3-10.83Zm80.24,17.14c.3-.07.62-.05.91.05.83.3,1.26,1.22.96,2.05-.15.42.01,1.05.48,1.88.73,1.31,1.32,2.69,1.79,4.15.1.33.06.63-.12.92-1.48,2.3-5.17,3.61-7.72,4.06,0,0,0,0,0,0-.21.03-.41-.12-.44-.33-.72-4.38-1.64-11.42,4.15-12.78Zm4.12-1.38c-.2-.44-.09-.54.33-.31l.52.29c.19.1.36.09.52-.04,2.27-1.73,4.15-3.77,5.64-6.11,2.94-4.59,5.54-8.21,8.27-12.55.12-.18.17-.4.16-.62-.02-.59-.52-1.05-1.11-1.02-1.58.07-3.03.34-4.67.13-27.84-3.59-55.78-7.2-83.81-10.83-.13-.02-.25-.08-.35-.17-.22-.23-.22-.6,0-.82l8.33-8.37s.03-.03.05-.04c.16-.12.39-.08.5.08,2.17,3.01,6.12,3.45,9.46,3.88,17.79,2.31,35.57,4.65,53.35,7.02,6.46.86,12.8,2.05,19.03,3.58.56.13,1-.03,1.33-.49.86-1.19,1.24-2.54,1.15-4.03-.02-.36-.21-.56-.56-.6l-78.01-9.69s0,0,0,0c-.16-.02-.28-.17-.26-.33l.03-.29c.04-.33.22-.48.55-.45,7.5.67,14.98,1.5,22.45,2.48,5.92.77,11.05,1.38,15.4,1.83,13.16,1.33,23.3,3.19,35.03,4.08,2.68.21,5.27.75,7.78,1.63,1.84.64,3.21,2.16,5.4,2.74.39.11.47.33.24.66-8.03,11.45-16.39,21.91-21.35,35.16-.03.08-.08.15-.16.2-.18.12-.43.07-.55-.12-1.16-1.77-1.96-3.69-2.39-5.78-.03-.17-.12-.3-.27-.4-.09-.06-.19-.1-.3-.13-.19-.05-.34,0-.47.15-.09.11-.22.13-.41.06-.4-.15-.69-.41-.86-.78Zm25.1-33.87c-.58.03-.63-.12-.14-.44.7-.47,1.11-1.14,1.23-2.01,0,0,0-.01,0-.02.07-.59-.35-1.13-.95-1.2l-83.67-9.65c-.09,0-.18-.05-.24-.13-.12-.15-.1-.37.05-.49,1.53-1.24,3.17-2.43,4.92-3.57,3.15-2.05,4.32-.37,7.39-.06,18.17,1.83,36.32,3.93,54.43,6.28,9.52,1.24,20.66,1.2,30.96,1.94,1.51.11,2.7.26,3.58.44,2.05.43,2.12,1.09.23,1.97-3.68,1.73-7.49,3.94-11.43,6.64-.4.27-1.17.63-2.32,1.07-.3.12-.65.1-.94-.06-.97-.53-2-.76-3.1-.71Zm-19.68-43.06v-.03s.01-.03.03-.03c4.13.16,9.48.17,13.32,1.02.96.21.95.3-.04.27-3.95-.14-8.37-.53-13.27-1.16-.03,0-.05-.03-.04-.07Zm8.12-8.01c10.17-.48,20.45-.1,30.68,1.05,5.87.66,12.89.67,17.65,1,8.82.62,17.78,1.36,26.59,2.22-3.42.12-9.29-.11-17.62-.68-14.13-.96-24.3-1.73-30.51-2.31-1.85-.17-4.52-.33-8-.46-3.58-.13-7.21-.69-10.66-.71-2.71,0-5.42-.05-8.13-.11Zm24.49-8.37c0-.09.05-.14.14-.14,12.45-.1,21.26.2,26.42.89,9.51,1.27,17.91,2.42,28.41,2.96,5.05.25,10.09.72,15.1,1.4.42.06.43.14.02.24-.74.19-1.5.25-2.28.19-7.24-.54-14.73-.45-21.65-1.25-15.37-1.8-30.54-3.5-46.03-4.14-.09,0-.14-.06-.13-.15Zm78.03-32.6c.91-.33,1.83-.46,2.78-.4,8.78.53,18.07.46,26.31.97,10.45.63,20.91,1.14,31.37,1.52,2.96.11,6.13-.66,9.28-.66.07,0,.13.02.19.07.14.1.16.3.05.43-2.5,3.21-9.14,2.97-12.71,2.7-19.06-1.45-38.17-2.16-57.23-4.26-.53-.06-.55-.18-.04-.37Zm-42.54-222.15c-.08,5.78-.53,14.02-.63,21-.3,21.01-.79,42.01-1.48,63.01-.9,27.31-1.19,54.67-1.83,81.99-.09,4.06-.37,7.92-.83,11.57-.05.36-.35.62-.72.62h-.42c-.34-.02-.52-.19-.53-.54-.08-2.4-.12-4.87-.12-7.4.07-29.21.49-58.42,1.28-87.63.64-23.87,1.23-47.74,1.77-71.62.63-27.66,1.14-55.33,1.54-83,.04-2.65.43-5.23,1.18-7.74.14-.45.6-.7,1.05-.58.75.21,1.12.81,1.1,1.82-.52,26.17-.97,52.33-1.36,78.5Zm-49.31,40.37c-2,2.92-5.07,2.49-8.37,2.57-3.62.1-6.36-1.39-8.21-4.48-.04-.07-.06-.14-.05-.22.02-.2.2-.34.4-.32,6.56.69,9.01-1.01,9.67-7.63.03-.37.22-.48.57-.34,3.47,1.41,8.7,6.46,5.99,10.42Zm-13.51,10.66c.54,2.15.61,4.31.2,6.5-.39,2.14-2.22,2.99-2.25,5.32-.61,38.84-.62,77.66-1.94,116.49-.01.56-.28.94-.81,1.14l-.31.11s-.08.02-.13.02c-.21,0-.38-.16-.38-.36-.17-8.31-.08-16.64.25-25,1.21-30.6.78-60.32,1.23-91.85.04-2.78,1.94-6.48,1.34-8.86-.71-2.74-3.06-2.35-4.75-3.8-.38-.33-.43-.89-.12-1.28l2.96-3.8s.07-.08.12-.12c.29-.23.71-.17.93.12,1.34,1.75,3.12,3.22,3.66,5.37Zm-7.13-16.7c-.15.34-.55.5-.9.35l-6.73-3.08c-.23-.11-.38-.33-.39-.58l-.54-8.9c-.02-.25.11-.5.33-.63.32-.19.74-.09.93.23l7.26,11.99c.11.19.13.42.04.62Zm-2.34,5.9c.1.04.19.09.28.15.84.56,1.07,1.7.51,2.54l-2.11,3.15c-.2.3-.4.3-.61,0-4.69-7.02-15.08-7.04-21.78-3.23-1.89,1.07-2.36.63-1.42-1.33,1.61-3.35,8.39-3.7,11.63-3.83,4.69-.18,9.19.67,13.5,2.55Zm-10.51-8.78c0,.26-.14.39-.4.39l-4.99-.02c-.29,0-.44-.15-.45-.44-.09-3.54-.31-7.25-.64-11.13-.09-1.07-.47-1.93-1.13-2.6-.19-.19-.43-.34-.69-.41-.88-.27-1.81.23-2.08,1.1-1.15,3.76-.55,9.88-.54,13.72,0,.16-.08.25-.24.28l-6.87,1.11s-.02,0-.03,0c-.15,0-.27-.11-.28-.25-.28-5.11-.98-15.91,2.02-19.89,1.71-2.28,4.35-3.22,7.94-2.82,5.33.59,8.09,3.59,8.28,8.99.15,4.18.18,8.17.1,11.97Zm-18.25,38.47c3.19-5.46,5.49-11.13,9-17.32.83-1.46,1.98-1.79,3.45-.99l1.08.6c1.52.83,1.85,1.99.98,3.49l-36.65,63.59c-.25.43-.58.52-1.01.25l-2.78-1.73c-.5-.31-.61-.72-.33-1.24,8.52-15.7,17.27-31.25,26.26-46.65Zm275.44,315.19c-4.61,1.55-7.28-6.41-2.05-8.74,1.94-.87,3.22-1.56,4.86-1.99.02,0,.04,0,.06-.01.25-.03.47.16.5.41.3,2.95.1,9.17-3.37,10.33Zm-31.5,16.24c-6.32,4.71-12.78-3.11-14.37-8.9-.33-1.22.12-1.97,1.35-2.25l.51-.12c1.11-.25,1.72.19,1.82,1.32.11,1.25.51,2.51,1.2,3.78.81,1.48,1.15,1.38,1.02-.31l-.37-4.53c-.07-.97.36-1.56,1.31-1.79l4.45-1.05c.85-.2,1.25.13,1.21,1-.12,2.99-.99,8.46-4.09,10.27-.17.1-.29.25-.36.43-.16.44.06.92.5,1.08,7.01,2.57,10.62-8.98,11.31-14.02.11-.84.4-1.53.87-2.07.08-.09.2-.15.32-.16.27-.02.51.18.53.45.75,10.81-2.71,20.46-14.01,23.36-9.21,2.36-13.76-7.61-13.64-15.04,0-.01,0-.03,0-.04.03-.27.27-.47.54-.44,1.94.19,2.12,12.83,8.59,14.14,5.09,1.03,8.92-.62,11.48-4.96.19-.33.14-.38-.17-.15Zm-47.79.42s.06,0,.09,0c.23.03.39.24.37.48-.3,2.42-.41,6.47,2.63,7.1.31.07.59.01.86-.16,2.83-1.83,2.52-4.84,3.67-7.4.41-.91.68-.88.82.11.41,2.96-.6,6.34-3.01,10.13-.65,1.03-.38,1.44.82,1.23l1.16-.2c1.03-.18,1.97-.71,2.67-1.49,2.89-3.22,4.29-10.54,4.92-14.63.1-.64.55-1.18,1.17-1.38l2.96-.96c.63-.21.9.02.81.68-1.1,7.6-4.21,21.64-14.2,21.79-5.72.09-15.54-14.35-5.74-15.3Zm2.57,17.36c.02.13-.07.24-.19.26-3.01.27-5.35.72-7.73-1.45-3.15-2.87-6.73-8.23-5.57-12.7.04-.18.21-.29.4-.27.09.01.17.02.26.03.13.02.24.12.26.25.74,4.73,2.32,9.69,6.62,12.35,1.68,1.03,3.85.98,5.78,1.34.09.02.16.1.17.19Zm-30.3,3.2l3.71.3c.06,0,.07.02.03.07-.06.07-.11.15-.14.23-.01.03-.02.08-.02.15,0,.09-.02.18-.06.27-.04.09-.11.14-.2.16-2.24.51-4.43.48-6.56-.09-2.92-.78-7-6.14-7.07-8.94-.02-.96.44-1.54,1.37-1.74l7.47-1.58c1.17-.25,1.71.23,1.63,1.42-.17,2.57-.69,5.09-1.57,7.55-.05.14-.08.28-.09.43-.07.91.6,1.7,1.5,1.77Zm3.3-12.33l1.35-.05c.93-.04,1.73.63,1.86,1.55.31,2.2-.09,4.24-1.2,6.11-.03.05-.08.1-.13.14-.23.18-.56.14-.74-.09-.97-1.24-1.98-3.84-2.53-5.72-.37-1.24.09-1.89,1.39-1.94Zm-13.11,16.01c3.71,1.16,7.56,1.29,11.53.4,1.08-.24,1.87-1.17,1.94-2.28,0-.05.07-.24.22-.57.08-.18.2-.34.36-.47,3.69-3.18,5.53-7.52,5.5-13.01,0-.95.45-1.54,1.37-1.77l.32-.08c.06-.02.13-.03.2-.03.51-.02.93.39.95.9.31,7.5-2.39,13.18-8.12,17.03-1.99,1.33-4.06,2.09-6.23,2.26-3.1.24-8.61.25-10.74-2.69-1.67-2.29-3.21-5.07-4.64-8.32-.2-.45-.13-.97.17-1.36l.82-1.06c.06-.07.14-.13.23-.15.24-.07.5.07.57.31,1.92,6.71,3.77,10.34,5.55,10.89Zm-29.52,5.86c5.01.16,6.48-6.6,7.97-11.03.04-.11.1-.12.17-.04l.38.41c.07.08.1.19.07.29-.8,2.88-1.62,5.77-2.46,8.66-.98,3.4-4.66,7.42-8.41,4.93-2.27-1.51-4.03-4.56-5.3-9.15-.16-.6.09-1.24.61-1.58l.23-.16c.07-.05.16-.08.24-.1.39-.08.77.18.85.57.57,3.1,1.94,7.08,5.65,7.2Zm-3.9-8.93c-.02-.63.42-1.19,1.04-1.31l.67-.13s.08-.01.11-.01c.46-.02.85.33.88.79l.37,8.15c0,.12-.04.24-.12.32-.17.18-.46.19-.64.02-1.81-1.71-2.17-4.34-2.31-7.83Zm7.8,13.27c4.23-3.45,6.59-6.05,7.8-11.39.49-2.19,1.16-4.33,2-6.42.17-.41.37-.7.6-.85.08-.05.18-.08.27-.07.24.02.42.23.41.47-.74,7.98-1.55,14.48-8.71,19.55-10.83,7.67-18.15.78-21.02-10.13-.18-.68.05-1.16.69-1.45l.31-.14c.06-.03.13-.05.19-.06.41-.06.8.22.87.64,1.31,8.79,6.98,17.72,16.59,9.85Zm-39.07,9.7c-3.51-1.01-6.32-4.27-7.24-7.78-.31-1.17.33-2.38,1.47-2.78l9.1-3.25c.66-.23.88-.02.67.65-.87,2.75-1.6,5.54-2.93,8.05-.77,1.45-.36,1.95,1.22,1.52,5-1.39,6.38-7.15,7.95-11.54.13-.36.36-.63.7-.82l3.89-2.1c.27-.15.4-.07.38.24-.47,7.26-5.51,20.61-15.21,17.81Zm2.21,4.67s-.02.04-.04.04c-6.84.94-15.06-2.75-16.93-9.9-.03-.12-.03-.25.01-.36.11-.35.48-.55.83-.44,1.75.55,2.22,2.46,3.01,3.61,3.61,5.19,7.2,5.87,13.08,7.01.02,0,.04.02.04.04Zm-53.69,8.29c9,2.07,16.29-8.26,20.12-14.71.4-.67.73-1.08.98-1.23.8-.49,1.09-.29.88.62-2.17,9.23-10.68,19.78-21.46,16.74-.08-.03-.14-.08-.19-.14l-.62-.84c-.29-.4-.19-.55.29-.44Zm243.22-115.25c0-.3.21-.57.5-.66l.24-.07c.17-.05.27,0,.29.19.65,5.44,2.38,10.5,5.2,15.17.07.11.09.25.07.38-.06.28-.33.46-.62.4l-.35-.07c-.57-.11-1-.41-1.31-.9-2.77-4.39-4.11-9.21-4.02-14.44Zm4.72-1.36c-.12-7.35.23-12.85,1.04-16.52,1.32-5.92,4.48-12.53,7.89-18.32,1.84-3.13,4.62-3.93,8.01-3.95.15,0,.26-.11.27-.26v-.25c.02-.27-.11-.42-.38-.45-2.2-.21-4.29.03-6.27.71-6.4,2.2-11.33,12.82-12.7,18.76-.3,1.29-.65,1.29-1.04,0-.71-2.32,1.02-9.06,1.51-11.67.21-1.12,1.64-3.12,4.29-6,.2-.22.45-.38.74-.46l2.31-.65c.31-.09.56-.3.7-.58.81-1.67,2.02-2.36,3.62-2.08,3.72.63,6.31,1.01,7.78,1.12.28.02.55.14.76.35,3.48,3.51,5.83,7.32,7.04,11.43,3.01,10.23,3.69,24.75-1.68,34.41-.77,1.38-2.35,2.43-3.42,4.15-1.94,3.13-8.12,4.5-11.44,3.51-5.16-1.52-8.94-8.15-9.03-13.25Zm9.93-163.54c0-.09.03-.18.08-.25.15-.24.47-.3.71-.15l.32.21c.67.45,1.04,1.09,1.1,1.9l3.2,43.22c.01.12-.03.23-.11.32-.16.16-.41.16-.57,0-2.24-2.17-4.83-3.6-4.97-7.22-.45-11.82-.37-24.5.24-38.03Zm17.58-20.93c3.96-1.1,11.37-1.94,12.24,3.3.37,2.21.65,4.44.82,6.67,1.08,13.77,2.26,32.93,3.53,57.49.18,3.31.77,6.4-.86,9.13-3.1,5.21-9.92,5.77-15.35,5.74-.4,0-.77-.21-.97-.55-2.33-3.86-4.93-7.6-7.8-11.23-.81-1.02-1.25-2.38-1.33-4.09-.4-8.43-.68-16.97-.83-25.62,0-.39.18-.58.57-.59l18.55-.37c.78-.01,1.19.37,1.23,1.15l1.57,31.7c.05.91.21.93.49.06.46-1.4.65-3.76.56-7.09-.45-17.73-1.23-35.46-2.34-53.2l-.15-4.36c-.15-.49-.48-.81-.98-.95-2.31-.63-5.16-.61-7.49-.22-.56.09-.89-.14-1-.69l-1.07-5.27c-.11-.53.1-.86.61-1.01Zm-2.32-.19c.06,0,.12,0,.18,0,.42.07.71.48.64.9l-.87,5.32c-.1.58-.45.89-1.04.93-7.89.5-13.51.82-16.86.97-30.68,1.34-61.34,2.91-91.99,4.72-4.59.27-9.19.32-13.79.13-.37-.02-.67-.28-.74-.64l-1.41-7.52c-.09-.47-.37-.7-.84-.69-16.57.22-32.41.22-49.7,1.33-6.19.4-13.12.72-20.78.95-4.62.14-3.39-5.6-3.34-8.51.39-23.41.7-46.83.93-70.25.05-5.64.39-11.9,1-18.79.29-3.28-.86-6.43-.82-9.9,0-.1.04-.19.1-.26.14-.15.38-.16.54-.02,2.18,1.97,2.5,4.61,6.09,4.7,16.84.41,33.67.3,50.5-.35,2.63-.1,5.17-.33,7.62-.68.35-.05.52-.24.52-.59-.15-41.24-2.31-82.55-4.11-123.92-.02-.39-.22-.63-.61-.7-1.63-.31-3.35-.57-5.14-.77-17.01-1.88-34.03-3.72-51.04-5.53-2.83-.3-5.56-.39-8.19-.27-.64.03-1.17.5-1.27,1.13-.36,2.28-.57,4.51-.64,6.7-.93,29.32-2.04,58.66-2.54,87.99-.34,20.39-1,40.77-1.99,61.13-.01.22-.13.33-.34.32h-.25c-.06,0-.09-.04-.09-.1.09-52.15,1.59-108.05,3.05-156.34.03-.94.2-1.99.52-3.16.09-.32.29-.52.61-.61,1.55-.43,2.85-.58,3.9-.45,22,2.6,43.94,5.18,65.82,7.73.35.04.62.33.63.68,1.49,42.59,3.43,85.1,3.82,127.61,0,.6-.42,1.11-1,1.21-1.71.3-3.63.49-5.78.58-18.97.73-38.07,1.29-57.29,1.67-.95.02-1.44.51-1.46,1.46l-1.96,95.87s0,.06,0,.09c.04.68.62,1.21,1.31,1.17l25.31-1.37c.47-.02.87-.35.98-.81,1.38-5.69,2.83-11.43,4.35-17.22,4.93-18.83,14.01-32.85,25.32-52.42,1.87-3.23,3.57-5.76,5.11-7.58.18-.21.45-.33.73-.33l37.88.18c.08,0,.15.02.21.06.2.12.26.38.14.58-5.97,9.62-11.29,19.62-15.96,30-1.99,4.41-3.78,8.6-4.23,13.54-1.07,11.75-1.67,23.49-2.57,35.17-.03.44.17.66.61.66l17.49-.08s.04,0,.05,0c.26.03.44.26.42.52l-.04.33c-.03.2-.14.31-.34.32l-16.92.98c-.71.04-1.25.36-1.64.95l-.23.35c-.06.1-.1.21-.09.33.01.31.28.55.59.54,8.59-.29,15.05-.76,19.38-1.4,1.53-.22,2.59-1.16,3.2-2.82.09-.25.28-.39.55-.4l97.8-5.33Zm-95.39-68.28c4.03-5.68,14.86-5.85,21.26-6.04.08,0,.14.06.14.13l.56,71.88c0,.89-.43,1.35-1.32,1.4l-40.24,2.35c-.51.03-.76-.21-.73-.72.44-9.33.96-18.78,1.56-28.37.15-2.33.4-4.28.77-5.84,1.18-4.98,4.4-9.55,5.86-12.92,3.53-8.14,7.57-15.43,12.14-21.87Zm76.19-5.55c7.62.2,9.86,4.35,10.77,11.12,2.51,18.73,4.58,37.64,6.19,56.72,0,0,0,0,0,.01.02.28-.2.52-.48.54l-66.17,4.13s0,0-.01,0c-.2,0-.37-.16-.38-.36l-1.19-71.3c-.01-.87.42-1.31,1.29-1.32,16.91-.12,33.57.03,49.98.46Zm-20.75-14.94c1.81.04,3.34.23,4.9,1.22,2.7,1.72,3.94,4.15,3.73,7.29-.04.58-.35.87-.93.87l-99.96.03c-1.21,0-1.48-.51-.83-1.53l4.2-6.55c.72-1.12,1.95-1.81,3.28-1.82,29.37-.21,57.91-.05,85.61.49Zm-86.5-132.57c.02-1.12.33-1.21.93-.26.06.1.11.47.14,1.12,1.13,23.76,1.43,47.54.89,71.34,0,.17-.09.25-.26.25h-.26c-.07,0-.1-.03-.1-.1-.7-24.07-1.75-48.2-1.34-72.35Zm75.16,120.99c.19,1.59.29,2.41.28,2.46-.63,3.25-1.17,3.25-1.61.02l-15.6-114.42c-.08-.53-.52-.93-1.06-.95-3.67-.12-7.47-.46-11.4-1.03-11.01-1.57-22.09-2.77-33.25-3.61-1.16-.09-1.73.45-1.72,1.61l.23,18.76s0,.04,0,.06c.04.32.33.55.66.52,9.72-1.21,19.49-2.69,29.3-4.45.51-.09,1.65-.06,3.4.09.34.03.6.19.77.48.57.96.91,1.9,1,2.83,1.33,12.73,2.8,25.43,4.41,38.12.12.93.17,2.35.15,4.25,0,.31-.22.57-.52.64-10.87,2.44-18.12,14.54-19.55,24.57-1.11,7.73-1.25,14-.44,18.81.57,3.41,2.75,5.03,6.54,4.87,5.1-.22,14.1-.58,20.17-.76.32,2.78.49,5.41.5,7.89,0,.53-.26.8-.79.79l-44.12-.26c-.43,0-.78-.35-.79-.78l-2.68-117.52c0-.06,0-.12,0-.18.07-1.41,1.28-2.5,2.69-2.43,3.04.15,6.04.42,9,.79,12.59,1.59,25.19,3.12,37.8,4.59.37.05.6.25.7.6.61,2.09,1.16,4.78,1.64,8.05,5.21,35.14,9.98,70.34,14.29,105.59Zm-18.86-12.22c-.64-.05-1.41-.08-2.37-.1l-16.94.7c-.95.04-1.76-.67-1.84-1.62-1.15-14.27.89-29.93,15.42-36.62.08-.04.17-.06.26-.07.46-.05.86.27.91.72.32,2.77.65,5.51,1,8.24,1.21,9.58,2.39,19.16,3.56,28.75Zm-186.08-154.77c9.68-1.13,19.19-2,28.53-2.59,1.17-.08,2.43.2,3.78.83.31.14.65.21.98.18,6.59-.51,11.67-.57,15.24-.17,17.34,1.96,38.08,6.26,56.86,9.44,22.73,3.86,51.7,9.01,86.91,15.45,6.29,1.15,7.77,8.37,9.26,13.53.02.06.01.13-.01.18-.06.14-.22.2-.36.14-.65-.27-1.38-.49-2.17-.66-17.13-3.51-34.77-6.57-52.21-7.94-1.99-.16-2.11.22-.34,1.15.07.03.63.14,1.68.33,16.87,2.99,33.79,5.64,50.77,7.93.09.01.83.02,2.24.02,1.15,0,1.72.59,1.73,1.78,0,.05,0,.09,0,.14-.07.53-.56.9-1.09.83l-59.03-7.95c-.71-.1-1.35-.49-1.76-1.08-2.06-2.96-3.95-5.96-7.96-6.35-15.11-1.47-30.21-3.07-45.28-4.82-2.12-.25-4.53-.17-6.74-.36-.57-.05-.93-.35-1.09-.9l-3.07-10.5c-.03-.11-.11-.15-.22-.12l-.32.09s-.05.04-.04.08c1.21,4.09,2.1,8.24,2.68,12.45.05.38.27.59.65.64l53.72,6.92c.23.03.31.15.24.38l-.08.24c-.14.44-.44.65-.9.62-10.3-.65-23.48-2.26-30.51-2.94-9.18-.89-18.36-1.79-27.53-2.7-8.78-.87-20.63-2.57-31.03-3.41-3.13-.25-6.01-.24-9.32.19-10.31,1.33-20.77,2.4-31.4,3.21-.82.06-1.55-.49-1.71-1.28-1.47-7.1-2.26-14.27-2.39-21.5-.01-.88.42-1.37,1.3-1.48Zm11.25,65.11c1.13.28,2.1.6,2.92.97.76.35,1.27,1.09,1.31,1.93.19,4.1.23,8.14.12,12.11-.71,25.46-1.49,50.92-2.34,76.38,0,.04-.02.08-.05.11-.06.06-.15.05-.2,0-4.8-4.95-11.02-7.65-15.46-12.95-3.18-3.78-5.45-7.32-10.32-9.18-.32-.13-.53-.44-.52-.79l2.6-72.23s0-.02,0-.03c.03-.2.22-.34.43-.32,7.21.93,14.38,2.26,21.51,4.01Zm-19.87-56.74c.39-.03.7.01.92.14.37.21.53.53.46.98-.04.25-.24.45-.49.49-17.63,2.82-34.96,5.1-51.99,6.84-4.79.49-9.61.75-14.46.8-.35,0-.54-.17-.58-.52-.02-.19.02-.39.11-.59.09-.21.26-.36.49-.46.43-.19,1-.32,1.69-.4,21.26-2.49,42.51-5.56,63.85-7.28Zm-66.53,2.56l28.04-3.19c20.07-2.29,36.42-3.74,36.6-3.26l.02.1c-.01.51-16.29,2.77-36.4,5.06l-28.04,3.2s0,0,0,0c-.11.01-.21-.07-.22-.18l-.18-1.51h0c-.01-.11.07-.21.18-.22Zm3.1,39.67s0-.02,0-.03c.07-.37.43-.62.81-.55l39.24,7.46c.22.04.38.24.36.46l-4.19,66.58c-.05.77-.29.84-.73.21-1.04-1.45-1.91-3.55-2.69-4.59-5.3-7-18.87-6.56-23.28,1.1-1.32,2.29-2.03,4.99-2.13,8.08-.17,5.11-.38,10.39-.61,15.83-.05.93-.81,1.67-1.74,1.68l-16.94.18c-.38,0-.57-.18-.56-.56.02-2.07.16-4.12.41-6.14,3.7-29.97,7.72-59.88,12.05-89.71Zm-38.13-15.02c-.52,0-.94-.4-.95-.92l-.48-20.29c-.02-.68.48-1.26,1.16-1.35,5.06-.63,9.92-1.27,14.57-1.9,4.29-.57,8.44-.9,12.45-.98.97-.02,1.8.7,1.93,1.66.95,7.07.98,14.14.1,21.22-.07.57-.52,1.01-1.08,1.07-9.21.97-18.45,1.47-27.7,1.49Zm11.26,108.33c1.1-7.74,1.91-13.13,2.43-16.17,4.65-27.09,8.67-54.28,13.27-81.38.31-1.82.84-3.58,1.59-5.29.04-.09.11-.17.2-.23.24-.15.55-.07.7.17.15.25.2.58.17.98-.33,3.92-.8,7.83-1.39,11.72-4.46,29.53-9.22,59.6-14.28,90.23-.12.72-.54,1.07-1.27,1.06h-.49c-.73-.02-1.04-.38-.93-1.09Zm11.71,11.97c1.57-.23,2.77-.36,3.59-.39,2.16-.11,2.19.12.09.68-11.1,2.97-22.15,6.04-33.08,10.01-18.27,6.65-30.65,11.75-47.87,20.56-.29.14-.56.12-.81-.06-1.56-1.09-2.05-2.49-1.46-4.2,1.93-5.67,3.86-11.27,5.77-16.8.14-.4.51-.66.93-.67,13.07-.05,27.96-3.02,38-4.34,11.63-1.52,23.24-3.12,34.84-4.79Zm-50.36-37.97c.33-.06.63-.24.85-.49,1.9-2.2,2.46-5.91,3.12-8.69,1.15-4.8,3.97-9.6,5.89-14.15.06-.13.16-.18.3-.17l3.25.43s.02,0,.03,0c.1.03.16.15.13.25l-10.05,27.4c-.27.71-.93,1.2-1.69,1.23-8.03.32-14.32-.21-20.99,6.36-.01.01-.03.03-.05.04-.45.4-1.13.35-1.52-.09l-.24-.26c-.63-.71-.62-1.4.03-2.09,3.29-3.49,7.01-6.04,11.15-7.65,2.84-1.11,6.49-1.48,9.79-2.13Zm-8.75-4l4.89-20.94c.13-.55.33-.58.6-.08.13.24.24.61.31,1.11.85,5.79,2.06,13.1,1.2,18.51-.09.56-.41.9-.97,1.01l-5.39,1.06c-.56.11-.77-.12-.64-.67Zm26.33-12.57c1.02-2.99,3.32-4.82,5.34-7.17.13-.15.2-.13.19.07l-1.44,57.69c0,.33-.18.51-.51.52l-12.37.66c-.75.04-1.12-.31-1.12-1.06.01-8.79.09-16.9.22-24.31.03-1.47.57-3.4,1.64-5.81,2.98-6.75,5.66-13.62,8.05-20.59Zm-17.15,28.96l-.28,22.44c0,.38-.29.7-.67.74l-19.64,2.02s-.02,0-.04,0c-.06-.02-.09-.07-.07-.13,1.85-6.17,3.54-12.22,5.08-18.15,1.42-5.47,10.28-7.31,15.03-7.49.39-.01.59.18.59.57Zm6.4-74.87c4.17-1.87,9.64-.86,12.24,2.84,5.46,7.77,5.81,19.03,2.44,27.41-2.76,6.87-10.31,4.15-13.05-1.25-3.02-5.95-4.35-12.64-3.98-20.07.08-1.75.66-3.09,1.73-4.03.39-.35.89-1.01,1.62-1.32.44-.19.5-.11.19.26-3.65,4.25-1.93,10.25,1.45,14.94,1.52,2.13,2.01,4.38,2.95,6.76,1.5,3.8,5.86,4.56,8.21,1,1.42-2.15,1.25-3.85,1.48-6.25.69-7.4-1.58-20.51-11.76-20.18-1.73.06-3.1.67-4.1,1.84-3.83,4.47-6.7,7.16-6.74,11.86-.07,8.09,1.99,15.83,6.18,23.22,1.93,3.4.19,9.45-1.53,12.7-.03.05-.09.08-.15.08-.08,0-.14-.08-.13-.17.55-3.26.62-6.05-.63-9.31-3.74-9.74-8.56-21.97-3.34-31.87,2.04-3.88,3.62-6.98,6.92-8.46Zm4.29,5.11l-3.12,3.61c-.07.08-.1.07-.09-.04.11-1.21,1.33-4.05,2.97-4.07.45,0,.53.16.24.5Zm5.21,2.68c1.86,1.53,2.91,3.67,3.14,6.4.24,2.71-.58,4.66-2.47,5.86-2.97,1.89-5.02,1.39-6.16-1.51-1.43-3.62-1.32-6.91.33-9.87,1.31-2.35,3.03-2.64,5.16-.88Zm-37.18,9.89c.66-5.78,1.95-12.15,6.63-15.11,1.74-1.11,2.03-.81.88.9-3.01,4.46-5.39,9.22-7.14,14.29-.37,1.07-.5,1.04-.37-.08Zm-22.67,92.9c1.56-4.85,3.02-9.74,4.39-14.65,1.41-5.11,2.86-9.99,4.35-14.64,3.06-9.6,6.16-21.21,8.47-28.97,3.49-11.75,6.98-23.51,10.45-35.26,1.3-4.4,3.32-8.44,6.05-12.11,1.89-2.55,4.39-3.7,7.5-3.45.08,0,.16.04.24.08.24.16.31.48.15.72-4.36,6.77-8.45,13.8-10.82,22.26-9.1,32.55-18.63,64.98-28.6,97.28-1.04,3.38-1.98,6.63-2.83,9.75-.06.23-.2.3-.42.23l-4.84-1.47c-.14-.05-.19-.14-.15-.29,1.93-6.43,3.95-12.93,6.06-19.48Zm-110.98,22.7c13.87-4.84,28.87-10.11,43.77-13.57,1.69-.39,3.59-.51,5.7-.36,4.6.34,9.81-.22,13.69-.21,11.96.04,24.01-.39,36.16-1.28,0,0,.02,0,.02,0,.13-.02.22-.14.2-.27l-.03-.27c-.05-.38-.37-.66-.75-.67-13.52-.25-31.73-1.06-46.57,1.75-1.1.21-2.35.18-3.36.13-1.03-.05-1.05-.22-.06-.5,7.52-2.1,14.24-3.37,22.55-3.46,9.34-.1,18.72-.48,28.13-1.14.34-.02.59-.17.76-.46l.19-.31s.04-.09.03-.13c0-.14-.12-.26-.26-.26l-24.69.38s-.06-.02-.07-.07v-.26c0-.13.07-.2.2-.21,8.58-.39,17.29-.92,26.14-1.61.07,0,.14,0,.2.02.29.08.46.39.38.69-1.17,4.12-2.48,8.25-3.91,12.4-.85,2.47-3.05,3.86-4.19,5.49-.63.9-1.23,1.83-1.8,2.78-.17.29-.43.44-.77.44-30.5.18-61.19,0-91.42,2.13-2.98.21-3.06-.18-.24-1.17Zm-6.4,6.98c31.39-1.43,62.56-2.07,93.51-1.92.95,0,1.04.28.27.85-3.66,2.65-4.7,6-6.11,10.07-.01.03-.04.04-.06.04-14.73.39-28.9,1.16-42.49,2.3-.13.01-.19.08-.18.21,0,.13.07.19.2.19,13.99.04,27.99-.05,41.99-.26.21,0,.29.09.24.29l-1.64,7.62c-.03.16-.17.27-.33.27-22.99.35-45.86,1.14-68.6,2.39-5.65.31-13.82.55-20.74,1.33-.23.03-.35.15-.35.38.06,57.15.11,114.33.16,171.54,0,1.88-.11,3.76-.32,5.63-.03.31-.29.56-.61.58-.74.04-1.45-.1-2.12-.42-.35-.17-.58-.51-.59-.89-.74-21.44.03-42.77-.25-64.15-.43-32.49-.01-65.01-.16-97.5-.04-8.63.06-17.26.31-25.89.12-4.15,1.08-7.69,2.88-10.63,1.25-2.05,2.81-1.93,4.99-2.03Zm.21-43.21c-2.51,8.58-5.08,17.14-7.71,25.69-1.37,4.43-2.69,8.88-3.98,13.34-.09.31-.29.44-.62.41-.95-.11-1.5-.59-1.64-1.46-.07-.44.01-1.08.26-1.91,3.29-11.07,6.44-22.17,9.45-33.31.59-2.19,1.39-4.81,2.37-6.84.23-.46.5-.72.82-.79.29-.05.57.01.84.2.27.19.43.46.46.8.14,1.53.06,2.82-.25,3.87Zm34.4-43.72c-2.15,6.97-4.39,13.82-6.71,20.57-1,2.9-2.47,4.3-5.59,5.1-7.52,1.93-13.23,4.63-19.26,8.39-.85.53-1.76.83-2.75.91-.33.03-.46-.11-.39-.44,1.38-6.99,15.08-11.8,21.34-13.1,3.89-.8,5.46-8.79,6.43-12.19.89-3.08,2.24-5.7,3.61-8.51.61-1.26,1.59-1.73,2.93-1.42.01,0,.02,0,.03,0,.29.09.45.4.36.68Zm-20.87,17.46l4.2-17.45c.43-1.81.82-1.8,1.17.03.93,4.91,1.49,9.86,1.7,14.85.05,1.01-.66,1.9-1.66,2.1l-4.93.97c-.06.01-.12.01-.18,0-.22-.05-.35-.28-.3-.5Zm14.5-54.78c19.82-3.54,19.5,32.48,10.43,32.8-8.53.3-12.38-9.66-13.49-16.69-.86-5.42.98-9.49,4.85-13.03.27-.25.64-.36,1-.31l1.47.21c.59.09.62.26.08.51-4.19,1.99-5.91,5.51-5.15,10.56.26,1.76,3.05,4.64,3.94,6.77,1.13,2.72,2.2,6.22,4.92,6.87,10.45,2.51,9.31-26.5-4.83-27.09-2.45-.1-4.69.79-6.72,2.68-9.76,9.05-3.29,22.65,1.59,31.69,1.17,2.17,1.64,4.32,1.03,6.55-.21.76-.47.78-.78.06-5.17-12.04-13.68-23.02-5.73-36.2,1.83-3.04,4.3-4.83,7.39-5.38Zm5.85,6.91c2.67-.24,5.1,2.63,5.44,6.4.34,3.77-1.55,7.03-4.22,7.26-2.67.24-5.1-2.63-5.44-6.4-.34-3.77,1.55-7.03,4.22-7.26Zm-28.43-1.67c.37-.52.84-.78,1.41-.79.4,0,.51.17.32.52-2.64,5.07-5.05,10.22-7.22,15.47-.03.07-.04.15-.04.22v.24s0,.03-.01.03h-.02s-.02,0-.01-.02c.44-5.89,2.3-11.12,5.57-15.67Zm-28.82,107.34c2.08-6.75,4.13-13.52,6.16-20.29,7.32-24.45,14.82-48.84,22.49-73.19,1.88-5.95,5.22-15.25,11.68-15.51.78-.03,1,.3.66,1-3.16,6.49-6.45,12.4-8.56,19.24-4.27,13.81-8.44,27.66-12.51,41.53-5.15,17.52-10.54,34.85-16.17,52-.14.42-.42.58-.85.47l-3.18-.81c-.4-.1-.65-.49-.58-.89.17-1.07.46-2.25.86-3.55Zm-6.93,8.7c.09-.24,2.31.29,4.97,1.17l11.29,3.75s0,0,0,0c.15.05.22.21.17.36l-.4,1.19c-.05.15-.2.23-.35.18l-11.3-3.76s0,0-.01,0c-2.66-.89-4.75-1.8-4.66-2.04l.28-.85Zm-20.05,30.75c2.69-7.42,5.02-14.68,7.01-21.77.29-1.04.87-1.98,1.74-2.81.22-.22.53-.33.84-.31,6.64.4,13.08,1.73,19.33,3.99,0,0,0,0,0,0,.11.04.16.16.12.28l-.11.3c-.06.16-.22.25-.39.22l-16.54-2.9c-.56-.1-1.12.19-1.36.71-2.77,5.93-4.25,10.94-4.44,15.03-.1,2.15.21,2.21.92.18l4.11-11.81c.37-1.04,1.09-1.43,2.16-1.18l5.3,1.24c.89.21,1.21.76.94,1.64-1.59,5.23-2.94,10.8-4.05,16.7-.13.67,0,1.24.35,1.69.23.3.41.27.53-.09l5.44-16.9c.25-.77.78-1.25,1.57-1.43l.38-.09c.77-.17,1.03.11.8.86-1.53,4.95-2.92,10.78-4.16,17.47-.2,1.09-.27,2.04-.21,2.86.03.36.2.63.51.81,1.27.71,2.63,1.16,4.08,1.35.36.05.57.26.63.61.07.48-.05.91-.36,1.28-.02.03-.05.06-.08.08-.28.23-.7.2-.93-.08-.71-.83-1.42-1.33-2.13-1.52-7.12-1.89-14.17-3.52-21.16-4.9-.06-.01-.12-.03-.17-.05-.59-.22-.9-.87-.68-1.46Zm-9.17,41.88l11.48-33.87c.41-1.23,1.27-1.79,2.56-1.68l5.65.48c1.28.1,1.69.75,1.22,1.94-.66,1.72-.96,3.71-1.57,5.35-3.73,10.02-6.65,20.29-8.78,30.81-.07.32-.26.44-.57.36l-9.5-2.49s-.03,0-.05-.01c-.37-.12-.56-.52-.44-.89Zm-17.57,72.61c.73-2.45,1.9-6.07,3.53-10.86,2.26-6.69,4.07-13.84,6.21-20.17,3.25-9.63,7.05-23.44,11.66-34.72.13-.3.44-.46.76-.4l5.13,1.1c.54.11.73.44.57.97l-34.88,115.72c-.11.36-.34.49-.7.4l-7.1-1.86c-.23-.06-.32-.21-.25-.45,5.1-16.56,10.12-33.14,15.07-49.73Zm-.3,53.57c-.34-.08-.51-.29-.51-.64.01-2.17.76-7.15,2.6-8.49.54-.4.87-.27.99.39.34,1.94.49,9.59-3.08,8.74Zm-18.08,5l.67-3.04c.01-.07.04-.14.06-.2.26-.65,1-.97,1.66-.71l8.35,3.37c.25.11.41.29.47.55.26,1.13-.14,1.73-1.2,1.78-1.49.07-4.46-.03-8.91-.3-.93-.05-1.3-.54-1.1-1.45Zm-15.1-2.16c.79-3.06.46-6.49,2.56-9.5.79-1.13,2.04-1.86,3.42-1.98l5.35-.48c1.38-.12,1.75.43,1.11,1.66-1.83,3.53-2.97,7.25-3.4,11.17-.11.97-.65,1.41-1.63,1.31l-6.35-.64c-.95-.1-1.31-.61-1.06-1.54Zm-69.4-19.06c2.19.31,3.91.89,3.86,1.3-.06.41-1.88.49-4.07.19-2.19-.31-3.91-.89-3.86-1.3.06-.41,1.88-.49,4.07-.19Zm-9.9-.67c.06-.05.15-.05.2,0,1.04,1.22,1.69,3.22,2.12,5.4l-1.53-.04-.83-5.24s0-.09.04-.13Zm-87.55-.6c.06-.27.22-.44.49-.51,1.73-.44,3.47-.67,5.22-.68,24.67-.21,49.34.05,74,.77,1.57.05,3.14.18,4.72.39.31.04.47.22.48.53.07,1.8.63,3.68.98,5.41l-86.09-2.08c-.16-1.22-.1-2.5.2-3.83Zm-15.45,16.15c.71-.22,1.52-.35,2.41-.38,29.02-.98,55.79.9,83.24,3.11,33.13,2.67,66.22,5.88,99.25,9.62,9.7,1.1,19.38,2.35,29.03,3.76,9.32,1.36,19.97,2.2,28.98,3.74,19.35,3.3,38.84,6.19,58.08,10.11,19.97,4.06,40.17,7.56,59.91,12.62.51.13.75.46.74.98l-.09,3.62c0,.07-.01.13-.04.2-.12.33-.48.5-.8.38-2.59-.9-5.94-1.79-10.06-2.68-38.31-8.25-74.48-15.06-108.49-20.43-10.83-1.71-25.82-3.7-44.99-5.97-38.31-4.53-68.14-7.76-89.51-9.67-21.69-1.94-40.85-3.45-57.5-4.52-9.81-.63-20.27-.87-31.39-.71-3.23.04-7.03.68-10.45.65-1.31-.01-1.5.44-.55,1.35,1.21,1.16,2.38,2.46,3.49,3.91,20.3,26.44,38.48,59.12,43.63,92.48,0,.05.03.09.05.13.11.2.37.26.56.15.57-.34,1.2-.53,1.91-.58,100.69-6.06,201.64,18.41,292.23,61.63.15.07.21.19.19.35l-.77,6.25s0,.03-.01.05c-.04.09-.14.12-.23.08-16.58-7.64-34.88-15.03-54.91-22.16-33.05-11.77-65.8-20.98-98.27-27.62-46.18-9.44-92.86-13.28-140.03-11.53-.21.01-.32.13-.33.34l-.09,3.53c0,.15.07.23.22.23,28.25-.56,52.75.25,73.5,2.42,21.41,2.25,39.4,4.73,53.97,7.45,4.79.9,15.46,3.31,31.99,7.24,43.6,10.35,86.74,25.09,127.43,43.86,1.71.79,3.22,1.53,4.52,2.2.58.3.88.97.71,1.61l-1.36,5.28c-.17.66-.51.77-1.04.33-.69-.59-1.53-1.1-2.53-1.53-52.99-22.58-106.81-39.45-161.44-50.6-40.07-8.17-81.57-12.25-125.54-10.62-.29,0-.4.15-.34.43l.05.26c.08.38.42.66.81.67,22.71.47,39.96,1.24,51.77,2.33,31.47,2.91,59.39,7.14,83.75,12.7,54.08,12.33,104.52,27.42,153.26,50.07.35.16.51.43.48.82-.17,2.1-.67,4.12-1.52,6.05-.16.36-.43.5-.81.42l-40.12-8.53s-.03.01-.04.03l-.06.25c-.02.09,0,.14.03.15,13.48,3.7,26.78,7.96,39.91,12.79.2.07.28.21.24.42l-.91,5.4c-.05.29-.22.4-.51.32-20.13-5.71-40.43-10.72-60.9-15.03-.2-.04-.31-.01-.33.08h0c-.03.12-.02.17.02.18,20.25,5.41,40.2,11.73,59.87,18.94.48.18.75.68.65,1.17l-1.01,4.95c-.11.55-.44.75-.99.59-14.56-4.16-29.55-8.31-44.53-11.45,0,0-.02,0-.02.01-.01.02-.01.04,0,.06,14.77,4.88,29.32,9.92,43.64,15.11.46.17.73.65.62,1.13l-1.23,5.5c-.13.57-.47.77-1.04.62-9.77-2.64-19.83-5.41-29.98-7.15-.03-.01-.06,0-.06.03,0,.03.01.06.04.08l28.11,10.28c1.09.4,1.53,1.17,1.32,2.31l-1.12,6.06c-.21,1.11-.85,1.51-1.94,1.18-5.43-1.63-10.92-3.03-16.47-4.18-1.25-.26-1.28-.15-.1.33l16.58,6.73c.44.18.68.66.57,1.12l-5.92,24.35c-.1.41-.35.55-.74.4-3.43-1.21-6.14-2.1-8.12-2.67-39.86-11.37-79.77-22.55-119.73-33.55-18.53-5.1-37.03-10.57-55.57-15.78-.12-.03-.16-.11-.13-.23h0c.03-.12.1-.17.22-.15,27.21,5.61,54.39,11.38,81.54,17.29,3.22.7,6.27,1.29,9.15,1.76.63.11.65.05.04-.16-3.07-1.07-6.29-2.09-9.65-3.06-22.89-6.61-46.05-12-69.5-16.19-33.33-5.94-66.17-13.54-99.17-21.03-8.47-1.92-18.22-3.78-27.32-5.82-1.69-.39-3.38-.55-5.05-.5-.08,0-.15-.03-.22-.08-.14-.12-.16-.32-.04-.46,4.54-5.53,9.8-11.19,13.48-16.79,3.28-5,6.2-10.21,8.76-15.63.05-.11.02-.2-.08-.26h-.01c-.1-.06-.18-.04-.25.06-7.23,10.49-15.06,22.2-25.6,29.66-2.73,1.93-5.25,1.79-8.32,1.27-.08-.01-.16-.05-.22-.11-.15-.15-.15-.4,0-.55,2.61-2.64,5.87-5.03,8.17-7.37,7.35-7.52,13.82-15.75,19.4-24.69,25.57-41.03,1.79-92.14-21.06-127.55-5.4-8.38-10.77-17.11-17.81-24.26-.12-.13-.22-.28-.27-.45-.17-.57.14-1.17.71-1.34Zm325.01,277.88l-1.92,9.58s0,.02,0,.04c-.07.25-.33.39-.58.32-14.33-4.06-28.67-8.22-43.03-12.47-42.17-12.49-84.33-24.98-126.5-37.47-45.31-13.43-90.6-26.89-135.88-40.4-15.01-4.47-30.18-8.66-45.05-13.53-.03,0-.05-.02-.07-.04-.08-.06-.09-.18-.02-.25l3.76-4.33c.13-.15.28-.2.47-.15,18.03,4.71,35.67,10.8,53.65,15.62,27.94,7.49,55.79,15.39,83.78,22.7,6.81,1.78,13.6,3.65,20.37,5.6,11.55,3.35,23.13,6.57,34.74,9.67,9.48,2.53,20.05,5.97,28.29,8.29,42.54,12,85.04,24.29,127.56,36.11.37.1.51.34.44.71Zm-360.11-95.11c2.73-9.85,5.49-19.33,8.27-28.46,4.69-15.43,8.55-34.09,11.58-55.99,4.45-32.16,4.77-64.11,4.18-96.5-.05-2.84.25-5.5,1-7.99.43-1.45.86-1.44,1.28.01.4,1.37.63,3.11.68,5.22.34,13.51.95,27.03,1.84,40.58,0,0,0,.02,0,.02.03.25.25.42.5.4.16-.01.31-.08.44-.2.09-.09.15-.22.19-.39,1.5-6.56,1.25-15.48,1.57-24.61.02-.41.13-.43.34-.08,8.23,14.03,16.38,28.11,24.43,42.24,8.38,14.7,15.27,30.8,17.72,45.79,2.79,17.03-1.18,31.67-8.18,47.48-2.38,5.39-5.84,10.2-8.97,15.28-.09.15-.2.18-.35.09l-.22-.12c-.06-.03-.07-.08-.04-.15,10.36-19.75,14.93-40.69,14.06-62.25,0-.17-.09-.25-.26-.26h-.26s-.06.01-.07.06c-1.49,18.35-7.53,34.02-14.16,50.23-3.89,9.49-9.65,20.87-17.88,27.33-1.25.98-1.39.85-.4-.4,18.98-23.93,25.96-53.19,29.07-83.3.12-1.14.14-2.28.06-3.43-.11-1.54-.31-1.55-.59-.03-3.6,19.75-10.82,38.41-17.8,57.37-1.82,4.95-4.81,11.49-8.98,19.64-2.11,4.11-4.38,7.44-6.83,10-.23.24-.51.38-.84.43-2.52.31-4.98-1.47-7.37-2.18-3.39-.99-6.78-2.01-10.16-3.06-.33-.11-.45-.33-.35-.66,3.84-13.23,7.77-26.44,10.58-39.84,2.16-10.31,4.55-21.2,5.75-31.04,2.33-18.99,2.43-38.04.28-57.13-.05-.39-.18-.67-.41-.84-.1-.08-.22-.12-.34-.13-.34-.02-.64.24-.66.58-3.05,42.94-7.51,85.9-22.45,126.63-1.57,4.25-3.27,7.66-5.11,10.21-1.39,1.93-1.77,1.75-1.14-.55Zm346.83,147.93c-.26.84-.82,1.16-1.67.95-4.02-.98-8.23-2.2-12.64-3.65-68.96-22.71-137.98-45.24-207.05-67.6-18.46-5.98-36.98-11.62-55.46-17.67-10.63-3.48-21.3-6.87-31.99-10.17-15.01-4.64-31.05-10.01-46.75-14.56-.83-.24-1.47-.47-1.93-.68,0,0,0,0,0,0-.59-.27-.84-.97-.57-1.57,4.37-9.51,9.59-18.53,15.65-27.08.35-.49.8-.63,1.37-.44,4.49,1.51,8.96,2.91,13.43,4.19,16.44,4.68,32.67,10,49.12,14.67,13.9,3.95,27.73,8.08,41.63,12.42,8.37,2.61,16.48,4.47,24.38,7.09,16.91,5.62,34.22,9.98,51.17,15.44,11.18,3.59,22.79,6.67,33.72,10.03,3.89,1.2,7.8,2.35,11.72,3.46,9.16,2.6,18.22,5.65,27.42,8.26,7.33,2.08,12.59,3.6,15.76,4.57,26.59,8.05,53.26,15.78,79.9,23.68.73.22,1.47.37,2.24.45,0,0,.01,0,.02,0,.29.04.49.31.45.61-.14.93-.37,2.08-.69,3.45-2.56,10.94-5.64,22.32-9.23,34.15Zm113.48-171.89c-.24,25.09-1.91,50.09-5.01,74.98-1.44,11.61-3.06,23.2-4.86,34.75-1.55,10.03-5.52,23.57-13.3,30.8-1.87,1.75-4.86,3.53-8.96,5.35-16.07,7.15-32.34,13.76-48.83,19.83-.02,0-.04,0-.06,0-.12,0-.21-.09-.21-.2v-.32c0-.08.03-.15.1-.2,8.16-6.26,19.63-10.21,29.12-14.14,9.09-3.77,16.56-7.16,22.42-10.17,13.49-6.95,17.9-38.56,18.82-51.9,0-.02,0-.05,0-.07-.03-.12-.15-.18-.27-.15-20.05,6.21-39.13,14.62-57.23,25.24-.03.02-.06.04-.08.06-.17.17-.17.44,0,.61l8.14,8.57c.36.38.41.96.12,1.39-7.33,11.22-14.72,22.56-22.18,34.03-3.51,5.39-8.16,9.46-13.96,12.22-2.75,1.31-5.35,2.7-7.8,4.15-.66.39-.85.22-.57-.49,6.18-15.78,13.02-31.52,18.08-47.84,6.33-20.45,11.15-37.54,14.44-51.26,5.49-22.86,11.76-52.31,15.62-78.75,5.42-37.05,7.72-74.3,6.9-111.74-.05-2.51-.11-5.01-.16-7.51-.01-.37.12-.44.4-.19,10.63,9.45,21.48,18.63,31.56,28.67,4.07,4.05,6.96,6.75,7.43,12.09,2.79,32.01-1.77,63.14-13.66,93.41-12.18,31-25.24,59.18-39.68,88.04-.39.77-1.04,1.54-1.57,2.36-.27.41-.17.53.29.37,17.81-6.17,35.69-12.53,53.95-17.32.34-.09.62-.35.73-.69.25-.78.45-1.78.61-3,7.24-55.36,7.22-110.39,3.39-165.24-.7-9.97-3.11-13.56-11.26-19.53-5.79-4.24-11.71-8.31-17.75-12.2-.29-.19-.5-.47-.63-.85-.1-.29-.01-.37.26-.24,11.66,5.69,23.03,11.91,34.1,18.68.68.42,1.03,1.03,1.05,1.83.65,32.39.82,64.57.52,96.56Zm3.9-117.38c-.18.38-.57.61-.99.6l-4.86-.18c-.2,0-.39-.07-.55-.18-.49-.33-.62-.98-.29-1.47l2.66-3.96c.2-.3.53-.47.89-.47l4.2.04c.15,0,.31.04.45.1.53.25.75.89.49,1.42l-2,4.1Zm44.51,169.45c-12.23,3.17-24.55,5.87-36.96,8.09-1.91.34-3.79.52-5.64.55-.36,0-.65-.27-.68-.62l-.02-.33c-.01-.18.12-.34.29-.36,1.39-.16,2.81-.42,4.26-.79,12.69-3.14,25.53-5.55,38.52-7.22.17-.02.27.05.3.22l.05.26c.02.11-.02.17-.12.2Zm1.09-43.42c-.47-.11-.73-.41-.76-.9l-.07-1.25c-.03-.51.21-.77.72-.78,1.13-.03,2.55,0,3.75.24,15.58,3.28,30.7,6.2,46.72,10.04,9.24,2.21,18.47,4.24,27.69,6.07.5.1.76.41.77.92l.08,3.43c0,.37-.17.52-.54.43l-78.36-18.2Zm96.57,41.8l-.27.31c-.07.08-.15.11-.25.08-4.32-1.13-8.61-2.29-12.87-3.48-23.31-6.51-46.74-11.17-70.34-18.27-.53-.16-.81-.26-.84-.31-.66-.84-.47-1.14.57-.9,22.29,5.15,44.38,10.61,66.27,16.36,5.86,1.54,11.47,3.52,17.54,5.51.06.02.11.05.15.09.18.16.2.44.04.61Zm53.31-1.58c-2.21.4-4.37.97-6.48,1.7-8.36,2.88-19.64,5.63-28.06,4.87-5.14-.47-9.62-4.43-14.08-8.75-5.67-5.49-11.62-11.31-17.86-17.48-1.45-1.44-1.6-3.73-.35-5.35l.51-.65c.05-.07.11-.13.16-.19,1.01-1.08,2.71-1.14,3.79-.13,6.89,6.45,13.59,13.26,20.1,20.44,3.41,3.76,7.95,5.3,13.19,5.38,4.64.07,10.8-.57,14.77-3.25.05-.03.09-.08.12-.13.09-.17.01-.39-.17-.48l-21.98-10.51c-.19-.09-.18-.16.03-.19.93-.15,1.84-.06,2.74.28,7.25,2.73,14.04,5.99,20.36,9.78.51.31,1.03.32,1.55.03l1.76-.96c.5-.27.48-.48-.07-.63-6.1-1.62-11.82-6.26-19.96-8.8-.57-.18-.57-.34.01-.49,1-.27,1.99-.21,2.98.18,6.32,2.46,12.7,4.75,19.14,6.86,3.2,1.06,5.99.91,9.12.36,2.25-.39,2.27-.85.04-1.37-8.42-1.96-15.53-5.96-24.11-7.24-.56-.09-.57-.2-.02-.33,3.1-.78,5.79-1.26,9.01-.09,6,2.19,12.16,4.25,18.48,6.17.37.11.61.47.56.86-.39,3.13-1.39,9.4-5.28,10.11Zm59.29-20.44c-15.72,6.08-31.05,10.52-48.48,15.3-1.65.45-2.12-.1-1.41-1.65l.57-1.24c.62-1.37,1.83-2.38,3.28-2.75,4.14-1.05,8.22-2.43,12.23-4.13,4.47-1.89,9.41-2.23,14.08-3.95,2.96-1.09,5.83-1.02,8.55-2.92.08-.06.14-.14.17-.24.07-.24-.07-.49-.3-.56-8.19-2.39-16.05-5.91-24.45-7.4-.59-.11-.58-.19,0-.26,7.69-.93,15.95,2.33,23,5.02,4.27,1.63,8.49,1.93,12.99,3,.51.12.74.44.69.97-.03.31-.34.58-.93.81Zm.27-4.66c-4.97-.91-10.92-2.68-17.86-5.32-2.59-.98-5.2-1.12-7.91-1.51-1.07-.15-1.07-.34-.02-.57,7.18-1.6,11.95,1.51,18.69,2.72,2.87.52,5.66,1.34,8.37,2.47.27.11.41.32.42.62.03,1.27-.54,1.8-1.69,1.59Zm51.49-13.22c-.46.55-1.11,1.38-1.96,2.47-2.24,2.87-5.53,2.93-8.73,3.78-10.52,2.8-20.96,6.68-31.4,9.89-1.18.36-2.57.4-3.79.56-.12.01-.25,0-.36-.05-.37-.16-.53-.58-.38-.95,1.12-2.57,2.95-4.45,5.48-5.66,1.08-.52,1.03-.88-.15-1.09-8.69-1.55-16.33-5.6-25.02-7.38-.59-.13-.59-.24.01-.33,3.48-.56,6.41-.64,9.96.58,6.19,2.12,12.3,3.61,18.25,6.45.44.2.92.26,1.4.18,3.95-.72,7.83-1.67,11.65-2.84,1.19-.37,1.18-.69-.04-.96-11.24-2.55-20.39-7.93-31.66-5.23-.09.03-.15-.01-.16-.11l-.02-.29c-.01-.17.06-.29.22-.36,9.23-3.74,23.33,1.71,32.17,4.36,1.91.57,3.65.71,5.21.42,2.18-.41,4.24-1.11,6.18-2.09,1.02-.51.98-.92-.11-1.23-1.49-.43-3.07-.54-4.58-1.17-6.94-2.88-13.63-4.33-20.17-4.6-.62-.03-.64-.15-.07-.37,5.9-2.27,14.49.96,20.27,2.81,2.59.83,5.85,3.6,8.51,3.23,2.47-.35,4.93-.41,7.39-.19.14.02.27-.08.29-.22l.04-.26c.05-.32-.08-.52-.39-.6-6.77-1.77-13.41-3.94-19.94-6.51-1.67-.66-3.99-.94-5.93-1.64-.65-.23-.63-.41.04-.54,3.94-.78,7.14.96,11.4,2.75,5.04,2.13,10.42,3.33,15.83,5.2,1.15.39,1.33,1.06.56,1.99Zm53.6-18.22l-.71.96c-.18.24-.29.51-.33.8-.19,1.33-.94,2.23-2.25,2.7-15.9,5.8-29.35,10.44-40.35,13.91-1.05.33-2.4.49-4.06.5-.41,0-.46-.13-.15-.39,1.56-1.32,2.59-2.99,3.09-5.01.11-.47-.07-.67-.54-.6-1.23.17-2.46.08-3.69-.29-3.99-1.17-8.04-1.94-12.1-2.82-3.65-.78-8.04-2.59-12.26-3.12-1.09-.14-1.1-.3-.01-.48,1.94-.33,3.89-.54,5.84-.64.29-.01.4.12.34.4l-.05.27c-.03.14.05.28.19.31,3.4.81,6.61,1.92,9.98,2.64,4.74,1.01,9.3,2.94,14.89,1.85.49-.09.5-.21.01-.34-3.79-1.06-7.48-1.75-11.33-3-3.89-1.25-7.87-2.15-11.94-2.68-.23-.03-.25-.12-.07-.26,1.23-.97,2.29-1.32,3.18-1.05,1.65.49,4.39,1.06,8.23,1.72,3.44.6,7.48,1.79,12.12,3.56,2.47.95,4.46,1.44,5.97,1.49,5.08.16,10.15-2.28,14.89-4.68.37-.19.35-.3-.06-.35-6.21-.71-12.21-2.18-18.01-4.4-2.3-.88-4.46-1.18-6.81-1.62-.13-.03-.18-.1-.16-.23l.04-.28c.03-.26.26-.44.52-.42,6.85.62,13.22,1.99,22.98,4.12,5.29,1.15,9.04.93,13.65-1.24.59-.27.57-.52-.04-.73-8.1-2.77-16.75-6.65-25.17-6.8,4.87-.85,8.24-.98,10.1-.38,5.51,1.78,11.08,2.99,16.61,4.61,1.87.55,3.87.52,6.01-.11.4-.11.83-.04,1.16.21.6.44.73,1.28.29,1.87Zm-16.14-5.42h0c0-.07.01-.1.05-.1,4.49-.51,8.72.32,12.69,2.48.54.29.51.38-.09.25-2.3-.46-4.64-1.1-7.02-1.91-1.9-.66-3.55-.49-5.5-.59-.09,0-.13-.04-.13-.13Zm61.94-11.24c-2.21,1.69-.13,4.32-3.03,5.31-10.65,3.65-21.26,7.39-31.84,11.22-1.94.7-3.76,1.14-5.47,1.33-1.74.18-2-.35-.78-1.6.82-.84,1.93-1.72,3.33-2.64.09-.06.17-.15.21-.25.14-.31,0-.67-.3-.81-6.02-2.73-12.94-4-19.32-4.59-3.94-.37-7.71-1.26-11.65-1.72-.15-.02-.22-.11-.2-.26h0c.01-.16.1-.22.25-.21,11.22,1.04,22.79,1.34,33.18,5.01,1.31.47,2.51.36,3.59-.33.06-.04.11-.09.13-.16.08-.18,0-.4-.19-.48-5.27-2.26-10.5-4.46-16.08-5.49-4.5-.83-8.93-1.33-13.28-1.49-.85-.03-.86-.15-.04-.37,9.43-2.54,19.5.97,29.02,5.64,1.35.66,2.64.91,3.89.76,2.41-.3,5.18-.84,7.06-2.51.53-.48,1.02-.83,1.47-1.05,1.43-.71,1.39-1.34-.11-1.87l-16.89-6.04s-.05-.04-.04-.09l.08-.23c.05-.16.16-.22.32-.17,4.56,1.3,9.13,2.59,13.72,3.86,2.46.69,6.66,3.22,9.03,3.07,2.27-.15,5.12-2.68,7.53-3.52.43-.15.42-.26-.03-.35-2.65-.48-5.44-.47-7.88-1.1-6.34-1.63-12.62-3.22-18.85-4.76-.05-.02-.08-.06-.09-.11-.01-.08.04-.15.11-.16,2.31-.11,4.69.05,7.12.49,7.23,1.31,15.53,2.63,24.91,3.97.63.09,1.07.4,1.31.91.15.32.08.58-.19.79Zm2.52-4.47c-.11.14-.31.17-.45.06-2.11-1.46-4.05-1.14-6.4-1.89-2.97-.94-5.53-.92-8.45-1.21-2.31-.24-5.71.08-8.39-.67-.51-.14-.5-.2.03-.18,4.13.17,7.93.36,11.38.59,3.7.25,7.21,1.31,10.81,2.2.63.16,1.1.38,1.41.65.14.11.17.31.06.45Zm32.27-38.21c-3.81,7.38-9.09,16.24-15.86,26.58-2.88,4.39-4.56,6.77-8.94,10.04-2.09,1.57-4.09,3.14-5.98,4.73-.43.37-.75.29-.96-.23l-.25-.59c-.18-.43-.12-.84.17-1.21l1.86-2.38c.27-.35.25-.68-.07-.99-2.76-2.66-10.35-3.73-16.75-5.5-2.2-.61-3.52-1.65-4.77-3.41-.05-.07-.11-.12-.18-.16-.27-.15-.61-.06-.77.21-.41.71-.57,1.49-.48,2.34.03.26-.09.43-.34.5-1.11.32-2.21.36-3.32.12-.47-.11-.52-.31-.15-.62,1.11-.91,1.93-1.42,2.77-2.56,3.67-4.99,5.95-9.93,6.85-14.84.13-.71-.04-2.22-.52-4.53-.06-.31.11-.62.4-.74l.27-.12s.02,0,.03,0c.11-.03.22.04.24.15.36,1.53,1.04,2.88,2.04,4.05.24.29.23.58-.02.86-1.12,1.22-2.15,2.27-2.58,3.98-.89,3.51-2.32,6.69-4.27,9.53-.07.1-.09.23-.06.35.06.23.29.37.52.31,2.43-.61,4.58.58,6.38.94,5.66,1.16,11.25,2.15,16.77,2.97,1.13.17,2.26-.25,3-1.11l1.56-1.81c.71-.82.54-1.38-.51-1.67l-18.6-5.22c-2.23-.63-2.23-1.32.02-2.09.61-.21,1.56-.17,2.84.12,9.45,2.12,15.37,3.51,17.75,4.16,1.18.32,2.09.1,2.73-.66,1.19-1.39,2.22-2.88,3.1-4.47.87-1.57,1.87-3.06,2.99-4.46,1.48-1.84,2.75-3.84,3.81-5.99.23-.46.09-.64-.42-.55-3.79.68-16.88-2.76-19.91-5.28-.3-.25-.26-.43.12-.54,1.1-.31,2.21-.36,3.33-.16,5.69.99,11.32,2.12,16.89,3.41.63.15,1.28-.09,1.67-.6,2.56-3.31,4.53-6.95,5.9-10.91.11-.33.35-.48.71-.45,4.53.49,2.15,6.26.99,8.51Zm9.62-36.95c-.28,7.47.05,11.4-4.54,16.1-2.2,2.25-3.39,4.05-4.68,6.48-.39.74-1.2,1.17-2.04,1.09-5.53-.56-10.95-1.65-16.27-3.27-.59-.18-.84-.57-.73-1.18.1-.56.3-1.08.6-1.56.17-.28.49-.43.82-.41,5.4.4,10.68,1.45,15.83,3.14.62.2,1.29-.09,1.55-.69l1.51-3.44c.05-.11.08-.23.1-.36.08-.69-.41-1.3-1.09-1.38-5.3-.64-10.79-2.6-15.82-4.04-.54-.15-.81-.51-.81-1.07v-.82c-.02-.64.29-.9.92-.77l16.53,3.41c.52.1,1.02-.23,1.13-.75l1.18-5.77c.13-.65-.13-1.03-.78-1.15l-15.21-2.89s-.06-.01-.09-.02c-.32-.11-.49-.46-.38-.78.16-.45.49-.69.99-.72,5.44-.3,10.64.08,15.59,1.13.34.07.53-.06.56-.41l.77-6.88c.03-.33-.11-.53-.43-.59l-14.01-2.64s-.06-.03-.06-.07l.03-.28c.01-.12.08-.18.2-.19,4.63-.25,9.24-.05,13.83.62.35.05.53-.11.52-.46-.07-4.47-.15-8.91-.26-13.33-.08-3.03-1-4.52-3.03-6.53-.38-.37-.3-.53.23-.47,4.42.53,6.85,2.84,7.28,6.92.47,4.45.49,12.46.06,24.03Z"/><path class="cls-1" d="m76.98,682.36c.04.11.17.17.28.13.22-.09.4-.31.55-.66,6.76-16.48,13.41-33.13,18.51-50.28,2.31-7.79,4.59-15.6,6.84-23.41,1.66-5.79,3.69-13.08,3.3-18.49,0-.05-.03-.08-.08-.09-.03,0-.07-.02-.1-.03-.09-.04-.14-.01-.15.09-.57,3.41-1.12,5.89-1.65,7.44-5.13,14.99-10.52,29.88-15.14,45.07-4.03,13.27-8.16,26.63-12.37,40.09-.01.05-.01.1,0,.14Z"/><path class="cls-1" d="m76.06,697.96c-.07.13-.02.29.11.36l.23.12c.09.05.15.03.2-.05,7.29-11.23,11.68-18.75,13.18-22.55,1.9-4.81,4.49-9.61,6.11-14.14,2.34-6.52,4.48-13.08,6.43-19.69,1.01-3.41,1.93-6.84,2.77-10.29,1.17-4.84,2.65-11.48,4.44-19.91.41-1.93.75-6.06,1.01-12.4.01-.25-.11-.39-.36-.41l-.26-.03c-.09,0-.13.03-.14.11-.86,6.19-1.86,11.1-3.01,14.73-1.72,5.42-3.52,10.81-5.4,16.17-8.36,23.85-13.73,46.52-25.31,67.98Z"/></svg>